<?xml version="1.0" encoding="utf-8"?>
<!-- Generator: Adobe Illustrator 28.1.0, SVG Export Plug-In . SVG Version: 6.00 Build 0)  -->
<svg version="1.1" id="Layer_1" xmlns="http://www.w3.org/2000/svg" xmlns:xlink="http://www.w3.org/1999/xlink" x="0px" y="0px"
	 viewBox="0 0 250 250" style="enable-background:new 0 0 250 250;" xml:space="preserve">
<style type="text/css">
	.st0{fill:#FFFFFF;}
</style>
<path class="st0" d="M0,250V88.09C0,39.44,39.44,0,88.09,0H250v161.91c0,48.65-39.44,88.09-88.09,88.09H0z"/>
<g>
	<path d="M210.46,121.65c-0.16-6.6-0.93-13.15-1.69-19.67c-0.68-5.8-2.08-11.55-3.5-17.26c-2.59-10.47-6.44-20.45-11.34-30.01
		c-3.68-7.19-8.16-13.91-13.2-20.26c-5.61-7.06-12.07-13.2-19.33-18.51c-8.19-5.98-17.24-10.24-27.04-12.78
		c-6.09-1.59-12.35-2.29-18.66-2.41c-2.77-0.05-5.5,0.49-8.24,0.74c-2.77,0.25-5.46,0.55-8.18,1.2c-1.74,0.42-3.41,1.04-5.13,1.42
		c-3.41,0.75-6.63,2.04-9.74,3.47c-7.03,3.25-13.57,7.38-19.54,12.36C51.51,31.09,41.78,44.98,34.55,60.69
		C31,68.4,28.39,76.43,26.16,84.63c-1.6,5.87-2.74,11.81-3.51,17.8c-0.99,7.73-1.93,15.49-1.57,21.73
		c-0.01,7.14,0.4,12.65,0.96,18.18c1.04,10.2,2.97,20.21,6.12,29.96c2.13,6.58,4.51,13.06,7.6,19.29
		c4.2,8.46,9.01,16.53,15.01,23.79c7.62,9.22,16.29,17.28,26.81,23.24c7.6,4.31,15.61,7.59,24.2,8.92
		c7.32,1.14,14.7,1.78,22.23,0.76c8.49-1.15,16.58-3.18,24.3-6.88c7.65-3.67,14.63-8.33,20.9-14.02
		c8.22-7.45,15.06-16.01,20.85-25.49c3.74-6.13,6.76-12.59,9.5-19.19c2.02-4.84,3.44-9.89,4.9-14.93
		c1.95-6.72,3.54-13.52,4.38-20.42C209.89,138.86,210.66,130.29,210.46,121.65z M205.75,153.41c-1.95,10.19-4.58,20.22-8.65,29.84
		c-2.77,6.54-5.82,12.92-9.57,18.96c-5.52,8.91-12,17.02-19.82,24.02c-8.34,7.47-17.77,13.14-28.34,16.84
		c-9.12,3.19-18.57,3.74-28.16,3.47c-11.58-0.33-22.14-3.89-32.18-9.4c-10.86-5.96-19.76-14.21-27.46-23.77
		c-6.36-7.9-11.37-16.67-15.52-25.92c-4.89-10.9-8.37-22.24-10.37-34.02c-0.89-5.29-1.78-10.58-1.87-15.98
		c-0.08-4.9-0.89-9.77-0.68-14.7c0.64-14.75,2.19-29.35,6.58-43.53c3.38-10.89,7.87-21.3,13.7-31.09
		c6.1-10.26,13.83-19.2,22.87-26.95c5.89-5.04,12.48-9.14,19.61-12.22c3.08-1.33,6.39-2.18,9.57-3.27
		c6.84-2.36,13.83-2.82,20.9-2.78c4.72,0.03,9.4,0.29,14.08,1.38c7.52,1.77,14.7,4.26,21.47,7.98
		c10.41,5.73,19.11,13.44,26.63,22.59c5.38,6.53,10.01,13.58,13.8,21.1c3.52,6.99,6.56,14.21,8.75,21.78
		c1.87,6.42,3.6,12.87,4.81,19.45c1.66,9.06,2.11,18.23,2.11,29.24C208.17,134.28,207.57,143.92,205.75,153.41z"/>
	<path d="M203.32,100.35c-2.12-14.88-6.48-29.16-13.19-42.66c-4.34-8.73-9.51-16.92-15.92-24.27c-7.89-9.05-17.03-16.56-27.95-21.75
		c-5.65-2.68-11.53-4.76-17.7-5.8c-7.83-1.32-15.67-1.77-23.6-0.29c-5.18,0.96-10.25,2.06-15.14,4.05
		c-7.66,3.1-14.62,7.3-21.03,12.5c-8.8,7.14-15.85,15.75-21.83,25.32c-4.61,7.36-8.2,15.21-11.33,23.29
		c-3.45,8.92-5.67,18.16-7.34,27.54c-1.56,8.77-2.16,17.65-2.12,24.65c-0.04,11.82,0.79,21.63,2.69,31.36
		c1.92,9.82,4.53,19.42,8.33,28.7c6.04,14.75,14.21,28.1,25.61,39.34c12.33,12.16,26.93,19.95,44.15,22.28
		c9.83,1.34,19.63,0.5,29.1-2.54c5.92-1.9,11.62-4.38,16.98-7.68c11.14-6.85,20.11-15.93,27.62-26.52
		c5.19-7.31,9.48-15.13,12.92-23.43c3.05-7.36,5.59-14.89,7.37-22.65c1.59-6.92,2.54-13.94,3.35-21.02
		C205.87,127.22,205.23,113.76,203.32,100.35z M192.92,168.19c-3.86,13.78-9.53,26.72-17.67,38.53
		c-6.52,9.45-14.3,17.68-23.94,24.02c-6.46,4.25-13.42,7.3-20.96,9.21c-8.52,2.16-17.08,2.28-25.6,0.85
		c-8.72-1.46-16.82-4.85-24.22-9.76c-14.49-9.61-24.84-22.76-32.56-38.14c-4.47-8.9-7.96-18.16-10.4-27.82
		c-2.59-10.27-4.27-20.68-4.79-31.27c-0.58-11.75,0-23.42,1.85-35.05c0.81-5.14,1.87-10.24,3.21-15.23
		c3.07-11.39,7.31-22.34,13.26-32.59c6.5-11.2,14.47-21.12,24.81-29.02C91,10.39,107.95,5.9,126.74,8.97
		c7.64,1.25,14.77,4.09,21.42,8.07c11.04,6.61,19.85,15.54,27.13,26.08c6.51,9.42,11.41,19.61,15.15,30.41
		c3.28,9.47,5.39,19.18,6.82,29.09c1.2,8.39,1.38,16.79,1.44,21.32C198.56,141.55,196.62,155,192.92,168.19z"/>
	<path d="M170.47,207.12c-0.37,0.29-0.93-0.02-1.27-0.28c-2.45-1.86-4.88-1.51-7.45-0.22c-5.54,2.8-14.86,0.44-18.19-4.72
		c-2.13-3.29-2.18-7.13-1.98-10.9c0.28-5.23,1.81-10.21,3.24-15.2c2.13-7.4,3.5-14.84,1.77-22.54c-0.93-4.13-2.55-8.03-4.32-11.84
		c-1.64-3.54-3.2-7.12-4.99-10.6c-0.97-1.87-1.23-4.1-1.81-6.17c-1.07-1.9-0.05-4.58-2.27-6.07c0.34,1.45-0.19,2.96,0.44,4.35
		c2.52,13.51,1.01,27.15,1.29,40.74c0.2,9.82,0.49,19.63,1.4,29.41c0.37,4.04,0.66,8.22,3.17,11.74c0.33,0.47,0.39,0.99,0.04,1.45
		c-0.44,0.59-0.94,0.17-1.39-0.01c-6.89-2.65-13.74-2.57-20.55,0.3c-0.4,0.17-0.88,0.57-1.29,0.23c-0.46-0.39-0.07-0.9,0.17-1.23
		c3.5-4.77,3.51-10.45,3.95-15.92c1.48-18.22,0.92-36.49,0.95-54.74c0.04-20.11,0.22-40.21-0.27-60.32
		c-0.19-7.73-0.64-15.46-2.43-23.04c-0.33-1.39-1.2-2.43-1.74-3.67c0.74-0.92,1.64-0.47,2.52-0.32c0.69,0.12,1.32,0.78,2.09,0.23
		c0.33,0.08,0.66,0.16,0.99,0.24c0.71,0.7,1.51,1,2.47,0.49c2.21,0.05,4.41,0.35,6.62,0.01c1.07,0.45,1.96,0.04,2.8-0.6
		c1.32-0.45,2.64-0.89,3.95-1.34c0.88,0.2,0.77,0.96,0.91,1.58c-0.18,0.31-0.37,0.61-0.55,0.92c-0.62,0.31-1.06,0.71-0.85,1.49
		c-2.31,10.67-2.52,21.53-2.87,32.37c-0.11,3.52-0.03,7.05-0.04,10.58c-0.03,7.66,0.9,15.21,2.89,22.61
		c0.74,2.73,1.86,5.35,3.74,7.54c2.26,2.64,5.26,2.08,6.45-1.22c0.71-1.98,0.87-4.05,0.77-6.15c-0.25-5.8-1.48-11.44-2.89-17.04
		c-2.54-10.1-4.77-20.23-4.3-30.75c0.25-5.7,1.04-11.26,3.71-16.4c0.8-1.55,1.89-2.89,3.18-4.07c0.48,0.05,0.76-0.14,0.77-0.65
		c0.19-0.14,0.38-0.28,0.57-0.43c1.91-0.6,3.82-1.2,5.72-1.8h1.99c2.33,1.25,5,1.1,7.46,1.79c2.08,1.04,3.6,2.62,4.59,4.72
		c-0.37,0.99,0.04,1.92,0.22,2.86c0.25,1.33-0.01,2.58-0.41,3.83c-0.49-1.01-0.76-2-0.79-3.08c-0.02-1.09-0.43-2.03-1.39-2.65
		c-0.12-0.24-0.23-0.48-0.35-0.72c0.44-0.6,0.04-0.62-0.42-0.61c-0.45-0.35-0.91-0.71-1.37-1.04c-3.12-2.27-6.79-1.42-8.59,1.97
		c-0.7,0.41-1.02,0.95-0.62,1.75c-0.05,0.22-0.09,0.44-0.14,0.66c-0.5,0.14-0.63,0.37-0.17,0.74c-0.06,0.57-0.12,1.13-0.19,1.69
		c-0.87,1.25-0.58,2.55-0.18,3.86c0,1.38,0,2.76,0.01,4.15c-0.49,1.86-0.56,3.72,0.06,5.57c0.39,1.94,0.06,3.92,0.28,5.87
		c-0.31,0.24-0.27,0.58,0.05,0.6c1.37,0.1,1.03,1.02,0.96,1.83c-0.95,0.64-0.73,1.61-0.69,2.51c0.4,9.33,1.04,18.65,0.33,27.98
		c-0.39,5.02-0.95,10-3.81,14.37c-2.03,3.09-4.94,4.37-8.57,4.09c-2.18-0.17-3.39-1.93-4.96-3.1c0.1-0.71-0.17-1.28-0.68-1.74
		c-0.03-0.03-0.33,0.13-0.36,0.24c-0.2,0.63-0.06,1.22,0.29,1.76c0.11,0.17,0.32,0.28,0.48,0.42c1.95,3.8,4.72,6.96,7.69,9.98
		c0.44,0.45,0.86,0.92,1.28,1.38c0.1,0.85,0.58,1.32,1.44,1.38c1.26,1.03,2.45,2.14,3.44,3.44c-0.02,0.68,0.33,1.03,0.99,1.12
		c0.44,0.37,0.86,0.77,1.09,1.32c-0.05,0.45,0.12,0.72,0.59,0.77c0.16,0.2,0.31,0.4,0.47,0.59c-0.07,0.47,0.1,0.76,0.61,0.79
		c0.1,0.04,0.14,0.11,0.11,0.22c0.6,2.41,1.9,4.51,2.89,6.75c0.05,0.22,0.09,0.44,0.13,0.66c-0.71,0.84-0.04,1.69,0.13,2.43
		c0.51,2.18-0.12,4.43,0.53,6.57c-0.02,0.23-0.04,0.45-0.06,0.67c-1.52,0.63-0.55,1.59-0.31,2.45c-0.03,0.22-0.06,0.44-0.09,0.67
		c-0.57,0.27-0.64,0.63-0.19,1.08c-0.1,0.69-0.19,1.38-0.29,2.07c-0.33,0.22-0.34,0.45-0.05,0.7c-0.08,0.44-0.16,0.89-0.24,1.34
		c-0.89,1.15-1.34,2.4-0.88,3.85c-0.03,0.22-0.06,0.44-0.09,0.66c-0.57,0.26-0.6,0.63-0.21,1.08c-0.06,0.22-0.11,0.43-0.17,0.65
		c-0.4,0.11-0.47,0.47-0.54,0.8c-1.02,4.36-2.09,8.7-2.99,13.08c-0.18,0.87-0.78,1.85-0.11,2.8c-0.05,0.45-0.09,0.9-0.14,1.35
		c-0.79,1.15-0.59,2.33-0.1,3.52c0.08,1.04,0.17,2.07,0.26,3.11c-0.41,0.31-0.22,0.53,0.1,0.74c0.12,0.28,0.25,0.56,0.37,0.85
		c-0.08,0.75,0.24,1.14,1.01,1.14c0.11-0.01,0.19,0.03,0.25,0.12c0.02,0.34,0.17,0.6,0.51,0.65c0.06,0.01,0.17-0.33,0.26-0.5
		c0.72-0.13,1.2-0.58,1.51-1.22c1.82-2.24,2.26-4.89,2.28-7.67c0.08-0.46,0.17-0.92,0.25-1.37c0.34-0.19,0.42-0.42,0.09-0.71
		c0.07-0.45,0.13-0.89,0.19-1.34c1.05-1.87,1.44-3.83,0.88-5.94c0.06-0.33,0.11-0.67,0.17-1c0.59-0.42,0.6-0.9,0.17-1.43
		c0.05-0.45,0.09-0.9,0.14-1.35c1.12-2.93,1.43-5.95,0.93-9.05c0.06-0.69,0.12-1.38,0.18-2.07c0.71-0.61,0.54-1.56,0.55-2.26
		c0.06-2.38,0.93-4.72,0.34-7.11c-0.08-0.82,0-1.63,0.2-2.43c0.55-0.55,0.5-1.14,0.09-1.74c0.09-1.51,0.18-3.01,0.28-4.51
		c0.54-0.67,0.54-1.37,0.08-2.08c0.02-0.34,0.03-0.68,0.06-1.02c0.53-0.08,0.62-0.47,0.59-0.89c-0.18-2.72,0.89-5.32,0.73-8.04
		c-0.02-0.4-0.18-1.07,0.55-1c0.54,0.05,0.37,0.62,0.42,0.99c0.18,1.46-0.32,2.97,0.32,4.39c-0.1,6.71-0.2,13.42-0.3,20.13
		c-0.35,0.22-0.38,0.45-0.02,0.68c0.05,7.34-0.24,14.68,0.36,22c0.45,5.47,1.09,10.92,3.03,16.11
		C170.52,206.26,170.91,206.78,170.47,207.12z"/>
	<path d="M111.9,57.3c-2.22,16.43-1.22,32.94-1.05,49.42c0.01,1.38,0.02,2.77,0.02,4.15c-0.64,1.21-0.5,2.51-0.41,3.79
		c0.08,1.1-0.01,2.11-0.89,2.94c-0.85-1.77-0.2-3.89-1.64-5.39c-0.07-0.68-0.14-1.36-0.21-2.04c0.36-0.97,0.67-1.94-0.25-2.8
		c-0.03-0.45-0.06-0.91-0.09-1.36c0.36-0.75,0.61-1.49-0.24-2.11c-0.03-0.23-0.05-0.45-0.08-0.67c0.45-0.52,0.38-0.98-0.16-1.39
		c-0.08-0.57-0.15-1.15-0.23-1.72c0.44-0.39,0.34-0.73-0.09-1.05c-0.21-1.96-0.42-3.92-0.63-5.89c0.43-0.43,0.42-0.8-0.15-1.09
		c-0.03-0.22-0.07-0.45-0.1-0.67c0.4-0.56,0.41-1.04-0.26-1.41c-0.06-0.45-0.11-0.9-0.16-1.35c0.33-0.26,0.25-0.49-0.06-0.69
		c-0.21-1.73-0.42-3.47-0.63-5.21c0.43-0.39,0.34-0.73-0.09-1.04c-0.08-0.46-0.16-0.93-0.24-1.39c0.45-0.46,0.34-0.81-0.21-1.07
		c-0.87-6.51-1.87-13.01-2.99-19.49c-0.41-2.39-0.9-4.76-1.59-7.09c-0.57-1.94-1.62-3.56-3.23-4.79c-0.46-0.48-0.93-0.82-1.46-0.08
		c-1.92,1.57-2.14,3.78-2.22,6.04c-0.02,0.62-0.09,1.25-0.15,1.87c-0.59,3.12-0.52,6.24-0.03,9.36c-0.01,5.55-0.01,11.11-0.01,16.66
		c-0.5,2.77-0.48,5.54,0,8.31c0,0.93,0,1.86,0,2.79c-0.48,0.48-0.28,1.09-0.28,1.64c-0.02,2.25-0.01,4.5-0.01,6.75
		c0.01,21.99,0.01,43.97,0.03,65.96c0,0.66-0.27,1.4,0.38,1.95c0.07,3.12,0.14,6.24,0.2,9.36c-0.41,0.83-0.44,1.63,0.1,2.42
		c0.08,1.39,0.16,2.78,0.25,4.17c-0.66,2.54,0.09,5.04,0.3,7.55c0.07,0.83-0.29,1.86,0.58,2.54c0.04,0.23,0.08,0.45,0.12,0.67
		c-0.34,0.64-0.41,1.24,0.22,1.76c0.04,0.22,0.09,0.44,0.13,0.67c-0.32,1.67,0.51,3.08,0.97,4.59c0.25,0.8,1.34,1.53,0.73,2.34
		c-0.69,0.92-1.54-0.25-2.35-0.25c-0.09,0-0.18,0.11-0.27,0.17c-1.97-0.33-3.94-0.65-5.91-0.98c-0.34-0.38-0.68-0.44-1.04-0.03
		c-4.35,0.09-8.61,0.61-12.57,2.75c-0.4-0.85-0.02-1.39,0.29-1.77c2.29-2.72,2.77-6.06,3.18-9.37c1.43-11.54,1.53-23.16,1.54-34.76
		c0.05-34.31,0.08-68.62,0.07-102.92c0-2.69,0.2-5.42-0.56-8.07c-0.26-0.9-0.66-1.69-1.66-1.97c-0.12-0.2-0.24-0.41-0.36-0.61
		c-0.51,0.11-1.23-0.27-1.41,0.61c-2.28,1.4-2.8,3.83-3.35,6.11c-1.48,6.1-2.4,12.32-3.2,18.54c-1.02,7.88-2.07,15.75-3.11,23.63
		c-0.33,0.19-0.46,0.41-0.08,0.69c-0.03,0.22-0.05,0.44-0.08,0.67c-0.86,0.71-0.67,1.56-0.34,2.44c-0.07,0.7-0.14,1.4-0.2,2.11
		c-0.35,0.21-0.37,0.44-0.04,0.69c-0.1,1.04-0.2,2.08-0.31,3.12c-0.35,0.2-0.41,0.43-0.06,0.69c-0.04,0.57-0.08,1.13-0.12,1.7
		c-1.05,2.58-1.28,5.27-0.92,8.01c-0.08,0.92-0.16,1.85-0.25,2.77c-0.37,0.18-0.34,0.55-0.44,0.87c-0.77,2.25-0.25,4.74-1.33,7.02
		c-0.79-0.65-0.42-1.7-1-2.32c0.01-0.46,0.02-0.92,0.03-1.37c0.91-0.45,0.87-0.94,0.05-1.45c0.06-1.95,0.12-3.9,0.18-5.85
		c0.55-0.79,0.55-1.6,0.09-2.42c0-0.23,0.01-0.45,0.02-0.68c0.26,0.01,0.45-0.1,0.46-0.36c0.01-0.26-0.16-0.4-0.43-0.39
		c0.01-0.2,0.02-0.41,0.02-0.62c0.61-0.24,0.62-0.5,0.02-0.77c0.01-0.2,0.01-0.4,0.02-0.6c0.82-2.54,0.67-5.1,0.22-7.67
		c0.07-2.42,0.14-4.85,0.2-7.28c0.48-0.31,0.39-0.8,0.39-1.25c-0.02-7.44-0.04-14.89-0.06-22.33c0-0.41-0.13-0.66-0.54-0.73
		c-0.02-0.57-0.03-1.15-0.05-1.72c0.31-1.65,0.77-3.31-0.31-4.87c-0.02-0.34-0.03-0.68-0.05-1.03c0.37-0.27,0.26-0.51-0.06-0.74
		c-0.26-1.01-0.3-2.04-0.28-3.08c0.41-0.51,0.39-0.99-0.11-1.44c-0.06-0.22-0.11-0.44-0.16-0.66c0.49-0.84,0.07-1.47-0.48-2.07
		c-0.1-0.58-0.19-1.15-0.28-1.73c0.39-0.29,0.22-0.53-0.09-0.74c-0.17-0.77-0.34-1.55-0.51-2.32c0.65-0.28,0.22-0.54,0.03-0.89
		c-0.6-1.09-0.45-1.94,0.89-2.29c0.34,0.15,0.68,0.3,1.01,0.45c0.94,1.19,2,1.33,3.18,0.37c0.23-0.03,0.45-0.06,0.67-0.09
		c0.3,0.35,0.52,0.23,0.7-0.12c0.96-0.17,1.93-0.35,2.89-0.52c0.41,0.24,0.74,0.19,0.95-0.26c0.28-0.1,0.56-0.2,0.84-0.29
		c0.5,0.16,0.96,0.2,1.25-0.37c0.45-0.06,0.89-0.12,1.35-0.18c0.51,0.4,1,0.43,1.43-0.12c1.12-0.33,2.24-0.35,3.37-0.04
		c1.08,0.66,2.15,1.35,3.51,1.2c0.33,0.08,0.66,0.15,0.99,0.23c0.63,0.51,1.28,0.93,2.13,0.48c0.45,0.07,0.89,0.13,1.34,0.19
		c0.75,0.6,1.47,0.73,2.17-0.07c1.2-0.22,2.39-0.43,3.59-0.65c0.78,0.03,1.56,0.04,1.92-0.87c1.78-0.93,3.64-0.87,5.53-0.42
		c0.2,0.34,0.43,0.41,0.7,0.08c0.58-0.02,1.15-0.02,1.68,0.25c0.18,0.36,0.4,0.55,0.74,0.15c0.22,0.07,0.43,0.14,0.65,0.21
		c0.25,0.39,0.56,0.49,0.95,0.2c0.61,0.16,1.21,0.31,1.82,0.46c0.17,0.35,0.38,0.57,0.73,0.18c0.8,0.16,1.6,0.33,2.39,0.49
		c0.47,0.64,0.95,0.59,1.45,0.04c0.17-0.02,0.34-0.04,0.51-0.06c0.39,0.21,0.69,0.1,0.91-0.27c0.29-0.13,0.58-0.25,0.86-0.38
		c0.71,0.23,1.52,0.25,2.01,0.95C112.97,51.48,112.29,54.35,111.9,57.3z"/>
	<path d="M169.64,51.69c-0.37,0.99,0.04,1.92,0.22,2.86c0.25,1.33-0.01,2.58-0.41,3.83c-0.49-1.01-0.76-2-0.79-3.08
		c-0.02-1.09-0.43-2.03-1.39-2.65c3.4,9.48-3.03,18.85-9.73,23.39c-0.58,0.4-1.24,0.6-1.96,0.49c-0.31,0.24-0.27,0.58,0.05,0.6
		c1.37,0.1,1.03,1.02,0.96,1.83c0.43-0.14,0.92-0.19,1.29-0.43c7.42-4.77,12.3-11.21,13.2-20.21
		C171.32,55.99,170.8,53.76,169.64,51.69z M169.27,59.42l-0.08-0.06l0.09-0.03L169.27,59.42z"/>
	<path d="M111.33,137.41c-1.13,0.14-1.46-1.01-1.54-1.94c-0.68-7.64-1.31-15.29-1.96-22.94c-0.01-0.1,0.07-0.22,0.1-0.33
		c1.43,1.5,0.79,3.62,1.64,5.39c0.88-0.84,0.96-1.85,0.89-2.94c-0.09-1.28-0.23-2.58,0.41-3.79c0.58,2.6,0.42,5.26,0.59,7.89
		c0.35,5.53,0.44,11.07,0.59,16.61C112.07,136.11,112.34,137.29,111.33,137.41z"/>
	<path d="M92.67,167.97c0,0.4-0.1,0.79-0.15,1.18c-0.66-0.54-0.38-1.29-0.38-1.95c-0.02-21.99-0.03-43.97-0.03-65.96
		c0-2.25-0.01-4.5,0.01-6.75c0-0.55-0.2-1.17,0.28-1.64c0.05,5.82,0.11,11.64,0.13,17.47C92.58,129.54,92.63,148.76,92.67,167.97z"
		/>
	<path d="M168.44,131.79c-0.06,1.32-0.21,2.64-0.31,3.96c-0.28,3.73-0.56,7.45-0.84,11.18c-0.63-1.43-0.14-2.93-0.32-4.39
		c-0.05-0.37,0.13-0.94-0.42-0.99c-0.73-0.07-0.57,0.61-0.55,1c0.16,2.72-0.91,5.32-0.73,8.04c0.03,0.42-0.06,0.82-0.59,0.89
		c-0.03-0.46-0.12-0.92-0.07-1.37c0.75-5.84,1.01-11.72,1.3-17.6c0.02-0.34,0.12-0.68,0.18-1.02c0.15-0.92,0.84-1,1.56-0.98
		C168.52,130.54,168.47,131.25,168.44,131.79z"/>
	<path d="M62.51,127.06c-0.43,2.85-0.56,5.72-0.67,8.59c-0.03,0.79-0.04,1.71-1.25,1.65c-1.14-0.06-1.23-0.87-1.17-1.73
		c0.26-3.61,0.55-7.21,0.83-10.81c0.58,0.62,0.22,1.68,1,2.32c1.08-2.29,0.56-4.78,1.33-7.02c0.11-0.32,0.08-0.69,0.44-0.87
		C63.27,121.84,62.89,124.45,62.51,127.06z"/>
	<path d="M61.15,95.29c-0.48-2.57-0.1-5.15-0.15-7.73c-0.09-5.53-0.05-11.05-0.06-16.58c0.41,0.07,0.54,0.32,0.54,0.73
		c0.01,7.44,0.04,14.89,0.06,22.33C61.54,94.49,61.63,94.98,61.15,95.29z"/>
	<path d="M43.94,160.66c-0.03,1.08-0.86,1.53-1.82,1.76c-1.03-0.24-1.71-0.88-1.74-1.88c-0.03-1.05,0.73-1.81,1.73-1.76
		C43.12,158.82,43.98,159.5,43.94,160.66z"/>
	<path d="M81.96,225.54c-0.1,1.14-1.15,1.51-2.05,1.39c-0.85-0.11-1.53-0.8-1.38-1.87c0.15-1.06,0.72-1.66,1.9-1.47
		C81.59,223.7,82.04,224.55,81.96,225.54z"/>
	<path d="M66.49,213.82c-1.16,0.09-1.81-0.77-1.88-1.82c-0.06-1.01,0.81-1.41,1.72-1.7c0.84,0.27,1.85,0.51,1.93,1.6
		C68.35,213.05,67.53,213.74,66.49,213.82z"/>
	<path d="M160.35,219.04c-0.21,1.02-0.82,1.64-1.9,1.53c-1.08-0.11-1.7-0.91-1.56-1.9c0.13-0.93,0.83-1.69,1.93-1.52
		C159.81,217.31,160.52,217.84,160.35,219.04z"/>
	<path d="M181.88,187.48c-0.11,1.15-0.71,1.84-1.76,1.81c-1.03-0.02-1.79-0.78-1.74-1.76c0.04-0.87,0.55-1.83,1.68-1.83
		C181.19,185.71,181.81,186.41,181.88,187.48z"/>
	<path d="M191.05,160.27c-0.03,1.11-0.79,1.54-1.43,1.64c-1.43-0.1-2.15-0.53-2.13-1.7c0.02-1.17,0.8-1.64,1.8-1.63
		C190.31,158.6,191.08,159.14,191.05,160.27z"/>
	<path d="M157.43,178.11c-0.7,4.73-2.17,9.31-3.01,14.02c-0.16,0.9-0.42,1.78-0.63,2.67c-0.67-0.95-0.06-1.94,0.11-2.8
		c0.9-4.38,1.97-8.73,2.99-13.08C156.96,178.58,157.03,178.22,157.43,178.11z"/>
	<path d="M52.85,187.75c0,1.31-0.46,1.89-1.59,1.8c-1.19-0.1-1.78-0.76-1.74-1.93c0.04-1.18,0.89-1.6,1.88-1.59
		C52.64,186.06,52.74,187.09,52.85,187.75z"/>
	<path d="M192.85,150.5c0.01,1.65-0.74,2.14-1.77,2.12c-1.02-0.02-1.65-0.78-1.58-1.7c0.07-0.88,0.44-1.88,1.69-1.79
		C192.29,149.21,192.8,149.91,192.85,150.5z"/>
	<path d="M177.55,196.05c-0.08,1-0.48,1.79-1.54,1.71c-1.33-0.07-2-0.68-1.97-1.85c0.03-1.15,1.03-1.35,1.85-1.37
		C176.77,194.53,177.65,194.89,177.55,196.05z"/>
	<path d="M94.19,17.13c-0.08,1.37-0.66,2.11-1.82,2.07c-1.19-0.03-1.44-1.02-1.43-1.96c0.01-0.87,0.25-1.81,1.42-1.74
		C93.44,15.58,94.15,16.18,94.19,17.13z"/>
	<path d="M97.94,206.89c-0.36,0.32-0.87,0.1-1.29-0.11c-1.05-0.54-2.11-1.09-3.16-1.63c0.09-0.06,0.18-0.17,0.27-0.17
		c0.81,0,1.65,1.17,2.35,0.25c0.61-0.82-0.48-1.55-0.73-2.34c-0.46-1.51-1.29-2.92-0.97-4.59c0.8,2.55,1.4,5.19,3.3,7.25
		C98.01,205.87,98.47,206.43,97.94,206.89z"/>
	<path d="M40.01,122.58c0,1.15-0.98,1.4-1.88,1.66c-0.85-0.38-1.79-0.73-1.62-1.89c0.13-0.89,0.62-1.73,1.64-1.64
		C39.17,120.81,40.02,121.43,40.01,122.58z"/>
	<path d="M194.07,141.45c-0.09,1.09-0.83,1.73-1.78,1.7c-0.99-0.03-1.66-0.9-1.6-1.86c0.05-0.81,0.44-1.72,1.57-1.69
		C193.42,139.62,193.99,140.29,194.07,141.45z"/>
	<path d="M166.8,211.87c0.05,1.05-0.56,1.62-1.55,1.65c-1.05,0.03-1.79-0.6-1.89-1.61c-0.09-1.02,0.52-1.71,1.61-1.92
		C166,210.2,166.75,210.71,166.8,211.87z"/>
	<path d="M64.98,41.57c-0.2,0.83-0.48,1.76-1.42,1.7c-0.88-0.05-1.81-0.52-1.83-1.68c-0.03-1.08,0.55-1.81,1.61-1.88
		C64.59,39.62,64.65,40.74,64.98,41.57z"/>
	<path d="M46.19,169.92c-0.05,0.95-0.6,1.64-1.66,1.55c-1.01-0.08-1.77-0.52-1.74-1.7c0.03-1.15,0.7-1.61,1.86-1.63
		C45.72,168.17,46.25,168.87,46.19,169.92z"/>
	<path d="M85.89,21.8c-0.06,1.03-0.56,1.76-1.77,1.67c-1.07-0.07-1.73-0.59-1.72-1.72c0.01-1.13,0.8-1.51,1.74-1.43
		C84.98,20.41,85.96,20.63,85.89,21.8z"/>
	<path d="M40.55,141.37c-0.05,1.28-0.31,2.04-1.47,2.06c-1.18,0.01-1.66-0.69-1.71-1.74c-0.05-1.06,0.53-1.61,1.58-1.61
		C40,140.08,40.5,140.67,40.55,141.37z"/>
	<path d="M103.11,14.22c0.06,1.13-0.63,1.55-1.62,1.51c-0.97-0.05-1.82-0.35-1.77-1.61c0.05-1.13,0.67-1.64,1.7-1.68
		C102.65,12.45,103.05,13.18,103.11,14.22z"/>
	<path d="M44.85,84.53c0.06,1-0.52,1.66-1.54,1.63c-0.89-0.03-1.91-0.12-1.88-1.46c0.05-1.17,0.71-1.75,1.83-1.8
		C44.35,82.86,44.8,83.6,44.85,84.53z"/>
	<path d="M40.11,132.23c-0.1,0.98-0.82,1.51-1.81,1.58c-1.12,0.09-1.53-0.85-1.57-1.68c-0.05-0.85,0.32-1.79,1.43-1.77
		C39.23,130.38,40.03,130.89,40.11,132.23z"/>
	<path d="M41.23,102.97c0.05,1.38-0.57,2.06-1.61,2.06c-0.94,0-1.58-0.65-1.62-1.66c-0.03-0.95,0.28-1.74,1.43-1.69
		C40.37,101.74,41.31,101.92,41.23,102.97z"/>
	<path d="M49.34,179.18c-0.1,1.13-0.94,1.37-1.86,1.32c-1.07-0.05-1.52-0.69-1.4-1.5c0.08-1.31,0.61-1.8,1.7-1.67
		C48.88,177.47,49.44,178.06,49.34,179.18z"/>
	<path d="M169.6,41.37c-0.11,0.96-0.79,1.48-1.61,1.39c-0.8-0.08-2-0.09-1.94-1.41c0.06-1.11,0.75-1.79,1.89-1.81
		C169.13,39.51,169.39,40.43,169.6,41.37z"/>
	<path d="M188.5,169.68c0.07,1.06-0.66,1.34-1.51,1.4c-0.87-0.19-1.86-0.23-1.82-1.43c0.03-1.01,0.51-1.8,1.65-1.78
		C187.93,167.91,188.44,168.66,188.5,169.68z"/>
	<path d="M54.94,57.8c0.02,1.11-0.71,1.63-1.61,1.63c-1.1,0-1.63-0.85-1.55-1.87c0.07-0.89,0.45-1.71,1.6-1.62
		C54.52,56.01,54.93,56.74,54.94,57.8z"/>
	<path d="M41.82,151.03c-0.01,1.08-0.33,1.86-1.31,1.86c-1.08,0-1.86-0.63-1.91-1.78c-0.05-1.16,0.77-1.6,1.78-1.64
		C41.57,149.42,41.66,150.37,41.82,151.03z"/>
	<path d="M185.5,76.88c-0.88-0.26-1.95-0.41-1.92-1.6c0.02-0.95,0.51-1.83,1.66-1.86c1.02-0.02,1.63,0.67,1.73,1.6
		C187.08,76.02,186.48,76.63,185.5,76.88z"/>
	<path d="M179.56,57.41c0.05,1.19-0.67,1.6-1.72,1.68c-1.22,0.09-1.44-0.72-1.45-1.65c0-0.92,0.17-1.74,1.42-1.66
		C178.88,55.85,179.6,56.2,179.56,57.41z"/>
	<path d="M163.39,33.9c0.02,1.2-0.7,1.63-1.84,1.71c-1.29,0.09-1.34-0.77-1.38-1.67c-0.04-1.07,0.5-1.62,1.55-1.56
		C162.62,32.43,163.48,32.64,163.39,33.9z"/>
	<path d="M71.21,34.09c-0.08,1.06-0.59,1.68-1.72,1.67c-1.08-0.01-1.51-0.62-1.51-1.64c0-1.07,0.54-1.61,1.59-1.53
		C70.45,32.66,71.33,32.85,71.21,34.09z"/>
	<path d="M42.82,94.11c-0.01,1.15-0.79,1.25-1.63,1.25c-1.04,0-1.83-0.37-1.75-1.58c0.07-0.97,0.57-1.6,1.51-1.54
		C42.28,92.3,42.83,92.92,42.82,94.11z"/>
	<path d="M62.23,204.57c-0.07,1.08-0.6,1.51-1.68,1.44c-1.12-0.07-1.64-0.52-1.62-1.71c0.02-1.19,0.68-1.46,1.69-1.43
		C61.72,202.88,62.3,203.39,62.23,204.57z"/>
	<path d="M40.22,112.94c0,1.08-0.49,1.57-1.57,1.56c-1.08-0.02-1.6-0.59-1.59-1.61c0.01-0.94,0.3-1.72,1.73-1.63
		C39.69,111.25,40.23,111.79,40.22,112.94z"/>
	<path d="M47.6,75.43c-0.31,0.82-0.42,1.87-1.6,1.71c-0.91-0.12-1.85-0.45-1.83-1.68c0.02-1.18,0.81-1.64,1.8-1.7
		C47.07,73.69,47.32,74.61,47.6,75.43z"/>
	<path d="M121.95,12.31c0.02,0.97-0.28,1.85-1.36,1.79c-1.24,0.02-1.98-0.36-2.04-1.53c-0.06-1.06,0.47-1.62,1.54-1.56
		C120.95,11.07,121.92,11.14,121.95,12.31z"/>
	<path d="M90.05,230.5c-0.06,1.15-0.9,1.45-1.79,1.39c-0.9-0.06-1.7-0.49-1.63-1.61c0.06-0.97,0.49-1.65,1.61-1.57
		C89.36,228.78,90.12,229.22,90.05,230.5z"/>
	<path d="M174.82,49.3c0,0.88-0.62,1.42-1.61,1.41c-0.92-0.01-1.68-0.38-1.72-1.51c-0.04-1.2,0.71-1.63,1.72-1.7
		C174.32,47.42,174.74,48.12,174.82,49.3z"/>
	<path d="M185.44,178.42c-0.02,1.32-0.41,1.97-1.55,1.88c-0.99-0.08-1.8-0.27-1.77-1.57c0.03-1.21,0.78-1.66,1.76-1.68
		C184.88,177.03,185.4,177.72,185.44,178.42z"/>
	<path d="M57.18,196.05c-0.05,1.01-0.2,1.85-1.38,1.91c-1.13,0.06-1.75-0.57-1.86-1.63c-0.11-1.12,0.67-1.57,1.63-1.57
		C56.4,194.76,57.22,195.01,57.18,196.05z"/>
	<path d="M74.55,219.15c-0.01,0.9-0.42,1.62-1.42,1.61c-1.09-0.01-1.88-0.53-1.91-1.76c-0.02-1.01,0.57-1.44,1.64-1.47
		C73.73,217.64,74.57,217.96,74.55,219.15z"/>
	<path d="M194.64,131.81c-0.01,1.03-0.51,1.57-1.57,1.59c-1.19,0.02-1.64-0.6-1.64-1.71c0-0.99,0.4-1.48,1.43-1.47
		C193.95,130.23,194.64,130.61,194.64,131.81z"/>
	<path d="M98.51,234.45c0.05,0.87-0.28,1.38-1.29,1.36c-1.14-0.03-1.9-0.39-1.89-1.69c0.01-1,0.45-1.46,1.46-1.49
		C98.1,232.57,98.57,233.24,98.51,234.45z"/>
	<path d="M131.27,14.15c0,0.97-0.55,1.47-1.52,1.48c-0.89-0.12-1.8-0.15-1.77-1.43c0.03-1.14,0.54-1.73,1.69-1.71
		C130.73,12.51,131.27,13.13,131.27,14.15z"/>
	<path d="M126.94,236.46c-0.08,1.03-0.14,1.84-1.44,1.76c-1.13-0.07-1.72-0.48-1.72-1.64c0-1.09,0.6-1.54,1.62-1.59
		C126.54,234.94,126.95,235.57,126.94,236.46z"/>
	<path d="M107.84,236.55c-0.01,0.94-0.24,1.69-1.52,1.7c-1.18,0.01-1.67-0.5-1.68-1.62c-0.01-1.03,0.5-1.63,1.54-1.61
		C107.09,235.04,107.92,235.27,107.84,236.55z"/>
	<path d="M154.67,28.87c-1.02,0.1-1.44-0.49-1.45-1.46c-0.01-1.05,0.44-1.61,1.55-1.53c0.92,0.06,1.76,0.19,1.66,1.43
		C156.57,28.62,155.6,28.77,154.67,28.87z"/>
	<path d="M189.73,84.47c0.02,1.09-0.79,1.37-1.63,1.31c-0.75-0.06-1.71-0.08-1.71-1.25c0-1.08,0.48-1.76,2.02-1.78
		C189.18,82.75,189.7,83.4,189.73,84.47z"/>
	<path d="M148.6,21.78c-0.05,0.89-0.24,1.62-1.35,1.6c-1.2-0.02-1.82-0.63-1.82-1.82c0-1.05,0.67-1.38,1.62-1.32
		C148.1,20.2,148.66,20.66,148.6,21.78z"/>
	<path d="M140.34,17.29c-0.09,0.99-0.65,1.64-1.74,1.62c-1.1-0.02-1.43-0.84-1.42-1.77c0-0.92,0.3-1.77,1.46-1.67
		C139.65,15.55,140.36,16.06,140.34,17.29z"/>
	<path d="M117.46,237.36c0.03,1.08-0.57,1.59-1.6,1.61c-1.13,0.02-1.73-0.53-1.71-1.69c0.02-1.01,0.42-1.63,1.56-1.61
		C116.85,235.7,117.44,236.24,117.46,237.36z"/>
	<path d="M78,27.46c0.03,1.33-0.78,1.55-1.69,1.62c-1.23,0.1-1.42-0.82-1.44-1.68c-0.03-0.91,0.44-1.51,1.48-1.46
		C77.43,25.99,78.11,26.41,78,27.46z"/>
	<path d="M183.53,66.27c-0.06,0.94-0.4,1.71-1.49,1.59c-1.32,0.08-1.53-0.83-1.55-1.7c-0.03-0.96,0.41-1.7,1.55-1.63
		C183.09,64.6,183.59,65.25,183.53,66.27z"/>
	<path d="M134.61,235.72c-1.27,0.03-1.59-0.74-1.65-1.73c-0.08-1.21,0.79-1.38,1.71-1.42c1.03-0.03,1.68,0.36,1.57,1.52
		C136.36,235.29,135.76,235.69,134.61,235.72z"/>
	<path d="M194.77,122.11c-0.01,0.99-0.37,1.68-1.49,1.7c-0.97,0.02-1.71-0.22-1.72-1.42c-0.01-1.1,0.37-1.78,1.57-1.8
		C194.18,120.56,194.8,120.97,194.77,122.11z"/>
	<path d="M194.36,112.58c0.06,1-0.34,1.67-1.43,1.7c-1.1,0.03-1.7-0.51-1.71-1.64c-0.01-0.91,0.21-1.6,1.32-1.54
		C193.52,111.15,194.44,111.25,194.36,112.58z"/>
	<path d="M193.36,103.21c-0.01,1.07-0.5,1.56-1.61,1.49c-1.1-0.07-1.7-0.47-1.64-1.69c0.06-1.18,0.76-1.44,1.73-1.43
		C192.88,101.61,193.42,102.13,193.36,103.21z"/>
	<path d="M112.25,12.64c-0.02,0.95-0.38,1.57-1.44,1.49c-1.03-0.08-1.78-0.5-1.71-1.66c-0.07-1.26,0.73-1.45,1.68-1.47
		C111.93,10.96,112.28,11.62,112.25,12.64z"/>
	<path d="M50.98,66.58c0.08,1.01-0.62,1.47-1.68,1.5c-1.21,0.03-1.53-0.82-1.59-1.81c-0.07-1.13,0.69-1.29,1.58-1.26
		C50.2,65.06,51.07,65.16,50.98,66.58z"/>
	<path d="M191.7,93.73c0.05,0.92-0.27,1.54-1.35,1.53c-1.11-0.01-1.72-0.48-1.74-1.65c-0.02-1.14,0.58-1.49,1.62-1.51
		C191.39,92.07,191.79,92.64,191.7,93.73z"/>
	<path d="M152.84,225.02c-0.05,0.97-0.43,1.74-1.52,1.66c-0.99-0.07-1.73-0.55-1.69-1.75c0.04-1.12,0.67-1.5,1.65-1.47
		C152.42,223.39,152.89,223.95,152.84,225.02z"/>
	<path d="M144.89,230.27c-0.06,1.09-0.65,1.51-1.69,1.45c-1.09-0.06-1.76-0.49-1.61-1.65c-0.02-1.29,0.81-1.4,1.74-1.38
		C144.36,228.72,144.95,229.14,144.89,230.27z"/>
	<path d="M93.94,195.2c-0.87-0.68-0.51-1.72-0.58-2.54c-0.21-2.5-0.96-5-0.3-7.55C93.34,188.47,94.02,191.8,93.94,195.2z"/>
	<path d="M161.97,183.75c0.08-3.04,0.43-6.05,0.93-9.05C163.4,177.8,163.09,180.81,161.97,183.75z"/>
	<path d="M160.01,162.89c-0.65-2.14-0.02-4.39-0.53-6.57c-0.17-0.74-0.84-1.59-0.13-2.43C160.59,156.81,160.36,159.84,160.01,162.89
		z"/>
	<path d="M135.47,124.66c-0.55,0.27-1.08,0.63-1.2-0.46c-0.05-0.42-0.15-0.98-0.63-1.26c-0.63-1.39-0.1-2.9-0.44-4.35
		C135.42,120.09,134.41,122.77,135.47,124.66z"/>
	<path d="M92.41,65.09c-0.49-3.12-0.55-6.24,0.03-9.36C92.55,58.85,92.63,61.97,92.41,65.09z"/>
	<path d="M58.6,49.7c0.19,0.34,0.62,0.61-0.03,0.89c-0.77-1.09-1-2.4-1.42-3.62c-0.1-0.31-0.22-0.77-0.06-0.96
		c0.32-0.41,0.71,0.06,1.06,0.15c0.65,0.18,0.85,0.88,1.35,1.26C58.15,47.77,58.01,48.62,58.6,49.7z"/>
	<path d="M163.08,172.63c-0.02-3.16,0.26-6.28,0.89-9.37c0.59,2.4-0.27,4.74-0.34,7.11C163.62,171.07,163.8,172.02,163.08,172.63z"
		/>
	<path d="M121.57,47.79c-0.76,0.55-1.4-0.11-2.09-0.23c-0.88-0.15-1.78-0.6-2.52,0.32c-0.4-0.61-0.8-1.22-1.41-2.15
		C118,45.9,119.6,47.41,121.57,47.79z"/>
	<path d="M92.4,90.06c-0.48-2.77-0.5-5.54,0-8.31C92.58,84.52,92.61,87.29,92.4,90.06z"/>
	<path d="M160.09,196.89c-0.02,2.78-0.46,5.43-2.28,7.67C158.57,202,159.33,199.45,160.09,196.89z"/>
	<path d="M113.74,48.62c-0.49-0.7-1.3-0.72-2.01-0.95c0.14-0.17,0.25-0.38,0.42-0.51c0.68-0.55,1.51-1.69,2.24-1.03
		C115.07,46.72,114.39,47.88,113.74,48.62z"/>
	<path d="M64.19,108.41c0.03,2.71-0.5,5.36-0.92,8.01C62.91,113.67,63.14,110.99,64.19,108.41z"/>
	<path d="M165.06,46.97c-2.46-0.69-5.13-0.54-7.46-1.79C160.24,45.11,162.79,45.44,165.06,46.97z"/>
	<path d="M60.73,110.23c-0.11-2.56-0.09-5.12,0.22-7.67C61.4,105.13,61.54,107.7,60.73,110.23z"/>
	<path d="M159.22,153.23c-0.99-2.24-2.29-4.34-2.89-6.75C157.77,148.52,158.99,150.66,159.22,153.23z"/>
	<path d="M160.62,193.47c0.01-2.02,0.38-3.99,0.88-5.94C162.06,189.63,161.67,191.6,160.62,193.47z"/>
	<path d="M140.77,45.48c0.06,1.37-0.37,2.21-1.46,2.7c-0.14-0.62-0.02-1.38-0.91-1.58C138.94,45.76,139.89,45.95,140.77,45.48z"/>
	<path d="M155.6,45.18c-1.91,0.6-3.82,1.2-5.72,1.8C151.6,45.76,153.41,44.88,155.6,45.18z"/>
	<path d="M60.9,69.26c-0.26-1.61-0.4-3.23-0.31-4.87C61.66,65.95,61.2,67.61,60.9,69.26z"/>
	<path d="M157.91,175.72c-0.46-1.46-0.01-2.71,0.88-3.85C158.87,173.23,158.34,174.46,157.91,175.72z"/>
	<path d="M153.65,196.15c-0.03,1.17-0.07,2.35-0.1,3.52C153.06,198.48,152.86,197.3,153.65,196.15z"/>
	<path d="M80.64,47.43c-1.36,0.15-2.43-0.54-3.51-1.2C78.47,46.16,79.55,46.82,80.64,47.43z"/>
	<path d="M63.69,48.23c-1.19,0.96-2.25,0.83-3.18-0.37C61.53,48.27,62.63,48.08,63.69,48.23z"/>
	<path d="M159.64,166c-0.24-0.86-1.21-1.81,0.31-2.45C160.07,164.4,160,165.22,159.64,166z"/>
	<path d="M134.45,47.94c-0.84,0.63-1.73,1.05-2.8,0.6C132.54,48.14,133.47,47.91,134.45,47.94z"/>
	<path d="M107.72,110.18c-0.22-0.92-0.43-1.84-0.25-2.8C108.4,108.23,108.08,109.2,107.72,110.18z"/>
	<path d="M138.9,124.83c-0.09,0.22-0.18,0.45-0.27,0.67c-0.16-0.14-0.36-0.25-0.48-0.42c-0.35-0.53-0.49-1.13-0.29-1.76
		c0.03-0.11,0.33-0.27,0.36-0.24C138.73,123.55,139,124.12,138.9,124.83z"/>
	<path d="M60.51,116.08c-0.19-0.82-0.14-1.62,0.09-2.42C61.07,114.49,61.06,115.3,60.51,116.08z"/>
	<path d="M92.82,180.94c-0.54-0.78-0.51-1.59-0.1-2.42C92.96,179.32,93,180.12,92.82,180.94z"/>
	<path d="M125.03,48.52c-0.96,0.51-1.76,0.21-2.47-0.49C123.42,47.99,124.23,48.25,125.03,48.52z"/>
	<path d="M64.91,100.1c-0.33-0.87-0.52-1.73,0.34-2.44C65.39,98.51,65.32,99.33,64.91,100.1z"/>
	<path d="M164.55,154.58c-0.19-0.7-0.2-1.39,0.08-2.08C165.09,153.21,165.09,153.91,164.55,154.58z"/>
	<path d="M107.38,106.01c-0.3-0.68-0.42-1.38-0.24-2.11C107.99,104.52,107.74,105.26,107.38,106.01z"/>
	<path d="M87.28,48.26c-0.7,0.8-1.43,0.67-2.17,0.07C85.82,48.1,86.55,48.14,87.28,48.26z"/>
	<path d="M59.93,57.45c-0.42-0.63-0.59-1.32-0.48-2.07C60,55.98,60.41,56.61,59.93,57.45z"/>
	<path d="M83.76,48.14c-0.85,0.45-1.5,0.03-2.13-0.48C82.39,47.64,83.11,47.72,83.76,48.14z"/>
	<path d="M164.18,160.83c-0.2-0.59-0.17-1.17,0.09-1.74C164.68,159.69,164.73,160.28,164.18,160.83z"/>
	<path d="M94.28,197.63c-0.63-0.52-0.57-1.12-0.22-1.76C94.38,196.43,94.42,197.02,94.28,197.63z"/>
	<path d="M149.04,138.23c-0.86-0.06-1.33-0.53-1.44-1.38C148.2,137.18,148.74,137.58,149.04,138.23z"/>
	<path d="M76.85,48.02c-0.59-0.22-1.18-0.05-1.77,0.01c0.18-0.88,0.9-0.5,1.41-0.61C76.61,47.62,76.73,47.82,76.85,48.02z"/>
	<path d="M92.79,46.74c-0.36,0.91-1.14,0.9-1.92,0.87C91.46,47.2,92.06,46.83,92.79,46.74z"/>
	<path d="M73.76,46.27c-0.43,0.55-0.92,0.51-1.43,0.12C72.79,46.18,73.26,46.07,73.76,46.27z"/>
	<path d="M161.67,186.53c-0.22-0.51-0.08-0.98,0.17-1.43C162.27,185.63,162.26,186.11,161.67,186.53z"/>
	<path d="M107.07,103.23c-0.27-0.44-0.37-0.89-0.16-1.39C107.45,102.25,107.52,102.71,107.07,103.23z"/>
	<path d="M105.72,91.43c-0.34-0.42-0.4-0.9-0.26-1.41C106.12,90.39,106.12,90.87,105.72,91.43z"/>
	<path d="M60.2,59.55c-0.2-0.47-0.24-0.94-0.11-1.44C60.59,58.56,60.61,59.03,60.2,59.55z"/>
	<path d="M138.76,49.1c-0.01,0.65-0.45,1.06-0.85,1.49C137.69,49.81,138.13,49.41,138.76,49.1z"/>
	<path d="M109.45,48.38c-0.5,0.55-0.99,0.6-1.45-0.04C108.49,48.14,108.97,48.12,109.45,48.38z"/>
	<path d="M60.28,123.39c-0.15-0.49-0.17-0.97,0.05-1.45C61.15,122.45,61.19,122.94,60.28,123.39z"/>
	<path d="M155.28,205.51c-0.77-0.01-1.09-0.4-1.01-1.14C154.74,204.63,155.06,205.02,155.28,205.51z"/>
	<path d="M153.47,142.79c-0.66-0.09-1.01-0.44-0.99-1.12C152.98,141.9,153.32,142.26,153.47,142.79z"/>
	<path d="M96.27,47.91c-0.49-0.02-0.97-0.05-1.46-0.08C95.34,47.09,95.81,47.43,96.27,47.91z"/>
	<path d="M87.58,204.17c-0.35,0.17-0.7,0.16-1.04-0.03C86.91,203.73,87.25,203.78,87.58,204.17z"/>
	<path d="M106.69,100.12c-0.23-0.33-0.26-0.68-0.09-1.05C107.03,99.39,107.13,99.73,106.69,100.12z"/>
	<path d="M104.29,80.34c-0.27-0.32-0.38-0.67-0.21-1.07C104.63,79.54,104.74,79.88,104.29,80.34z"/>
	<path d="M104.61,82.78c-0.24-0.33-0.31-0.67-0.09-1.04C104.96,82.05,105.05,82.39,104.61,82.78z"/>
	<path d="M105.97,93.19c-0.26-0.33-0.36-0.69-0.15-1.09C106.39,92.39,106.4,92.76,105.97,93.19z"/>
	<path d="M157.61,177.46c-0.39-0.45-0.35-0.82,0.21-1.08C157.97,176.78,157.83,177.13,157.61,177.46z"/>
	<path d="M159.36,167.75c-0.45-0.45-0.38-0.81,0.19-1.08C159.73,167.07,159.65,167.43,159.36,167.75z"/>
	<path d="M70.98,46.58c-0.28,0.58-0.75,0.53-1.25,0.37C70.07,46.55,70.5,46.45,70.98,46.58z"/>
	<path d="M156.3,205.78c-0.09,0.18-0.2,0.51-0.26,0.5c-0.34-0.06-0.49-0.32-0.51-0.65C155.79,205.68,156.05,205.73,156.3,205.78z"/>
	<path d="M64.67,102.9c-0.33-0.25-0.31-0.48,0.04-0.69C64.91,102.44,64.85,102.67,64.67,102.9z"/>
	<path d="M65.33,96.99c-0.39-0.27-0.26-0.49,0.08-0.69C65.58,96.56,65.56,96.79,65.33,96.99z"/>
	<path d="M61.09,112.62c-0.01,0.26-0.2,0.38-0.46,0.36c-0.14-0.26-0.14-0.51,0.03-0.76C60.93,112.22,61.1,112.36,61.09,112.62z"/>
	<path d="M105.3,88.67c-0.21-0.22-0.22-0.45-0.06-0.69C105.55,88.19,105.63,88.41,105.3,88.67z"/>
	<path d="M60.53,63.36c-0.16-0.24-0.2-0.48-0.06-0.74C60.79,62.85,60.91,63.09,60.53,63.36z"/>
	<path d="M60.68,111.61c-0.15-0.26-0.15-0.52,0.02-0.77C61.31,111.11,61.29,111.37,60.68,111.61z"/>
	<path d="M160.34,195.51c-0.16-0.26-0.13-0.5,0.09-0.71C160.76,195.09,160.68,195.32,160.34,195.51z"/>
	<path d="M59.16,53.65c-0.17-0.23-0.22-0.48-0.09-0.74C59.38,53.12,59.55,53.36,59.16,53.65z"/>
	<path d="M155.14,144.88c-0.47-0.05-0.64-0.32-0.59-0.77C154.94,144.22,155.16,144.46,155.14,144.88z"/>
	<path d="M64.31,106.71c-0.35-0.26-0.29-0.49,0.06-0.69C64.54,106.26,64.52,106.49,64.31,106.71z"/>
	<path d="M156.22,146.26c-0.51-0.02-0.68-0.32-0.61-0.79C156,145.6,156.22,145.85,156.22,146.26z"/>
	<path d="M159.02,170.53c-0.29-0.26-0.29-0.49,0.05-0.7C159.24,170.07,159.21,170.3,159.02,170.53z"/>
	<path d="M110.87,48.05c-0.22,0.37-0.52,0.48-0.91,0.27C110.19,47.97,110.52,47.99,110.87,48.05z"/>
	<path d="M65.06,48.02c-0.18,0.35-0.4,0.47-0.7,0.12C64.56,47.91,64.79,47.85,65.06,48.02z"/>
	<path d="M166.97,167.75c-0.36-0.24-0.33-0.46,0.02-0.68C167.18,167.29,167.18,167.52,166.97,167.75z"/>
	<path d="M149.31,47.4c-0.01,0.52-0.29,0.7-0.77,0.65C148.65,47.66,148.89,47.43,149.31,47.4z"/>
	<path d="M105.6,47.84c-0.35,0.4-0.56,0.17-0.73-0.18C105.16,47.53,105.39,47.65,105.6,47.84z"/>
	<path d="M153.9,203.52c-0.32-0.2-0.52-0.43-0.1-0.74C153.99,203.01,154.05,203.25,153.9,203.52z"/>
	<path d="M68.9,47.24c-0.22,0.46-0.54,0.5-0.95,0.26C68.24,47.34,68.52,47.11,68.9,47.24z"/>
	<path d="M103.05,47.2c-0.4,0.28-0.71,0.18-0.95-0.2C102.46,46.86,102.77,46.95,103.05,47.2z"/>
	<path d="M101.44,46.79c-0.34,0.41-0.55,0.22-0.74-0.15C100.99,46.51,101.23,46.61,101.44,46.79z"/>
	<path d="M99.02,46.39c-0.27,0.33-0.5,0.26-0.7-0.08C98.58,46.16,98.81,46.19,99.02,46.39z"/>
	<path d="M155.31,70.66c-0.62-1.85-0.54-3.71-0.06-5.57C155.49,66.95,155.59,68.8,155.31,70.66z"/>
	<path d="M155.25,60.94c-0.4-1.31-0.7-2.61,0.18-3.86C155.6,58.38,155.51,59.66,155.25,60.94z"/>
	<path d="M156.55,52.25c-0.09,0.62-0.14,1.27-0.62,1.75C155.53,53.2,155.85,52.66,156.55,52.25z"/>
	<path d="M155.61,55.4c-0.46-0.36-0.33-0.59,0.17-0.74C155.92,54.95,155.9,55.2,155.61,55.4z"/>
	<path d="M166.93,51.93c-0.3-0.09-0.42-0.31-0.42-0.61C166.97,51.31,167.37,51.33,166.93,51.93z"/>
	<path d="M76.49,47.42c0.02-0.04,0.04-0.08,0.06-0.11C76.53,47.34,76.5,47.37,76.49,47.42C76.48,47.41,76.49,47.42,76.49,47.42z"/>
	<polygon points="169.19,59.36 169.29,59.33 169.27,59.42 	"/>
</g>
</svg>
