<?xml version="1.0" encoding="utf-8"?>
<!-- Generator: Adobe Illustrator 28.1.0, SVG Export Plug-In . SVG Version: 6.00 Build 0)  -->
<svg version="1.1" id="Layer_1" xmlns="http://www.w3.org/2000/svg" xmlns:xlink="http://www.w3.org/1999/xlink" x="0px" y="0px"
	 viewBox="0 0 250 250" style="enable-background:new 0 0 250 250;" xml:space="preserve">
<style type="text/css">
	.st0{fill:#FFFFFF;}
	.st1{fill:#282828;}
</style>
<path class="st0" d="M0,250V88.09C0,39.44,39.44,0,88.09,0H250v161.91c0,48.65-39.44,88.09-88.09,88.09H0z"/>
<g>
	<path class="st1" d="M91.84,87.87c1.45-0.82,3.07-0.11,4.57-0.5c0.79,0.64,1.82,0.52,2.71,0.81c0.63,0.21,1.43,0.86,1.97,0.13
		c0.51-0.69-0.79-0.73-0.8-1.36c0-0.18-0.05-0.35-0.07-0.53c0,0-0.02,0.01-0.02,0.01c0.31,0.03,0.58-0.06,0.77-0.32
		c0,0-0.01,0-0.01,0c0.3,0,0.55-0.09,0.72-0.35c0.21-0.13,0.42-0.26,0.64-0.39c0.15,0.02,0.3,0.03,0.44,0.05
		c0.02,0.1,0.05,0.2,0.07,0.31c0.05-0.03,0.1-0.06,0.15-0.09c-0.07-0.08-0.14-0.15-0.21-0.23c0-0.11,0-0.22,0-0.33l0.02-0.01
		c0.23,0,0.46-0.01,0.69-0.01c0.92,0.53,1.46,0.31,2.36-0.43c1.22-1,1.14-2.44,1.94-3.51c0.07-0.08,0.14-0.15,0.21-0.23
		c-0.05-0.03-0.1-0.06-0.15-0.09c-0.02,0.1-0.05,0.21-0.07,0.31c-0.24-0.13-0.49-0.26-0.73-0.4c2.66-6.23,1.59-10.74-3.59-14.85
		c-0.58-0.46-0.68-0.79-0.5-1.47c0.74-2.73,1.97-5.21,3.58-7.54c0.86-1.24,1.64-1.3,2.94-0.56c12.02,6.81,13.88,23.37,3.63,33.12
		c-5.99,5.7-13.33,7.54-21.37,7.2c-1.24-0.05-2.48-0.25-3.72-0.44c-0.72-0.11-1.13-0.07-1,0.86c1.35,10.01,4.38,19.35,10.84,27.34
		c0.11,0.13,0.29,0.2,0.46,0.31c8.65-13.07,21.13-21.18,35.23-27.36c-0.44-0.78-1.3-1.13-1.95-1.68c-3.61-3.06-6.11-6.8-6.97-11.51
		c-0.15-0.83-0.52-2,0.21-2.51c0.63-0.43,1.54,0.34,2.28,0.69c3.13,1.47,6.29,2.88,9.73,3.43c11.68,1.86,21.83-5.01,24.54-16.67
		c1.81-7.79,0.76-15.2-4.03-21.74c-4.14-5.64-11.76-6.61-16.68-2.4c-3.19,2.73-4.38,7.11-2.89,10.64c1.74,4.13,5.77,6.6,10.11,6.12
		c1.36-0.15,2.73-0.34,4.03-0.74c1.07-0.33,1.55,0,1.89,0.93c1.02,2.76,1.41,5.64,1.72,8.55c0.09,0.83-0.44,1-1.01,1.21
		c-11.88,4.34-27.47-2.08-26.45-18.93c0.56-9.22,7.93-16.5,17.16-17.42c5.06-0.5,9.85,0.04,14.21,2.87c0.71,0.46,0.93,0.1,1.32-0.45
		c2.64-3.71,6.25-5.71,11.15-6.07c-1.27,1.98-2.32,3.79-2.97,5.8c-1.68,5.17-0.95,10.32-0.19,15.53
		c1.65,11.35,0.51,22.23-6.28,31.94c-4.96,7.1-11.74,12.08-19.2,16.23c-7.7,4.29-15.32,8.72-22.26,14.21
		c-9.77,7.74-15.97,17.8-19.31,29.73c-0.16,0.57-0.32,1.14-0.51,1.82c-1.03-0.32-1.64-1.15-2.31-1.84
		c-9.98-10.19-15.8-22.47-18.31-36.42c-0.86-4.77-1.24-9.57-1.1-14.4c0.03-1.01-0.31-1.59-1.1-2.2
		c-10.68-8.22-10.38-23.87-3.96-31.71c0.29-0.1,0.42-0.31,0.46-0.6c0.01-0.11,0.06-0.16,0.17-0.15c0.75,0.56,1.36,0.11,1.97-0.29
		l0,0c0.23,1.16,0.42,2.32,0.08,3.51c-0.06,0.22,0.18,0.53,0.29,0.8c-1.53,3.89-1.83,7.89-1.03,11.99
		c-0.04,0.32,0.01,0.62,0.26,0.86c0.03,0.12,0.06,0.24,0.09,0.36c-0.59,0.02-0.7,0.56-0.99,0.91c-0.59,0.74-1.93,1.55,0.34,1.83
		c0.47,0.06,1.07,0.64,0.84,1.36c-0.51,1.56,0.52,0.98,1.21,0.9c0,0,0,0,0,0c0.09,0.33,0.18,0.67,0.27,1
		c0.14,0.48,0.13,1.24,0.84,1.05c0.98-0.27-0.06-0.77,0-1.18c0.04-0.28-0.03-0.57-0.05-0.86l0.01-0.01c0.11,0,0.22,0.01,0.34,0.01
		c0.12,0.13,0.24,0.26,0.36,0.4c0.2,0.39,0.01,1.18,0.8,0.97c0.3-0.08,0.14-0.48-0.12-0.68c0.11-0.48,0.21-0.96,0.32-1.44
		c0.05-0.02,0.14-0.05,0.14-0.07c0-0.09-0.03-0.17-0.05-0.26c0.03-0.24,0.07-0.49,0.1-0.73c0.08-0.26,0.16-0.52,0.23-0.78
		c-0.06-0.11-0.04-0.2,0.05-0.28c0.11,0,0.22,0,0.33,0c0.3,0.42,0.58,0.91,1.22,0.42c-0.27-0.61-0.8-0.34-1.21-0.42
		c-0.09-0.12-0.19-0.23-0.28-0.35c-0.06-0.41,0.1-0.75,0.31-1.08c0.34-0.33,0.34-0.76,0.29-1.18c-0.04-0.61,0.2-1.15,0.45-1.68
		c0.3-0.29,0.33-0.65,0.3-1.03c-0.01-0.43,0.08-0.83,0.38-1.16c0.32,0.53-0.02,1.59,1.12,1.46c0.49-0.06,0.64-0.47,0.63-0.92
		c-0.02-0.93-0.6-1.2-1.42-1.17c-0.06,0-0.12,0-0.18,0c0.06-0.13,0.13-0.26,0.19-0.39c0.23-0.16,0.58-0.28,0.64-0.49
		c0.09-0.29-0.29-0.22-0.48-0.28c0.27-0.72,0.54-1.44,0.81-2.15c0.06-0.07,0.1-0.16,0.11-0.26c0,0,0.01-0.04,0.01-0.04
		c0.98-0.38,1.52-0.19,1.96,0.92c0.44,1.12,0.41,2.44,1.29,3.39c-0.16,0.83-0.32,1.66-0.48,2.49c-0.25,0.28-0.28,0.61-0.21,0.97
		c-0.07,0.63-0.13,1.26-0.2,1.88c-0.75,0.68-0.93-0.11-1.27-0.79c-0.13,2.18-0.25,4.05-0.34,5.93c-0.04,0.77,0.13,1.43,1,1.67
		c0,0.24,0,0.48,0,0.71c-0.41,0.22-0.79,0.54-1.23,0.65c-0.84,0.22-0.98,0.78-0.84,1.48c0.18,0.94,0.95,0.68,1.56,0.72
		c1.1,0.06,1.4-1.22,2.35-1.43c0.71,0.14,1.42,0.28,2.13,0.42C90.61,87.89,91.17,88.01,91.84,87.87z M102.04,86.49
		c-0.02,0.04-0.04,0.07-0.06,0.11C102,86.56,102.03,86.52,102.04,86.49c0.02-0.03,0.04-0.07,0.06-0.1
		C102.08,86.42,102.06,86.45,102.04,86.49z M82.44,81.92c-1.07,0.99-1.61,1.89-0.65,3.04c0.33,0.4,0.82,0.58,1.28,0.3
		c0.47-0.28,0.22-0.72,0.09-1.11C82.93,83.48,82.73,82.8,82.44,81.92z M75.83,61.12c-0.44,0-0.85,0.08-0.9,0.62
		c-0.04,0.42,0.17,0.68,0.59,0.71c0.5,0.04,0.77-0.26,0.89-0.69C76.56,61.26,76.22,61.16,75.83,61.12z M85.94,74.04
		c-0.47,0.87-0.47,1.5,0.01,2.37C86.42,75.53,86.42,74.9,85.94,74.04z M83.77,77.48c-0.1-0.37-0.25-0.62-0.6-0.52
		c-0.09,0.03-0.22,0.33-0.18,0.37c0.18,0.2,0.41,0.36,0.63,0.54C83.68,77.72,83.74,77.57,83.77,77.48z M83.2,75.07l0.12,0.01
		l-0.05-0.13L83.2,75.07z"/>
	<path class="st1" d="M208.46,13.78c-2.56,1.41-5.08,2.59-7.29,4.27c-6.28,4.78-9.59,11.36-11.47,18.82
		c-1.97,7.81-2.63,15.83-3.93,23.75c-1.42,8.67-3.54,17.11-7.61,24.96c-5.41,10.45-13.92,17.47-24.41,22.37
		c-6.25,2.92-12.78,5.21-18.87,8.46c-12.21,6.52-22.47,15.15-29.25,27.47c-0.75,1.36-1.34,2.8-2.17,4.12
		c0.89-4.92,2.69-9.5,5.19-13.79c6.11-10.48,15.12-17.78,25.7-23.32c6.96-3.64,14.01-7.09,20.7-11.24
		c10.13-6.28,16.05-15.45,18.92-26.84c2.07-8.23,2.89-16.63,3.92-25.01c0.92-7.45,1.92-14.88,5.73-21.56
		C188.4,17.84,199.41,12.24,208.46,13.78z"/>
	<path class="st1" d="M92.28,165.6c-0.36,0.56-0.18,1.16-0.18,1.73c-0.01,8.52,0.07,17.05-0.04,25.57c-0.05,3.58,0.85,6.68,3.3,9.32
		c0.32,0.35,0.63,0.72,0.9,1.11c0.33,0.48,0.94,0.93,0.69,1.56c-0.28,0.74-1.04,0.35-1.57,0.35c-2.86,0.04-5.72,0.04-8.58,0
		c-0.41,0-1.01,0.31-1.23-0.34c-0.17-0.5,0.11-0.92,0.43-1.29c0.69-0.79,1.56-1.42,2.1-2.36c1.05-1.83,1.28-3.78,1.26-5.88
		c-0.07-10.25-0.03-20.5-0.04-30.75c0-2.63-0.66-3.61-3.06-4.59c-0.52-0.21-1.28-0.21-1.08-1.09c0.2-0.84,0.89-0.29,1.34-0.38
		c6.93-1.23,11.14,2.67,14.8,7.76c5.6,7.78,11.01,15.69,16.93,23.23c1.5,1.91,3.05,3.77,4.97,5.33c0.49-0.52,0.25-1.08,0.24-1.57
		c-0.08-8.7,0.19-17.4-0.17-26.1c-0.13-3.11-1.31-5.6-3.64-7.61c-0.3-0.25-0.71-0.45-0.76-1.05c3.58,0,7.14,0,10.7,0
		c0.07,0.52-0.3,0.7-0.57,0.87c-2.72,1.78-3.23,4.43-3.22,7.46c0.06,12.1,0.02,24.2-0.02,36.3c0,0.58,0.43,1.61-0.41,1.68
		c-1.02,0.08-2.27,0.67-3.15-0.49c-1.12-1.47-2.25-2.93-3.37-4.4c-8.46-11.14-16.72-22.43-25.49-33.33
		C93.1,166.25,92.94,165.66,92.28,165.6z"/>
	<path class="st1" d="M213.34,194.66c-0.29-9.52,0.31-19.05-0.34-28.58c-0.18-2.62-1.44-4.6-3.28-6.31
		c-0.37-0.35-0.75-0.7-1.36-1.26c3.93,0,7.52,0,11.1,0c0.16,0.41-0.15,0.61-0.36,0.74c-3.13,1.92-3.5,4.95-3.49,8.23
		c0.04,11.8,0.02,23.6-0.02,35.4c0,0.67,0.55,1.83-0.47,1.99c-1.12,0.18-2.37,0.5-3.37-0.85c-4.41-5.99-8.92-11.91-13.43-17.82
		c-5.06-6.62-10.16-13.21-15.26-19.8c-0.28-0.37-0.54-0.8-1.2-0.92c0,3.16,0,6.29,0,9.42c0,5.84,0.07,11.68-0.02,17.52
		c-0.06,3.79,0.77,7.19,3.46,9.98c0.37,0.39,0.7,0.81,1.02,1.24c0.29,0.38,0.61,0.81,0.43,1.3c-0.23,0.61-0.82,0.29-1.24,0.3
		c-2.98,0.03-5.96,0.04-8.94,0.01c-0.39,0-1.01,0.33-1.17-0.39c-0.12-0.51,0.09-0.87,0.53-1.2c2.57-1.92,3.28-4.51,3.24-7.67
		c-0.13-10.43-0.05-20.86-0.05-31.29c0-3.03-0.34-3.55-3.1-4.68c-0.53-0.22-1.27-0.29-1.05-1.12c0.22-0.83,0.9-0.28,1.36-0.31
		c1.01-0.06,2.04,0.09,3.04-0.04c3.29-0.41,5.71,1.12,7.92,3.3c3.76,3.71,6.46,8.23,9.57,12.44c4.67,6.32,8.94,12.93,14.24,18.76
		c0.59,0.65,1.12,1.35,1.67,2.02C212.96,194.92,213.15,194.79,213.34,194.66z"/>
	<path class="st1" d="M87.79,72.56c-0.88-0.95-0.85-2.26-1.29-3.39c-0.44-1.11-0.98-1.3-1.96-0.92c2.34-7.14,5.93-13.62,10.44-19.58
		c9.11-12.05,21.36-19.4,35.65-23.7c10.24-3.08,20.71-4.83,31.35-5.76c4.8-0.42,9.61-0.85,14.39-1.45c4.74-0.6,9.1-2.26,13.11-5.88
		c-1.12,3.49-3.08,5.68-5.59,7.45c-4.75,3.35-10.19,4.82-15.82,5.6c-8.15,1.12-16.38,1.29-24.56,2.14
		c-17.99,1.88-33.19,8.93-44.55,23.34c-5.1,6.47-8.83,13.67-10.9,21.69C88.01,72.27,87.88,72.41,87.79,72.56z"/>
	<path class="st1" d="M46.64,205.16c-4.15,0-8.23,0-12.34,0c-0.02-0.06-0.12-0.22-0.09-0.26c1.95-2.1,2.06-4.3,0.69-6.82
		c-1.04-1.92-1.71-4.05-2.56-6.08c-0.43-1.03-1.09-1.52-2.32-1.5c-5.07,0.07-10.13,0.02-15.2,0.02c-0.69,0-1.35-0.1-1.68,0.86
		c-0.86,2.53-1.81,5.03-2.8,7.51c-0.75,1.89-0.69,3.58,0.87,5.06c0.29,0.27,0.49,0.65,0.85,1.16c-3.51,0-6.83,0-10.33,0
		c0.24-0.33,0.36-0.62,0.58-0.76c4-2.52,5.19-6.82,6.79-10.82c3.77-9.44,7.69-18.82,11.24-28.35c0.45-1.2,0.41-2.1-0.15-3.17
		c-0.69-1.33-1.43-2.6-2.76-3.91c2.43,0,4.58-0.06,6.73,0.03c1.07,0.04,1.53,1.05,2.02,1.84c1.32,2.14,2.02,4.56,2.9,6.89
		c3.4,8.95,6.77,17.9,10.13,26.86c1.38,3.66,3.14,7.06,6.14,9.7C45.85,203.86,46.42,204.34,46.64,205.16z M22.39,167.25
		c-2.68,7.07-5.2,13.7-7.78,20.52c5.21,0,10.2-0.01,15.18,0c1.09,0,0.76-0.55,0.51-1.14C27.72,180.32,25.15,174,22.39,167.25z"/>
	<path class="st1" d="M173.33,205.19c-4.07,0-8.1,0-12.13,0c-0.02-0.12-0.1-0.28-0.06-0.33c2.07-2.2,1.83-4.52,0.57-7.03
		c-0.96-1.91-1.67-3.94-2.54-5.89c-0.44-1-1.15-1.47-2.37-1.45c-5,0.08-10.01,0.06-15.01,0.01c-1.04-0.01-1.58,0.25-1.93,1.3
		c-0.79,2.36-1.72,4.68-2.63,7c-0.77,1.94-0.73,3.7,0.92,5.21c0.29,0.26,0.47,0.64,0.82,1.13c-3.52,0-6.82,0-10.28,0
		c0.36-0.87,1.05-1.42,1.74-1.9c1.74-1.21,2.74-2.9,3.53-4.81c4.35-10.61,8.55-21.28,12.81-31.92c1.15-2.86,0.35-4.87-1.19-7.01
		c-0.3-0.42-0.69-0.78-1.28-1.43c2.44,0,4.6-0.12,6.75,0.04c1.24,0.09,1.74,1.35,2.27,2.33c1.32,2.47,2.14,5.15,3.13,7.76
		c3.33,8.77,6.63,17.56,9.96,26.33c1.26,3.31,2.9,6.38,5.69,8.72C172.66,203.74,173.27,204.27,173.33,205.19z M157.66,187.77
		c-2.81-6.83-5.53-13.47-8.42-20.5c-0.6,1.6-1.02,2.71-1.44,3.82c-1.93,5.05-3.87,10.09-5.76,15.15c-0.19,0.52-1.17,1.53,0.52,1.53
		C147.5,187.77,152.44,187.77,157.66,187.77z"/>
	<path class="st1" d="M47.48,158.57c11.45,0,22.22,0.01,33-0.02c0.91,0,1.44,0.26,1.77,1.11c0.57,1.5,1.21,2.97,1.77,4.47
		c0.18,0.48,0.44,1.13-0.06,1.49c-0.46,0.33-1-0.03-1.48-0.3c-3.27-1.86-6.66-3.4-10.36-4.21c-3.93-0.86-7.89-1.16-11.89-0.86
		c-3.15,0.23-3.9,1.15-3.9,4.26c0,4.65,0.05,9.3-0.03,13.95c-0.02,1.3,0.29,1.81,1.66,1.77c3.57-0.09,7.15-0.05,10.72-0.09
		c2.84-0.03,5.1-1.44,7.28-3.06c0.56-0.42,1.15-1.07,1.89-0.75c0.84,0.37,0.38,1.26,0.4,1.91c0.06,2.32-0.02,4.65,0.03,6.97
		c0.03,1.43-0.58,1.52-1.63,0.92c-0.26-0.15-0.53-0.3-0.73-0.51c-2.43-2.55-5.52-3.01-8.83-2.92c-3.16,0.08-6.32,0.05-9.47-0.01
		c-1-0.02-1.32,0.26-1.31,1.29c0.05,4.95,0.02,9.89,0.02,14.84c0,2.12,0.49,4.01,2.44,5.24c0.29,0.19,0.68,0.43,0.59,0.82
		c-0.12,0.53-0.64,0.43-1.04,0.43c-3.22,0.01-6.44,0.01-9.65,0.01c-0.35,0-0.75,0.03-0.9-0.39c-0.17-0.45,0.2-0.66,0.49-0.83
		c1.88-1.08,2.05-2.78,2.03-4.75c-0.07-11.68-0.1-23.36,0.02-35.04C50.31,162,49.55,160.3,47.48,158.57z"/>
	<path class="st1" d="M160.08,217.14c-1.69,3.66-3.36,7.32-5.07,10.98c-0.23,0.5-0.26,1.36-0.96,1.31c-0.55-0.04-0.92-0.7-1.24-1.21
		c-1.39-2.24-2.1-4.78-3.16-7.16c-0.55-1.24-0.98-2.53-1.84-3.64c-2.02,3.79-2.44,11.28-0.7,13.89c-1.57,0.2-3.06,0.19-4.49,0.04
		c3.01-5.24,3.79-10.82,3.55-16.71c3.19-0.25,3.19-0.24,4.62,3c1.2,2.72,2.4,5.43,3.75,8.47c1.05-2.18,1.99-4.12,2.91-6.06
		c0.43-0.91,0.9-1.82,1.22-2.77c0.73-2.22,2.01-3.41,4.22-2.63c-0.16,5.72,0.85,11.23,2.96,16.72c-0.45,0.25-1.15,0.05-1.81,0.07
		c-1.88,0.04-1.69,0-1.8-1.56c-0.18-2.55-0.61-5.07-0.97-7.6c-0.24-1.7-0.54-3.39-0.82-5.09
		C160.32,217.15,160.2,217.14,160.08,217.14z"/>
	<path class="st1" d="M99.77,100.45c3.55,0.01,6.41,2.8,6.42,6.25c0,3.44-2.91,6.26-6.45,6.25c-3.43-0.01-6.26-2.8-6.27-6.19
		C93.46,103.19,96.2,100.44,99.77,100.45z"/>
	<path class="st1" d="M121.32,50.77c-3.57-0.07-6.44-2.94-6.34-6.34c0.1-3.4,3.16-6.28,6.57-6.17c3.46,0.11,6.22,2.91,6.2,6.31
		C127.74,48.06,124.86,50.83,121.32,50.77z"/>
	<path class="st1" d="M98.17,81.53c-3.57,0.01-6.3-2.63-6.33-6.1c-0.03-3.52,2.76-6.26,6.39-6.3c3.43-0.03,6.3,2.76,6.32,6.16
		C104.56,78.88,101.87,81.52,98.17,81.53z"/>
	<path class="st1" d="M56.3,214.47c3.7,0.33,7.04-0.3,10.34,0.42c1.35,0.29,2.63,0.7,3.67,1.68c2.44,2.29,1.62,5.42-1.81,6.87
		c-2.27,0.96-2.37,1.16-1,3.25c1.34,2.04,2.86,3.95,4.58,5.7c0.27,0.28,0.75,0.42,0.65,1.05c-0.93,0.1-1.72-0.37-2.42-0.86
		c-2.68-1.85-4.96-4.13-6.23-7.17c-0.69-1.67-2.02-0.93-3.03-0.97c-0.96-0.05-0.58,1.04-0.54,1.58c0.15,1.72-0.61,3.57,0.72,5.25
		c-1.5,0.3-2.94,0.14-4.45,0.1C58.31,228.88,58.13,216.21,56.3,214.47z M62.81,223.43c1.26,0.07,2.49-0.06,3.63-0.68
		c1.49-0.83,2.26-2.09,2.16-3.8c-0.11-1.7-1.15-2.64-2.74-3.11c-1.22-0.36-2.47-0.32-3.71-0.39c-1.17-0.06-1.76,0.33-1.67,1.63
		c0.09,1.36,0.01,2.74,0.02,4.11C60.52,223.67,60.16,223.43,62.81,223.43z"/>
	<path class="st1" d="M193.43,14.72c1.77-2.98,4.82-3.83,7.84-4.71c0.34-0.1,0.7-0.16,1.05-0.2c1.21-0.14,2.04-0.29,1.81-2.04
		c-0.24-1.81,1.28-2.84,2.84-3.47c1.5-0.61,3.09-0.83,4.72-0.75c3.43,0.16,6.85,0.33,10.56,0.21c-1.54,1.89-3.3,2.56-5.34,2.58
		c-1.96,0.02-3.93-0.01-5.89-0.03c-0.79-0.01-1.56,0.08-2.23,0.52c-0.57,0.38-0.98,0.91-0.85,1.64c0.16,0.93,0.93,0.51,1.44,0.55
		c1.66,0.11,3.32,0.16,5.04,0.41c-1.96,0.97-3.51,2.65-6.06,2.55C203.22,11.77,198.18,12.34,193.43,14.72z"/>
	<path class="st1" d="M193.23,228.69c-0.48,1.64-0.98,2.89-3.12,2.78c-3.86-0.2-7.75-0.07-11.62-0.09c-0.1,0-0.2-0.1-0.46-0.24
		c1.14-0.56,1.07-1.56,1.08-2.55c0.06-3.63,0.14-7.27,0.19-10.9c0.02-1.12,0.11-2.28-1.43-3.14c4.53,0,8.58,0.04,12.63-0.02
		c1.76-0.02,1.31,1.47,1.86,2.29c-0.47,0.35-0.85,0.24-1.21-0.02c-2.39-1.75-5.15-1.58-7.89-1.57c-1.19,0-1.62,0.57-1.61,1.63
		c0.03,1.58-0.51,3.96,0.29,4.57c1.25,0.95,3.43,0.41,5.19,0.19c0.95-0.12,1.83-0.73,2.86-1.17c0,1.21,0,2.32,0,3.5
		c-0.12,0.03-0.35,0.16-0.41,0.1c-2.09-2.03-4.72-1.15-7.15-1.33c-0.8-0.06-0.8,0.48-0.8,1.05c0.01,1.79,0.04,3.58,0,5.36
		c-0.02,1.19,0.55,1.52,1.65,1.52C186.73,230.66,190.18,230.8,193.23,228.69z"/>
	<path class="st1" d="M5.65,231.36c-1.76,0-3.16,0-5.04,0c1.16-0.78,1.23-1.67,1.22-2.6c-0.02-3.81-0.07-7.61,0.04-11.42
		c0.03-1.16-0.61-1.8-1.57-2.84c3.95,0.19,7.49-0.33,10.99,0.44c2.66,0.58,4.14,2.36,4.18,4.82c0.03,2.36-1.2,3.76-3.98,4.48
		c-1.97,0.52-4,0.5-6.02,0.48c-0.81-0.01-1.22,0.17-1.14,1.07C4.5,227.65,3.8,229.66,5.65,231.36z M6.78,223.89
		c0.97,0.06,2.1-0.09,3.17-0.45c1.44-0.48,2.51-1.4,2.65-3.02c0.15-1.7-0.26-3.2-1.87-4.11c-1.5-0.85-3.14-1.02-4.82-0.96
		c-1.04,0.04-1.62,0.54-1.58,1.69c0.06,1.54,0.01,3.09,0.01,4.64C4.34,223.94,4.34,223.94,6.78,223.89z"/>
	<path class="st1" d="M204.85,227.04c1.55,0.25,2.12,1.52,3.07,2.26c2.01,1.56,4.76,1.83,6.84,0.56c2.09-1.28,2.18-3.31,0.19-4.72
		c-1.48-1.05-3.28-1.36-4.94-1.97c-1.17-0.43-2.39-0.75-3.41-1.5c-2.39-1.75-2.28-4.72,0.32-6.13c3.07-1.67,6.23-1.17,9.3,0.07
		c1.39,0.56,0.09,1.86,0.84,2.68c-1.1,0.22-1.33-0.56-1.78-0.95c-1.92-1.64-4.03-2.55-6.56-1.69c-0.92,0.31-1.74,0.85-1.89,1.93
		c-0.16,1.18,0.55,1.91,1.48,2.43c1.99,1.11,4.23,1.57,6.35,2.33c2.41,0.86,3.66,2.23,3.71,4.24c0.05,2.02-1.08,3.49-3.52,4.38
		c-3.22,1.18-6.33,0.43-9.39-0.7C204.89,230.05,204.92,229.96,204.85,227.04z"/>
	<path class="st1" d="M43.82,216.82c-0.63,0.35-1.01,0.23-1.36-0.03c-2.33-1.72-5.03-1.57-7.72-1.55c-1.21,0.01-1.79,0.46-1.73,1.68
		c0.01,0.18-0.01,0.36,0,0.54c0.12,1.4-0.58,3.74,0.26,4.04c1.79,0.64,3.97,0.57,5.94-0.08c0.72-0.24,1.4-0.61,2.02-0.88
		c0.39,0.2,0.32,0.45,0.31,0.67c-0.02,0.89,0.29,2.14-0.17,2.58c-0.74,0.71-1.39-0.62-2.18-0.83c-1.88-0.49-3.79-0.12-5.68-0.22
		c-0.5-0.03-0.5,0.4-0.5,0.76c0,1.97,0,3.93,0,5.9c0,0.92,0.48,1.25,1.35,1.25c3.51,0.01,7.05,0.23,10.15-2.15
		c-0.2,2.13-0.97,2.92-2.72,2.92c-4.08,0.01-8.17,0-12.41-0.16c1.31-0.76,1.12-1.93,1.12-3.03c0.02-3.75,0.03-7.51,0.06-11.26
		c0.01-0.85,0.05-1.68-0.8-2.41c4.18,0,8.36-0.07,12.54,0.04C43.65,214.63,43.13,216.16,43.82,216.82z"/>
	<path class="st1" d="M127.26,214.58c1.31,0,2.62,0,4.24,0c-2.06,1.98-1.44,4.37-1.55,6.61c-0.09,1.9,0.13,3.8-0.27,5.7
		c-0.5,2.38-1.95,3.79-4.19,4.37c-2.52,0.66-5.08,0.58-7.59-0.13c-2.6-0.74-3.78-2.28-3.86-5.1c-0.08-2.68-0.03-5.36-0.04-8.04
		c-0.01-1.16,0.31-2.42-0.93-3.33c1.42,0,2.84,0,4.26,0c-1.29,0.93-0.97,2.24-0.97,3.45c0,2.38-0.04,4.77,0.01,7.15
		c0.08,3.83,1.97,5.48,6.13,5.44c3.97-0.05,6.01-1.96,6.02-5.66c0-1.73,0.01-3.46,0-5.19C128.5,218.04,128.9,216.12,127.26,214.58z"
		/>
	<path class="st1" d="M86.6,214.56c4.4,0,8.56,0,12.72,0c1.67,0,1.32,1.51,1.91,2.39c-0.88,0.43-1.43-0.23-2.02-0.48
		c-2.35-1.01-4.78-1.3-7.31-1.23c-1.39,0.04-1.96,0.63-1.81,1.98c0.02,0.18-0.01,0.36,0,0.54c0.15,1.51-0.63,4.05,0.35,4.33
		c2.09,0.61,4.56,0.78,6.76-0.42c0.46-0.25,1.2-1.19,1.52-0.29c0.33,0.93,0.32,2.12-0.08,3.13c-0.11,0.27-0.65,0.03-0.94-0.2
		c-2.12-1.63-4.58-0.76-6.9-0.94c-0.38-0.03-0.71,0.11-0.7,0.59c0.04,1.96,0.07,3.92,0.12,5.88c0.02,0.67,0.73,0.89,1.06,1.5
		c-1.52,0-2.98,0-4.75,0c1.25-0.96,1.15-2.16,1.14-3.37c-0.03-3.33-0.03-6.67,0-10C87.7,216.75,87.73,215.59,86.6,214.56z"/>
	<path class="st1" d="M77.01,59.3c-0.61,0.4-1.21,0.85-1.97,0.29c1.77-2.75,4.31-4.73,6.82-6.73c3.4-2.7,6.95-5.22,10.15-8.16
		c1.44-1.32,2.72-2.8,3.83-4.71c0.36,1.56-0.37,2.57-1.01,3.57c-2.01,3.14-4.83,5.56-7.46,8.13c-3.22,3.15-6.75,6.02-8.96,10.08
		c-0.34,0.62-0.7,1.23-1.05,1.84c-0.1-0.27-0.35-0.58-0.29-0.8C77.43,61.62,77.24,60.47,77.01,59.3c0.07-0.07,0.14-0.15,0.21-0.23
		c-0.05-0.03-0.1-0.06-0.15-0.08C77.05,59.1,77.03,59.2,77.01,59.3z"/>
	<path class="st1" d="M86.29,84.7c-0.87-0.24-1.04-0.9-1-1.67c0.1-1.87,0.22-3.75,0.34-5.93c0.34,0.68,0.53,1.48,1.27,0.79
		C86.7,80.17,86.49,82.43,86.29,84.7z"/>
	<path class="st1" d="M78.08,81.84c-0.69,0.09-1.71,0.67-1.21-0.9c0.24-0.73-0.36-1.3-0.84-1.36c-2.27-0.28-0.93-1.1-0.34-1.83
		c0.29-0.35,0.4-0.89,0.99-0.91c0.36,1.21,1.33,2.18,1.43,3.5C78.1,80.83,78.09,81.34,78.08,81.84z"/>
	<path class="st1" d="M107.03,80.72c0.24,0.13,0.49,0.26,0.73,0.4l0.01,0.01c-0.8,1.06-0.72,2.51-1.94,3.51
		c-0.9,0.74-1.44,0.95-2.36,0.43c0.08-0.22,0.17-0.43,0.25-0.65C104.99,83.32,106.05,82.05,107.03,80.72z"/>
	<path class="st1" d="M88.12,86.83c-0.95,0.21-1.24,1.49-2.35,1.43c-0.61-0.03-1.38,0.22-1.56-0.72c-0.14-0.71,0-1.26,0.84-1.48
		c0.44-0.11,0.82-0.43,1.23-0.65C86.28,86.68,87.56,86.29,88.12,86.83z"/>
	<path class="st1" d="M100.21,86.42c0.02,0.18,0.07,0.35,0.07,0.53c0.01,0.63,1.31,0.67,0.8,1.36c-0.54,0.73-1.34,0.07-1.97-0.13
		c-0.9-0.29-1.92-0.17-2.71-0.81C97.68,87.06,98.95,86.74,100.21,86.42z"/>
	<path class="st1" d="M83.25,71.85c0.06,0,0.12,0,0.18,0c0.82-0.03,1.4,0.23,1.42,1.17c0.01,0.46-0.13,0.87-0.63,0.92
		c-1.14,0.13-0.8-0.93-1.12-1.46C83.15,72.27,83.2,72.06,83.25,71.85z"/>
	<path class="st1" d="M78.08,81.84c0.01-0.5,0.02-1,0.03-1.5c0.6,0.14,0.81,0.65,1.05,1.12c0,0.13,0,0.25-0.01,0.38
		c0,0-0.01,0.01-0.01,0.01C78.79,81.84,78.44,81.84,78.08,81.84L78.08,81.84z"/>
	<path class="st1" d="M91.84,87.87c-0.66,0.14-1.23,0.02-1.59-0.61C90.84,87.29,91.57,87,91.84,87.87z"/>
	<path class="st1" d="M80.54,82.53c0.26,0.2,0.42,0.6,0.12,0.68c-0.8,0.21-0.6-0.58-0.8-0.97C80.08,82.34,80.31,82.43,80.54,82.53z"
		/>
	<path class="st1" d="M83.61,70.7c0.19,0.06,0.57-0.01,0.48,0.28c-0.06,0.21-0.42,0.33-0.64,0.49C83.5,71.21,83.55,70.95,83.61,70.7
		z"/>
	<path class="st1" d="M81.97,76.36c0.05,0.43,0.05,0.85-0.29,1.18C81.64,77.11,81.63,76.69,81.97,76.36z"/>
	<path class="st1" d="M82.73,73.64c0.02,0.38,0,0.75-0.3,1.03C82.35,74.28,82.45,73.94,82.73,73.64z"/>
	<path class="st1" d="M101.67,85.77c-0.17,0.26-0.42,0.35-0.72,0.35C101.19,86,101.43,85.88,101.67,85.77z"/>
	<path class="st1" d="M81.27,79.26c-0.08,0.26-0.16,0.52-0.23,0.78C81.11,79.78,81.19,79.52,81.27,79.26z"/>
	<path class="st1" d="M103.48,85.06c-0.23,0-0.46,0.01-0.69,0.01c0.23-0.15,0.46-0.3,0.68-0.46
		C103.47,84.76,103.47,84.91,103.48,85.06z"/>
	<path class="st1" d="M76.6,76.47c-0.25-0.24-0.29-0.54-0.26-0.86C76.59,75.84,76.64,76.14,76.6,76.47z"/>
	<path class="st1" d="M87.11,76.02c-0.06-0.35-0.03-0.68,0.21-0.97C87.36,75.4,87.37,75.74,87.11,76.02z"/>
	<path class="st1" d="M74.86,59.74c-0.04,0.29-0.17,0.5-0.46,0.6C74.48,60.09,74.56,59.83,74.86,59.74z"/>
	<path class="st1" d="M100.96,86.11c-0.19,0.26-0.46,0.35-0.77,0.32C100.38,86.16,100.65,86.08,100.96,86.11z"/>
	<path class="st1" d="M79.15,81.83c0-0.13,0-0.25,0.01-0.38c0.11,0.13,0.22,0.26,0.33,0.39C79.38,81.84,79.27,81.84,79.15,81.83z"/>
	<path class="st1" d="M102.75,85.42c-0.15-0.02-0.3-0.03-0.44-0.05c0.15-0.1,0.31-0.2,0.46-0.29c-0.01,0.11-0.01,0.22,0,0.33
		L102.75,85.42z"/>
	<path class="st1" d="M80.94,80.76c0.02,0.09,0.05,0.17,0.05,0.26c0,0.02-0.09,0.04-0.14,0.07C80.88,80.98,80.91,80.87,80.94,80.76z
		"/>
	<path class="st1" d="M103.48,85.06c0-0.15,0-0.3,0-0.44c0.09-0.07,0.17-0.14,0.26-0.21C103.64,84.62,103.56,84.84,103.48,85.06z"/>
	<path class="st1" d="M81.66,78.98c-0.11,0-0.22,0-0.33,0c0.02-0.12,0.03-0.24,0.05-0.35C81.47,78.74,81.56,78.86,81.66,78.98
		L81.66,78.98z"/>
	<path class="st1" d="M84.53,68.28c-0.01,0.1-0.05,0.18-0.11,0.26c0,0-0.03-0.16-0.03-0.16L84.53,68.28z"/>
	<path class="st1" d="M82.44,81.92c0.28,0.89,0.49,1.56,0.72,2.23c0.14,0.4,0.38,0.83-0.09,1.11c-0.46,0.28-0.96,0.09-1.28-0.3
		C80.84,83.81,81.37,82.91,82.44,81.92z"/>
	<path class="st1" d="M75.83,61.12c0.39,0.04,0.73,0.14,0.59,0.64c-0.12,0.43-0.4,0.73-0.89,0.69c-0.43-0.03-0.63-0.29-0.59-0.71
		C74.98,61.2,75.39,61.12,75.83,61.12z"/>
	<path class="st1" d="M78.08,81.84c0.35,0,0.71,0,1.06,0.01c0.02,0.29,0.09,0.58,0.05,0.86c-0.05,0.41,0.99,0.91,0,1.18
		c-0.71,0.19-0.71-0.57-0.84-1.05C78.26,82.5,78.17,82.17,78.08,81.84z"/>
	<path class="st1" d="M85.94,74.04c0.48,0.87,0.48,1.49,0.01,2.37C85.47,75.53,85.48,74.91,85.94,74.04z"/>
	<path class="st1" d="M83.77,77.48c-0.04,0.1-0.1,0.24-0.15,0.39c-0.21-0.17-0.45-0.33-0.63-0.54c-0.04-0.04,0.08-0.35,0.18-0.37
		C83.53,76.86,83.68,77.1,83.77,77.48z"/>
	<path class="st1" d="M81.66,78.97c0.41,0.08,0.95-0.19,1.21,0.42C82.23,79.88,81.96,79.4,81.66,78.97L81.66,78.97z"/>
	<path class="st1" d="M102.77,85.41c0.07,0.08,0.14,0.15,0.21,0.23c-0.05,0.03-0.1,0.06-0.15,0.09c-0.02-0.1-0.05-0.2-0.07-0.31
		C102.75,85.42,102.77,85.41,102.77,85.41z"/>
	<path class="st1" d="M107.76,81.12c0.02-0.1,0.05-0.21,0.07-0.31c0.05,0.03,0.1,0.06,0.15,0.09
		C107.91,80.97,107.84,81.05,107.76,81.12C107.77,81.13,107.76,81.12,107.76,81.12z"/>
	<polygon class="st1" points="83.2,75.07 83.27,74.95 83.32,75.08 	"/>
	<path class="st1" d="M102.05,86.49c-0.02,0.04-0.04,0.07-0.06,0.11C102,86.56,102.02,86.52,102.05,86.49L102.05,86.49z"/>
	<path class="st1" d="M102.04,86.49c0.02-0.03,0.04-0.07,0.06-0.1C102.09,86.42,102.07,86.45,102.04,86.49
		C102.05,86.49,102.04,86.49,102.04,86.49z"/>
	<path class="st1" d="M77.01,59.3c0.02-0.1,0.04-0.21,0.06-0.31c0.05,0.03,0.1,0.06,0.15,0.08C77.15,59.15,77.08,59.23,77.01,59.3
		C77.01,59.3,77.01,59.3,77.01,59.3z"/>
</g>
</svg>
