<?xml version="1.0" encoding="utf-8"?>
<!-- Generator: Adobe Illustrator 28.1.0, SVG Export Plug-In . SVG Version: 6.00 Build 0)  -->
<svg version="1.1" id="Layer_1" xmlns="http://www.w3.org/2000/svg" xmlns:xlink="http://www.w3.org/1999/xlink" x="0px" y="0px"
	 viewBox="0 0 250 250" style="enable-background:new 0 0 250 250;" xml:space="preserve">
<style type="text/css">
	.st0{fill:#FFFFFF;}
	.st1{fill:#282828;}
</style>
<path class="st0" d="M0,250V88.09C0,39.44,39.44,0,88.09,0H250v161.91c0,48.65-39.44,88.09-88.09,88.09H0z"/>
<g>
	<path class="st1" d="M146.29,194.59c-0.14-0.5-0.58-0.39-0.92-0.41c-9.18-0.72-17.98-3.25-26.84-5.5
		c-18.06-4.59-36.32-8.17-54.79-10.67c-15.71-2.13-31.46-3.32-47.31-2.75c-5.02,0.18-10.02,0.63-14.99,1.46
		c-0.46,0.08-0.93,0.09-1.44,0.03c2.67-1.71,5.57-2.93,8.52-4.03c13.18-4.9,26.86-7.01,40.86-7.43c17.3-0.52,34.31,1.64,51.12,5.62
		c10.34,2.45,20.55,5.4,31.1,6.94c14.95,2.19,29.92,2.75,44.96,1.26c15.78-1.57,31.07-5.12,45.76-11.16
		c3.26-1.34,6.44-2.86,9.64-4.39c-2.16,2.28-4.56,4.29-7.04,6.18c-14.77,11.27-31.13,19.1-49.39,22.8
		c-3.63,0.73-7.3,1.26-10.99,1.62c-0.47,0.05-1.09-0.18-1.41,0.43C157.51,194.59,151.9,194.59,146.29,194.59z"/>
	<path class="st1" d="M247.33,66.26c-0.63,0.26-0.47,0.89-0.58,1.36c-1.4,6.12-6.65,10.07-13.02,9.74
		c-5.73-0.29-10.71-4.93-11.46-10.67c-0.81-6.21,2.84-11.9,8.78-13.72c0.57-0.17,1.29-0.04,1.66-0.69c1.06,0,2.12,0,3.18,0
		c0.14,0.39,0.5,0.3,0.79,0.37c5.57,1.2,8.97,4.57,10.17,10.16c0.09,0.42-0.1,0.99,0.48,1.23
		C247.33,64.77,247.33,65.51,247.33,66.26z M224.69,64.87c-0.03,5.63,4.3,10.02,9.88,10.04c5.58,0.01,9.99-4.38,9.99-9.95
		c0.01-5.52-4.31-9.89-9.83-9.95C229.11,54.95,224.72,59.26,224.69,64.87z"/>
	<path class="st1" d="M32.45,67.24c6.78,0,13.56-0.08,20.33,0.03c4.37,0.07,8.63,0.94,12.61,2.82c7.66,3.6,10.4,10.01,10.38,18.09
		c-0.02,11.09-5.43,18.35-15.56,22.32c-1.12,0.44-1.32,0.71-0.63,1.81c6.18,9.85,12.19,19.81,18.71,29.45
		c0.53,0.79,1.15,1.52,1.7,2.3c2.06,2.98,4.72,4.98,8.48,5.16c1.17,0.06,1.57,0.53,1.54,1.76c-0.09,3.27-0.02,3.27-3.36,3.27
		c-7.31,0-14.61-0.02-21.92,0.02c-1.04,0.01-1.57-0.3-2.06-1.26c-6.55-12.69-13.56-25.12-21.46-37.03
		c-0.81-1.21-1.73-1.14-2.82-1.12c-0.63,0.02-0.57,0.45-0.57,0.9c0.02,8.95,0.01,17.89,0.07,26.84c0.02,2.82,1.56,4.67,4.17,5.56
		c1.4,0.48,2.85,0.81,4.3,1.1c0.77,0.16,1,0.47,1.02,1.26c0.1,3.73,0.13,3.73-3.52,3.73c-10.69,0-21.39-0.02-32.08,0.03
		c-1.33,0.01-1.85-0.21-1.79-1.7c0.13-3.07,0.03-3.07,3.09-3.55c0.47-0.07,0.94-0.13,1.41-0.21c4.14-0.7,5.73-2.42,5.73-6.62
		c0.04-20.8,0.03-41.61,0-62.41c-0.01-3.68-1.08-5.11-4.57-6.36c-1.44-0.51-2.94-0.87-4.43-1.22C10.39,72.02,10,71.74,10,70.76
		c-0.01-3.55-0.06-3.55,3.55-3.55c6.3,0,12.6,0,18.9,0C32.45,67.22,32.45,67.23,32.45,67.24z M37.81,90.83c0.01,0,0.01,0,0.02,0
		c0,4.7-0.03,9.41,0.02,14.11c0.01,1.35-0.63,3.12,0.26,3.93c0.88,0.8,2.63,0.25,3.99,0.21c6.59-0.17,11.26-3.62,13.13-9.92
		c1.62-5.47,1.75-11.05,0.46-16.61c-0.96-4.12-3.4-7.08-7.39-8.69c-3.18-1.28-6.52-1.12-9.85-1.13c-0.71,0-0.65,0.45-0.65,0.97
		C37.82,79.41,37.81,85.12,37.81,90.83z"/>
	<path class="st1" d="M116.91,67.22c5.66,0,11.33-0.03,16.99,0.01c18.93,0.11,34.18,12.71,37.78,31.31c1.87,9.64,2,19.31-1.11,28.71
		c-5.04,15.24-15.97,23.68-31.59,26.36c-2.88,0.49-5.78,0.64-8.7,0.64c-10.85-0.01-21.71-0.03-32.56,0.03
		c-1.35,0.01-1.83-0.26-1.78-1.71c0.12-3.06,0.03-3.06,3.15-3.4c0.58-0.06,1.15-0.15,1.73-0.24c3.49-0.57,5.19-2.44,5.4-5.95
		c0.04-0.69,0.03-1.38,0.03-2.06c0-19.8,0-39.59,0-59.39c0-0.48,0-0.95-0.01-1.43c-0.08-4.04-1.53-5.99-5.38-7.23
		c-0.6-0.19-1.22-0.35-1.84-0.48c-3.08-0.62-3.03-0.62-3.06-3.77c-0.01-1.11,0.31-1.42,1.42-1.41
		C103.89,67.24,110.4,67.21,116.91,67.22C116.91,67.22,116.91,67.22,116.91,67.22z M123.72,107.06
		C123.72,107.06,123.73,107.06,123.72,107.06c0.01,10.85-0.02,21.7,0.02,32.54c0.02,5.03,2.49,8.33,6.87,8.84
		c6.37,0.75,11.85-1.1,15.82-6.38c3.23-4.29,4.71-9.32,5.55-14.52c1.54-9.5,1.75-19.05,0.38-28.6c-0.9-6.27-2.54-12.32-6.16-17.66
		c-2.97-4.39-6.92-7.4-12.25-8.31c-2.89-0.49-5.81-0.08-8.72-0.13c-1.32-0.02-1.55,0.47-1.54,1.66
		C123.74,85.37,123.72,96.21,123.72,107.06z"/>
	<path class="st1" d="M206.1,154.24c-10.11,0-20.23-0.03-30.34,0.03c-1.35,0.01-1.84-0.25-1.78-1.71c0.12-3.01,0.03-3.01,2.97-3.5
		c6.35-1.06,7.36-2.27,7.36-8.79c0-19.59,0-39.18,0-58.77c0-5.74-1.25-7.36-6.79-8.83c-0.15-0.04-0.31-0.07-0.46-0.11
		c-3.08-0.73-3.01-0.73-3.08-3.9c-0.02-1.23,0.36-1.49,1.53-1.48c8.31,0.05,16.63,0.03,24.94,0.03c3.55,0,7.1,0.04,10.64-0.02
		c1.04-0.02,1.34,0.29,1.34,1.33c0,3.3,0.04,3.29-3.13,3.81c-0.94,0.15-1.88,0.34-2.8,0.57c-3.17,0.8-4.4,2.3-4.63,5.58
		c-0.04,0.53-0.04,1.06-0.04,1.59c0,19.22,0.01,38.44,0.01,57.66c0,1.8,0.07,3.6,0.37,5.38c0.5,2.99,2.09,4.72,5.05,5.1
		c5.07,0.67,10.14,0.56,15.18-0.38c2.17-0.41,3.87-1.54,5.14-3.42c3.48-5.12,5.76-10.81,7.97-16.54c0.51-1.33,2.38-2.14,3.64-1.52
		c0.53,0.26,0.36,0.7,0.34,1.1c-0.31,6.87-0.63,13.75-0.95,20.62c-0.07,1.53-0.23,3.07-0.19,4.6c0.03,1.23-0.35,1.6-1.62,1.59
		C226.54,154.22,216.32,154.24,206.1,154.24z"/>
	<path class="st1" d="M236.66,65.87c1.65,1.64,2.51,3.62,3.65,5.47c-2.71,0.66-3,0.53-4.17-1.68c-0.59-1.12-1.08-2.34-2.2-3.05
		c-0.8-0.51-1.59-0.77-1.69,0.69c-0.08,1.05-0.4,2.09-0.41,3.14c-0.01,1.52-1.06,1.09-1.88,1.17c-1.09,0.11-1-0.62-1-1.33
		c0.01-3.55,0.03-7.09-0.02-10.64c-0.01-0.96,0.25-1.32,1.25-1.26c1.64,0.08,3.28,0.02,4.92,0.04c2.62,0.02,4.06,0.97,4.49,2.92
		C240,63.18,239.08,64.66,236.66,65.87z M233.53,64.05c0.6-0.03,1.14,0.02,1.64-0.1c0.87-0.21,1.53-0.79,1.62-1.7
		c0.1-0.94-0.72-1.17-1.42-1.42c-0.96-0.34-1.96-0.29-2.96-0.3c-0.27,0-0.62,0.03-0.63,0.32c-0.06,0.94-0.23,1.94,0.01,2.8
		C232.02,64.46,232.99,63.87,233.53,64.05z"/>
</g>
</svg>
