<?xml version="1.0" encoding="utf-8"?>
<!-- Generator: Adobe Illustrator 28.1.0, SVG Export Plug-In . SVG Version: 6.00 Build 0)  -->
<svg version="1.1" id="Layer_1" xmlns="http://www.w3.org/2000/svg" xmlns:xlink="http://www.w3.org/1999/xlink" x="0px" y="0px"
	 viewBox="0 0 250 250" style="enable-background:new 0 0 250 250;" xml:space="preserve">
<style type="text/css">
	.st0{fill:#FFFFFF;}
	.st1{fill:#262223;}
</style>
<path class="st0" d="M0.97,248.63V88.09C0.97,39.44,40.41,0,89.06,0H249.6v160.54c0,48.65-39.44,88.09-88.09,88.09H0.97z"/>
<g>
	<path class="st0" d="M201.18,92.51c0-0.86-0.17-1.18-1.08-1.13c-1.31,0.09-2.63,0.06-3.94,0c-0.75-0.03-0.94,0.2-0.94,0.94
		c0.03,6.03,0.02,12.06,0.01,18.07c0,1.49,0.02,2.98-0.12,4.46c-0.48,5.12-2.67,9.16-7.62,11.25c-3.04,1.29-6.21,1.33-9.4,0.64
		c-4.06-0.89-6.59-3.4-7.65-7.39c-0.47-1.76-0.54-3.57-0.54-5.38c0-7.2-0.01-14.39,0.02-21.59c0-0.78-0.18-1.06-1-1.01
		c-1.28,0.08-2.55,0.09-3.83,0c-0.92-0.06-1.19,0.18-1.19,1.15c0.04,7.26,0.02,14.53,0.03,21.79c0,1.06,0.03,2.13,0.14,3.19
		c0.61,5.97,3.1,10.82,8.67,13.59c4.06,2.03,8.42,2.35,12.87,1.66c3.55-0.55,6.68-2.02,9.5-4.55c0,3.28,0.05,6.36-0.02,9.43
		c-0.05,2.35-0.55,4.63-1.38,6.84c-2.65,7.09-9.19,10.19-15.42,10.02c-3.49-0.1-6.59-1.54-9.28-3.8c-2.17-1.81-3.85-4.05-5.71-6.16
		c-2.15-2.42-4.41-4.71-7.3-6.25c-4.76-2.56-9.9-2.76-15.11-2.32c-3.19,0.27-6.19,1.19-8.9,2.93c-5.34,3.41-8.07,8.57-9.71,14.47
		c-0.34,1.22-0.32,2.16,0.79,2.94c0.51,0.36,0.9,0.9,1.36,1.35c0.91,0.9,1.83,1.79,2.92,2.85c0.03-3.3,0.63-6.22,1.8-9.02
		c1.69-4.06,4.39-7.16,8.6-8.75c2.65-1,5.42-1,8.18-0.97c4.12,0.05,7.68,1.38,10.64,4.32c2.37,2.35,4.4,5,6.69,7.41
		c6.66,6.99,16.57,8.89,25.26,4.74c7.49-3.57,11.17-9.81,12.29-17.79c0.33-2.33,0.23-4.67,0.23-7
		C201.12,119.81,201.13,106.17,201.18,92.51z M111.48,110.13c-0.01-3.23-0.13-6.47-1-9.59c-1.36-4.84-4.37-8.16-9.34-9.35
		c-5.94-1.42-10.94,0.48-15.16,4.75c-1.01,1.02-1.76,2.23-2.7,3.46c-2.13-5.58-6.22-8.34-11.91-8.62c-5.57-0.27-10,2.16-13.61,6.76
		c0-1.84-0.04-3.29,0.02-4.74c0.03-0.79-0.13-1.14-1.02-1.07c-1.27,0.09-2.55,0.1-3.83,0c-0.99-0.08-1.22,0.26-1.21,1.21
		c0.03,12.61,0.02,25.24,0.02,37.85v1.08c0.25-0.12,0.35-0.14,0.42-0.2c1.76-1.75,3.51-3.51,5.28-5.26
		c0.36-0.35,0.32-0.75,0.32-1.18c0-3.37,0-6.74,0-10.1c0-2.66,0.11-5.31,0.6-7.94c0.99-5.32,3.89-8.97,9.26-10.35
		c5.26-1.35,9.87,1.81,10.52,7.18c0.19,1.62,0.34,3.25,0.35,4.87c0.05,7.26,0.04,14.53,0.06,21.79c0,0.35-0.14,0.75,0.17,1.14
		c1.77-1.77,3.48-3.52,5.22-5.22c0.47-0.46,0.64-0.93,0.63-1.59c-0.03-2.98-0.03-5.95-0.01-8.93c0.02-3.29,0.1-6.6,0.79-9.84
		c1.32-6.14,6.45-10.1,12.3-9.61c3.89,0.33,6.64,2.87,7.25,6.72c0.33,2.07,0.44,4.15,0.44,6.25c0,7.01,0,14.04,0,21.05v1.14
		c0.49-0.04,0.64-0.35,0.86-0.56c1.57-1.54,3.09-3.12,4.67-4.65c0.45-0.43,0.62-0.87,0.61-1.48
		C111.47,120.12,111.49,115.12,111.48,110.13z M158.93,120.22c0-9.18-0.01-18.35,0.01-27.53c0-0.71-0.13-1.01-0.91-0.97
		c-1.42,0.06-2.83,0.05-4.25,0.01c-0.65-0.02-0.85,0.15-0.84,0.82c0.05,1.72,0.02,3.43,0.02,5.31c-7.73-10.02-22.92-8.77-30.43-0.41
		c-7.4,8.25-7.29,21.04,0.33,29.18c7.51,8.02,21.49,8.96,30.09-0.49c0,1.84,0.02,3.46-0.01,5.08c-0.01,0.61,0.18,0.79,0.78,0.77
		c1.38-0.04,2.77-0.06,4.14,0c0.82,0.03,1.09-0.16,1.07-1.04C158.9,127.38,158.93,123.8,158.93,120.22z M138.25,127.36
		c-8.32,0-15.13-6.97-15.12-15.47c0.01-8.51,6.74-15.33,15.09-15.33c8.54,0,15.04,6.7,15.05,15.51
		C153.28,120.73,146.77,127.36,138.25,127.36z M247.04,92.48c0-0.5-0.04-0.77-0.68-0.75c-1.52,0.05-3.05,0.05-4.57,0
		c-0.65-0.02-0.74,0.27-0.73,0.82c0.03,1.69,0.01,3.4,0.01,5.31c-7.92-9.73-21.96-8.69-29.37-1.44c-7.99,7.82-8.82,20.61-1.65,29.11
		c3.48,4.12,7.83,6.71,13.25,7.29c6.93,0.75,12.82-1.44,17.77-6.72c0,1.9,0.02,3.51-0.01,5.12c-0.01,0.61,0.18,0.8,0.78,0.78
		c1.45-0.03,2.91-0.04,4.35,0c0.65,0.02,0.84-0.16,0.84-0.83C247.03,118.28,247.03,105.37,247.04,92.48z M226.26,127.36
		c-8.22-0.02-14.98-7.01-14.98-15.49c0-8.43,6.74-15.29,15.01-15.32c8.55-0.02,15.14,6.69,15.14,15.43
		C241.45,120.75,234.91,127.38,226.26,127.36z M11.08,125.71c7.1-8.57,14.13-17.19,21.37-25.64c1.93-2.25,3.04-4.47,2.57-7.4
		c0-0.03-0.01-0.08,0-0.11c0.12-0.66-0.18-0.83-0.83-0.83c-2.66,0.03-5.32,0.01-7.98,0.01c-6.66,0-13.33,0.01-19.99-0.02
		c-0.83,0-1.12,0.19-1.05,1.05c0.08,1.09,0.09,2.2,0,3.29c-0.06,0.88,0.2,1.12,1.09,1.12c6.81-0.04,13.61-0.02,20.42-0.01
		c0.34,0,0.7-0.11,1.14,0.15c-0.3,0.38-0.58,0.72-0.87,1.05c-7.07,8.41-14.06,16.88-21.26,25.17c-1.94,2.24-3.06,4.43-2.65,7.39
		c0.11,0.79,0.23,1.07,1.08,1.06c7.12-0.03,14.25-0.13,21.38,0.04c2.37,0.05,4.13-0.51,5.58-2.37c0.85-1.08,1.93-1.98,3.11-3.17
		H10.5C10.8,126.09,10.93,125.89,11.08,125.71z M45.97,91.73c0-0.78-0.19-1.06-1.01-1.02c-1.31,0.08-2.63,0.06-3.94,0
		c-0.86-0.04-1.14,0.17-1.14,1.08c0.05,13.01,0.06,26.02,0.1,39.03c0,0.3-0.11,0.63,0.2,1.02c1.63-1.65,3.21-3.31,4.87-4.9
		c0.62-0.6,0.85-1.19,0.84-2.04c-0.04-2.83,0-5.67,0-8.51C45.92,108.17,45.92,99.95,45.97,91.73z M142.79,151.39
		c-1.32-1.33-2.64-2.66-3.95-4c-0.35-0.36-0.54-0.1-0.76,0.13c-1.22,1.22-2.45,2.46-3.68,3.66c-0.38,0.36-0.43,0.61-0.01,1.01
		c1.25,1.19,2.48,2.42,3.68,3.67c0.38,0.4,0.59,0.32,0.92-0.02c1.2-1.24,2.45-2.46,3.66-3.68c0.13-0.13,0.24-0.26,0.38-0.41
		C142.94,151.6,142.88,151.47,142.79,151.39z M154.7,151.38c-1.32-1.33-2.66-2.64-3.97-3.98c-0.35-0.35-0.54-0.12-0.77,0.11
		c-1.24,1.25-2.48,2.51-3.74,3.74c-0.32,0.32-0.34,0.51,0,0.85c1.24,1.2,2.46,2.43,3.67,3.67c0.36,0.38,0.6,0.46,1.02,0.03
		c1.2-1.24,2.45-2.45,3.67-3.67c0.13-0.13,0.24-0.26,0.38-0.41C154.86,151.6,154.8,151.47,154.7,151.38z M47.21,82.67
		c-1.3-1.3-2.62-2.58-3.89-3.9c-0.38-0.39-0.59-0.17-0.86,0.09c-1.22,1.22-2.42,2.47-3.68,3.67c-0.43,0.41-0.33,0.62,0.04,0.98
		c1.22,1.18,2.42,2.38,3.59,3.59c0.39,0.41,0.63,0.39,1.01-0.01c1.2-1.24,2.45-2.46,3.67-3.68c0.13-0.13,0.24-0.26,0.38-0.41
		C47.38,82.88,47.31,82.76,47.21,82.67z"/>
	<path class="st1" d="M195.15,128.22c-2.83,2.54-5.96,4-9.5,4.56c-4.44,0.69-8.81,0.36-12.87-1.66c-5.57-2.78-8.05-7.62-8.67-13.59
		c-0.11-1.05-0.14-2.12-0.14-3.19c-0.01-7.26,0.01-14.53-0.03-21.79c-0.01-0.97,0.27-1.2,1.19-1.15c1.27,0.09,2.55,0.08,3.83,0
		c0.82-0.04,1.01,0.23,1,1.01c-0.03,7.2-0.02,14.39-0.02,21.59c0,1.81,0.06,3.61,0.54,5.38c1.07,3.99,3.58,6.51,7.65,7.39
		c3.19,0.7,6.36,0.64,9.4-0.63c4.94-2.09,7.13-6.12,7.62-11.25c0.14-1.48,0.12-2.97,0.12-4.46c0.01-6.03,0.01-12.06-0.01-18.07
		c0-0.74,0.18-0.98,0.94-0.94c1.31,0.06,2.63,0.08,3.94,0c0.92-0.05,1.09,0.27,1.08,1.13c-0.04,13.64-0.04,27.3-0.08,40.94
		c0,2.34,0.11,4.68-0.23,7c-1.13,7.99-4.82,14.22-12.29,17.79c-8.69,4.15-18.6,2.25-25.26-4.74c-2.3-2.41-4.32-5.06-6.69-7.41
		c-2.96-2.93-6.52-4.27-10.64-4.31c-2.77-0.03-5.53-0.03-8.18,0.97c-4.22,1.59-6.91,4.69-8.6,8.75c-1.17,2.8-1.77,5.72-1.8,9.02
		c-1.08-1.06-2.01-1.95-2.92-2.85c-0.45-0.45-0.85-0.99-1.35-1.34c-1.12-0.78-1.14-1.73-0.79-2.94c1.64-5.91,4.37-11.06,9.71-14.47
		c2.71-1.73,5.71-2.66,8.9-2.93c5.21-0.44,10.35-0.25,15.11,2.32c2.9,1.56,5.16,3.83,7.3,6.25c1.86,2.09,3.54,4.34,5.71,6.16
		c2.69,2.25,5.79,3.7,9.28,3.8c6.22,0.16,12.76-2.94,15.42-10.02c0.83-2.21,1.32-4.49,1.38-6.84
		C195.2,134.57,195.15,131.5,195.15,128.22z"/>
	<path class="st1" d="M51.74,131.88c0-0.45,0-0.77,0-1.08c0-12.62,0.01-25.24-0.02-37.86c0-0.95,0.23-1.29,1.21-1.21
		c1.27,0.1,2.55,0.09,3.83,0c0.89-0.06,1.05,0.29,1.02,1.07c-0.05,1.44-0.02,2.89-0.02,4.74c3.61-4.59,8.04-7.03,13.61-6.76
		c5.68,0.28,9.76,3.05,11.91,8.62c0.94-1.22,1.69-2.45,2.7-3.46c4.22-4.27,9.21-6.16,15.16-4.74c4.98,1.18,7.98,4.5,9.34,9.34
		c0.88,3.13,1,6.36,1,9.59c0.01,5-0.01,10,0.01,14.99c0,0.61-0.16,1.05-0.61,1.48c-1.58,1.52-3.11,3.1-4.67,4.65
		c-0.21,0.21-0.38,0.51-0.86,0.56c0-0.39,0-0.76,0-1.14c0-7.01,0-14.04,0-21.05c0-2.09-0.11-4.18-0.44-6.25
		c-0.61-3.85-3.36-6.39-7.25-6.72c-5.87-0.49-10.98,3.48-12.31,9.61c-0.7,3.24-0.77,6.54-0.79,9.84c-0.02,2.98-0.02,5.95,0.01,8.93
		c0.01,0.65-0.16,1.13-0.63,1.59c-1.75,1.71-3.45,3.45-5.22,5.22c-0.31-0.39-0.17-0.78-0.17-1.14c-0.02-7.26-0.01-14.53-0.06-21.79
		c-0.01-1.63-0.15-3.26-0.35-4.87c-0.65-5.36-5.27-8.53-10.52-7.18c-5.36,1.37-8.27,5.02-9.26,10.35c-0.48,2.63-0.6,5.28-0.59,7.94
		c0,3.37,0,6.74,0,10.1c0,0.42,0.04,0.83-0.32,1.18c-1.77,1.74-3.52,3.5-5.28,5.24C52.09,131.74,51.98,131.76,51.74,131.88z"/>
	<path class="st1" d="M158.93,120.22c0-9.18-0.01-18.35,0.01-27.53c0-0.71-0.13-1.01-0.91-0.97c-1.42,0.06-2.83,0.05-4.25,0.01
		c-0.65-0.02-0.85,0.15-0.84,0.82c0.05,1.72,0.02,3.43,0.02,5.31c-7.73-10.02-22.92-8.77-30.43-0.41
		c-7.4,8.25-7.29,21.04,0.33,29.18c7.51,8.02,21.49,8.96,30.09-0.49c0,1.84,0.02,3.46-0.01,5.08c-0.01,0.61,0.18,0.79,0.78,0.77
		c1.38-0.04,2.77-0.06,4.14,0c0.82,0.03,1.09-0.16,1.07-1.04C158.9,127.38,158.93,123.8,158.93,120.22z M138.25,127.36
		c-8.32,0-15.13-6.97-15.12-15.47c0.01-8.51,6.74-15.33,15.09-15.33c8.54,0,15.04,6.7,15.05,15.51
		C153.28,120.73,146.77,127.36,138.25,127.36z"/>
	<path class="st1" d="M247.04,92.48c0-0.5-0.04-0.77-0.68-0.75c-1.52,0.05-3.05,0.05-4.57,0c-0.65-0.02-0.74,0.27-0.73,0.82
		c0.03,1.69,0.01,3.4,0.01,5.31c-7.92-9.73-21.96-8.69-29.37-1.44c-7.99,7.82-8.82,20.61-1.65,29.11c3.48,4.12,7.83,6.71,13.25,7.29
		c6.93,0.75,12.82-1.44,17.77-6.72c0,1.9,0.02,3.51-0.01,5.12c-0.01,0.61,0.18,0.8,0.78,0.78c1.45-0.03,2.91-0.04,4.35,0
		c0.65,0.02,0.84-0.16,0.84-0.83C247.03,118.28,247.03,105.37,247.04,92.48z M226.26,127.36c-8.22-0.02-14.98-7.01-14.98-15.49
		c0-8.43,6.74-15.29,15.01-15.32c8.55-0.02,15.14,6.69,15.14,15.43C241.45,120.75,234.91,127.38,226.26,127.36z"/>
	<path class="st1" d="M10.5,126.49c7.97,0,15.67,0,23.69,0c-1.18,1.19-2.26,2.09-3.11,3.17c-1.45,1.87-3.21,2.42-5.58,2.37
		c-7.12-0.17-14.25-0.08-21.38-0.04c-0.86,0-0.98-0.27-1.08-1.06c-0.41-2.96,0.71-5.16,2.65-7.39c7.2-8.29,14.19-16.76,21.26-25.17
		c0.29-0.34,0.56-0.69,0.87-1.05c-0.44-0.26-0.79-0.15-1.14-0.15c-6.81-0.01-13.61-0.02-20.42,0.01c-0.89,0-1.16-0.24-1.09-1.12
		c0.08-1.09,0.08-2.2,0-3.29c-0.06-0.86,0.23-1.05,1.05-1.05c6.66,0.03,13.33,0.02,19.99,0.02c2.66,0,5.32,0.02,7.98-0.01
		c0.64-0.01,0.94,0.15,0.83,0.83c-0.01,0.03-0.01,0.08,0,0.11c0.46,2.93-0.64,5.15-2.57,7.4c-7.24,8.45-14.25,17.09-21.35,25.64
		C10.93,125.89,10.8,126.09,10.5,126.49z"/>
	<path class="st1" d="M40.2,131.84c-0.32-0.39-0.2-0.72-0.2-1.02c-0.03-13.01-0.04-26.02-0.1-39.03c0-0.92,0.28-1.14,1.14-1.09
		c1.31,0.08,2.63,0.08,3.94,0c0.82-0.04,1.01,0.23,1.01,1.02c-0.04,8.23-0.04,16.44-0.06,24.67c-0.01,2.83-0.04,5.67-0.01,8.51
		c0.01,0.85-0.21,1.44-0.84,2.04C43.4,128.53,41.82,130.19,40.2,131.84z"/>
	<path class="st1" d="M143.02,151.73c-0.14,0.15-0.25,0.29-0.38,0.42c-1.22,1.22-2.46,2.45-3.67,3.68
		c-0.33,0.34-0.55,0.42-0.92,0.02c-1.2-1.24-2.42-2.48-3.68-3.67c-0.42-0.4-0.36-0.64,0.01-1.01c1.24-1.21,2.46-2.43,3.68-3.66
		c0.23-0.23,0.41-0.49,0.76-0.13c1.31,1.34,2.63,2.66,3.95,4C142.88,151.47,142.94,151.6,143.02,151.73z"/>
	<path class="st1" d="M154.95,151.73c-0.14,0.15-0.25,0.29-0.38,0.41c-1.22,1.22-2.48,2.42-3.67,3.67
		c-0.41,0.43-0.65,0.34-1.02-0.03c-1.2-1.24-2.42-2.47-3.67-3.67c-0.34-0.33-0.32-0.53,0-0.85c1.27-1.23,2.5-2.5,3.74-3.74
		c0.23-0.23,0.42-0.47,0.77-0.11c1.31,1.34,2.65,2.65,3.97,3.97C154.8,151.47,154.86,151.6,154.95,151.73z"/>
	<path class="st1" d="M47.47,83c-0.14,0.15-0.25,0.28-0.38,0.41c-1.22,1.22-2.47,2.43-3.67,3.68c-0.38,0.4-0.62,0.41-1.01,0.01
		c-1.18-1.22-2.38-2.42-3.6-3.59c-0.36-0.35-0.47-0.57-0.04-0.98c1.25-1.2,2.46-2.45,3.68-3.67c0.26-0.26,0.48-0.47,0.86-0.09
		c1.28,1.32,2.6,2.61,3.89,3.9C47.31,82.76,47.38,82.88,47.47,83z"/>
</g>
</svg>
