<?xml version="1.0" encoding="utf-8"?>
<!-- Generator: Adobe Illustrator 28.1.0, SVG Export Plug-In . SVG Version: 6.00 Build 0)  -->
<svg version="1.1" id="Layer_1" xmlns="http://www.w3.org/2000/svg" xmlns:xlink="http://www.w3.org/1999/xlink" x="0px" y="0px"
	 viewBox="0 0 250 250" style="enable-background:new 0 0 250 250;" xml:space="preserve">
<style type="text/css">
	.st0{fill:#FFFFFF;}
	.st1{fill:#282828;}
	.st2{fill:none;stroke:#282828;stroke-miterlimit:10;}
</style>
<path class="st0" d="M0,0h161.91C210.56,0,250,39.44,250,88.09V250H88.09C39.44,250,0,210.56,0,161.91V0z"/>
<g>
	<g>
		<g>
			<g>
				<g>
					<polygon class="st1" points="29.59,92.41 29.59,96.33 5.71,96.33 5.71,129.1 2.61,129.1 2.61,92.41 					"/>
					<rect x="8.22" y="115.14" class="st1" width="21.95" height="3.93"/>
				</g>
				<g>
					<polygon class="st1" points="236.46,125.18 236.46,129.1 209.49,129.1 209.49,128.97 208.9,128.97 208.9,92.27 235.88,92.27 
						235.88,96.19 212.59,96.19 212.59,125.18 					"/>
					<rect x="214.51" y="115" class="st1" width="21.95" height="3.93"/>
				</g>
				<rect x="32.55" y="92.17" class="st1" width="3.57" height="37.04"/>
				<rect x="158.1" y="92.06" class="st1" width="3.88" height="37.17"/>
				<path class="st1" d="M45,91.68h8.72c2.2,0,4.38,0.46,6.36,1.4c3.53,1.69,8.1,5.2,8.1,12.07c0,11.21-11.59,14.15-11.59,14.15
					l9.96,10.29h-5.53l-14.15-14.15h7.4c0,0,9.7,0.81,9.7-10.2c0-3.25-1.22-5.43-2.66-6.87c-1.74-1.74-4.15-2.64-6.62-2.64h-9.35
					v33.86h-3.88V91.68L45,91.68"/>
				<path class="st1" d="M84.64,95.28l-2.63,2.11c-0.75-1.34-2.26-2.21-3.79-2.18c-2.2,0.04-4.31,1.93-4.13,4.31
					c0.13,1.74,1.44,3.19,3.13,3.61c1.05,0.26,2.21,0.29,3.29,0.44c3.73,0.52,7.17,2.79,9.12,6.01c2.48,4.11,2.35,9.53-0.1,13.62
					c-2.01,3.35-4.94,4.8-6.04,5.27c-1.13,0.5-3.45,1.36-6.45,1.14c-2.46-0.18-4.32-1-5.36-1.56c-1.1-0.62-3.28-2.06-4.96-4.76
					c-1.9-3.06-2.07-6.03-2.07-7.3h3.38c0.04,0.99,0.26,3.38,1.92,5.75c1.97,2.82,4.7,3.81,5.59,4.1c0.78,0.22,2.14,0.5,3.8,0.26
					c1.31-0.19,2.32-0.62,2.97-0.97c0.85-0.42,2.7-1.48,4.1-3.64c0.01-0.02,0.03-0.04,0.04-0.06c1.66-2.6,1.81-5.88,0.53-8.68
					c-0.31-0.68-0.72-1.39-1.25-2.09c-0.95-1.25-1.98-2.41-3.46-3.04c-1.65-0.7-3.42-0.63-5.14-0.99c-1.68-0.35-3.31-1.07-4.54-2.28
					c-2.02-2-2.69-5.23-1.66-7.88c1.03-2.65,3.66-4.58,6.5-4.82c2.83-0.23,5.73,1.22,7.28,3.6C84.66,95.26,84.65,95.27,84.64,95.28z
					"/>
				<polygon class="st1" points="115.7,92.29 115.7,95.99 103.53,95.99 103.53,129.23 99.83,129.23 99.83,95.99 87.66,95.99 
					87.66,92.29 				"/>
				<polygon class="st1" points="155.79,92.29 155.79,95.99 143.61,95.99 143.61,129.23 139.91,129.23 139.91,95.99 127.74,95.99 
					127.74,92.29 				"/>
				<polygon class="st1" points="166.99,129.23 170.68,129.23 170.68,105.39 185.14,129.23 199.65,105.39 199.65,129.23 
					203.75,129.23 203.75,91.01 185.37,122.02 166.99,91.01 				"/>
			</g>
			<g>
				<path class="st1" d="M42.78,163.5c-0.55,0.93-1.3,1.68-2.24,2.25c-0.95,0.57-2.08,0.86-3.41,0.86c-2.17,0-3.92-0.73-5.26-2.2
					c-1.34-1.46-2.01-3.38-2.01-5.75c0-2.37,0.68-4.29,2.03-5.75c1.35-1.46,3.11-2.19,5.27-2.19c1.18,0,2.23,0.25,3.14,0.74
					c0.92,0.49,1.68,1.25,2.29,2.26l-1.05,0.57c-0.45-0.78-1.04-1.38-1.78-1.8c-0.74-0.42-1.61-0.63-2.62-0.63
					c-1.78,0-3.24,0.63-4.36,1.88c-1.12,1.26-1.69,2.89-1.69,4.91c0,2.03,0.56,3.68,1.67,4.94c1.11,1.26,2.57,1.88,4.37,1.88
					c1.01,0,1.91-0.22,2.68-0.65s1.41-1.06,1.9-1.88L42.78,163.5z"/>
				<path class="st1" d="M62.87,166.61c-2.18,0-3.92-0.72-5.22-2.16c-1.31-1.44-1.96-3.32-1.96-5.62c0-2.39,0.66-4.34,1.99-5.84
					c1.32-1.5,3.11-2.25,5.36-2.25c2.13,0,3.85,0.71,5.16,2.13c1.31,1.42,1.97,3.28,1.97,5.58c0,2.52-0.66,4.51-1.99,5.97
					C66.85,165.87,65.08,166.61,62.87,166.61z M62.86,165.48c1.86,0,3.34-0.61,4.43-1.83c1.09-1.22,1.64-2.9,1.64-5.04
					c0-2.11-0.53-3.77-1.6-4.97c-1.07-1.2-2.51-1.8-4.34-1.8c-1.78,0-3.23,0.63-4.37,1.89c-1.14,1.26-1.7,2.91-1.7,4.96
					c0,2.06,0.54,3.71,1.62,4.94C59.62,164.87,61.06,165.48,62.86,165.48z"/>
				<path class="st1" d="M83.72,163.86l1.07-0.61c0.44,0.8,0.95,1.37,1.55,1.71c0.6,0.34,1.3,0.51,2.13,0.51
					c1.02,0,1.85-0.27,2.49-0.8c0.64-0.54,0.96-1.3,0.96-2.3c0-0.86-0.26-1.55-0.77-2.07s-1.33-0.95-2.46-1.29
					c-1.42-0.42-2.47-0.97-3.14-1.65c-0.68-0.68-1.01-1.55-1.01-2.6c0-1.22,0.41-2.2,1.22-2.93c0.81-0.73,1.85-1.1,3.09-1.1
					c1.01,0,1.87,0.23,2.58,0.7c0.71,0.46,1.24,1.04,1.61,1.71l-1.06,0.57c-0.27-0.55-0.68-1-1.23-1.34
					c-0.55-0.35-1.18-0.52-1.91-0.52c-0.9,0-1.64,0.25-2.23,0.75s-0.88,1.18-0.88,2.03c0,0.79,0.26,1.43,0.77,1.94
					c0.51,0.51,1.36,0.94,2.53,1.3c1.45,0.44,2.5,1.01,3.14,1.7c0.65,0.69,0.97,1.58,0.97,2.68c0,1.29-0.42,2.34-1.27,3.15
					c-0.85,0.81-1.97,1.21-3.38,1.21c-1.08,0-2.01-0.24-2.81-0.71C84.88,165.43,84.23,164.75,83.72,163.86z"/>
				<path class="st1" d="M121.93,166.34h-1.15v-10.79c0-0.17,0-0.42,0.01-0.74c0-0.32,0.01-0.74,0.02-1.25h-0.04
					c-0.09,0.2-0.16,0.36-0.21,0.48c-0.06,0.12-0.13,0.28-0.22,0.48l-5.42,11.82h-0.46l-5.45-11.75c-0.09-0.19-0.16-0.35-0.21-0.49
					c-0.06-0.14-0.14-0.32-0.25-0.55h-0.05c0.02,0.26,0.03,0.55,0.04,0.85c0,0.3,0,0.61,0,0.93v11.01h-1.17v-15.35h1.24l5.55,12.08
					c0.1,0.21,0.19,0.41,0.27,0.59c0.08,0.19,0.16,0.4,0.24,0.63h0.06c0.1-0.24,0.19-0.45,0.26-0.64s0.17-0.41,0.29-0.65l5.5-12
					h1.17V166.34z"/>
				<path class="st1" d="M144.48,166.34h-7.62v-15.35h7.28v1.11h-6.09v5.91h5.64v1.11h-5.64v6.1h6.44V166.34z"/>
				<path class="st1" d="M167.38,152.1h-4.43v14.24h-1.18V152.1h-4.43v-1.11h10.04V152.1z"/>
				<path class="st1" d="M182.22,166.34h-1.19v-15.35h1.19V166.34z"/>
				<path class="st1" d="M209.22,163.5c-0.55,0.93-1.3,1.68-2.24,2.25c-0.95,0.57-2.08,0.86-3.41,0.86c-2.17,0-3.92-0.73-5.26-2.2
					c-1.34-1.46-2.01-3.38-2.01-5.75c0-2.37,0.68-4.29,2.03-5.75c1.35-1.46,3.11-2.19,5.27-2.19c1.18,0,2.23,0.25,3.14,0.74
					c0.92,0.49,1.68,1.25,2.29,2.26l-1.05,0.57c-0.45-0.78-1.04-1.38-1.78-1.8c-0.74-0.42-1.61-0.63-2.62-0.63
					c-1.78,0-3.24,0.63-4.36,1.88c-1.12,1.26-1.69,2.89-1.69,4.91c0,2.03,0.56,3.68,1.67,4.94c1.11,1.26,2.57,1.88,4.37,1.88
					c1.01,0,1.91-0.22,2.68-0.65c0.77-0.43,1.41-1.06,1.9-1.88L209.22,163.5z"/>
			</g>
			<g>
				<path class="st1" d="M242.94,84.72h-0.96l-1.51-3.16c-0.32-0.66-0.63-1.09-0.94-1.3c-0.31-0.2-0.69-0.31-1.14-0.31h-1.32v4.76
					h-0.84V73.88h2.93c0.95,0,1.71,0.25,2.29,0.74c0.58,0.5,0.87,1.2,0.87,2.11c0,0.73-0.2,1.35-0.61,1.88
					c-0.41,0.53-0.96,0.89-1.67,1.09v0.03c0.21,0.11,0.41,0.28,0.59,0.51c0.18,0.23,0.38,0.56,0.59,0.99L242.94,84.72z
					 M237.06,74.64v4.55h1.84c0.77,0,1.39-0.22,1.86-0.65c0.47-0.43,0.7-1.01,0.7-1.75c0-0.69-0.21-1.22-0.62-1.59
					s-1.01-0.56-1.79-0.56H237.06z"/>
			</g>
		</g>
		<circle class="st2" cx="239.44" cy="78.97" r="9.13"/>
	</g>
</g>
</svg>
