<?xml version="1.0" encoding="utf-8"?>
<!-- Generator: Adobe Illustrator 28.1.0, SVG Export Plug-In . SVG Version: 6.00 Build 0)  -->
<svg version="1.1" id="Layer_1" xmlns="http://www.w3.org/2000/svg" xmlns:xlink="http://www.w3.org/1999/xlink" x="0px" y="0px"
	 viewBox="0 0 250 250" style="enable-background:new 0 0 250 250;" xml:space="preserve">
<style type="text/css">
	.st0{fill:#FFFFFF;}
	.st1{fill:#282828;}
</style>
<path class="st0" d="M0,0h161.91C210.56,0,250,39.44,250,88.09V250H88.09C39.44,250,0,210.56,0,161.91V0z"/>
<g>
	<path class="st1" d="M249.98,143.58c-3.36-1.7-6.74-3.23-10.19-4.61c-6.75-2.69-13.68-4.8-20.8-6.32
		c-3.16-0.68-6.15-1.85-8.99-3.38c-0.15-0.08-0.29-0.16-0.5-0.16c0.14,0.1,0.28,0.2,0.42,0.29c6.73,3.92,13.83,6.99,21.31,9.15
		c0.48,0.14,0.77,0.38,0.97,0.83c1.21,2.71,1.47,5.49,0.74,8.48c-0.55-0.62-1.03-1.17-1.53-1.7c-3.23-3.5-7.13-6.01-11.48-7.87
		c-3.06-1.3-6.11-2.6-8.84-4.56c-3.39-2.44-6.27-5.38-8.78-8.7c-0.05-0.07-0.09-0.14-0.13-0.22c0.54-0.13,0.17-0.27,1.79,0.83
		c0.56,0.38,1.13,0.75,1.79,1.04c-3.06-2.58-5.66-5.53-7.55-9.06c-1.89-3.53-3.25-7.22-3.48-11.44c0.47,0.35,0.52,0.72,0.64,1.04
		c1.36,3.57,3.03,6.98,5.42,9.98c2.87,3.61,6.29,6.55,10.59,8.35c2.28,0.96,4.68,1.32,7.14,1.31c4.23-0.01,8.45,0.06,12.64,0.59
		c1.12,0.14,2.24,0.3,3.37,0.45c0.07-0.27-0.14-0.4-0.23-0.58c-1.84-3.58-4.82-6.13-7.88-8.59c-6.21-5-13.1-8.74-20.66-11.27
		c-0.22-0.07-0.44-0.13-0.69-0.2c2.41-2.39,5.37-3.69,8.64-4.23c4.14-0.69,7.9,0.63,11.48,2.59c3.96,2.16,7.15,5.22,10.06,8.61
		c7.31,8.5,12.22,18.22,14.74,29.14C250.01,143.41,249.99,143.45,249.98,143.58z M209.27,128.86c-0.04,0.04-0.1,0.08-0.02,0.13
		c0.02,0.02,0.07,0,0.1,0c-0.03-0.04-0.07-0.08-0.1-0.12c-0.07-0.03-0.14-0.06-0.21-0.09c0,0.03-0.02,0.08-0.01,0.08
		C209.11,128.89,209.2,129,209.27,128.86z M206.55,127.11c-0.05-0.03-0.1-0.06-0.16-0.09c-0.07-0.06-0.14-0.11-0.21-0.17
		c-0.13-0.09-0.25-0.34-0.4-0.15c-0.12,0.16,0.13,0.22,0.26,0.27c0.08,0.06,0.16,0.12,0.25,0.18c0.05,0.02,0.1,0.05,0.15,0.07
		c0.07,0.06,0.15,0.11,0.22,0.17c0.44,0.28,0.88,0.56,1.32,0.84c0.02-0.04,0.05-0.08,0.07-0.12c-0.43-0.27-0.86-0.54-1.29-0.81
		C206.7,127.24,206.62,127.17,206.55,127.11z M208.32,128.34c-0.02-0.03-0.03-0.08-0.05-0.09c-0.03-0.01-0.07,0.02-0.1,0.03
		c0.02,0.03,0.03,0.08,0.05,0.08C208.25,128.37,208.29,128.35,208.32,128.34z"/>
	<path class="st1" d="M35.12,127.43c0.07-4.68,1.05-9.17,3.8-13.13c3.2-4.61,7.65-7.1,13.2-7.64c3.84-0.37,7.56,0.05,11.03,1.85
		c4.36,2.26,6.73,5.95,7.61,10.7c0.05,0.28,0,0.39-0.31,0.39c-1.63-0.01-3.27-0.01-4.9,0c-0.29,0-0.35-0.12-0.4-0.37
		c-1.06-4.81-5.01-7.4-9.47-7.74c-3.76-0.29-7.18,0.48-10.02,3.11c-2.22,2.04-3.52,4.62-4.19,7.52c-1.04,4.56-0.98,9.09,0.85,13.45
		c1.88,4.49,5.15,7.38,10.09,8.03c2.92,0.39,5.79,0.12,8.34-1.56c2.98-1.96,4.35-4.88,4.81-8.3c0.07-0.51,0.18-0.7,0.73-0.68
		c1.46,0.04,2.92,0.04,4.38,0c0.47-0.01,0.58,0.14,0.56,0.58c-0.25,5.4-3.81,12.78-11.98,14.47c-4.2,0.87-8.36,0.81-12.38-0.83
		c-5.58-2.28-8.94-6.57-10.68-12.23C35.41,132.58,35.15,130.06,35.12,127.43z"/>
	<path class="st1" d="M157.79,127.71c0-6.38,0.01-12.77-0.01-19.15c0-0.58,0.14-0.71,0.72-0.71c7.21,0.02,14.42,0.02,21.63,0
		c0.62,0,0.75,0.18,0.73,0.76c-0.04,1.28-0.04,2.57,0,3.86c0.02,0.57-0.1,0.76-0.72,0.76c-5.27-0.03-10.54,0-15.82-0.03
		c-0.59,0-0.7,0.16-0.7,0.72c0.03,3.51,0.02,7.01,0,10.52c0,0.49,0.12,0.62,0.61,0.62c5.32-0.02,10.63,0,15.95-0.02
		c0.55,0,0.69,0.14,0.68,0.68c-0.04,1.35-0.04,2.7,0,4.05c0.01,0.5-0.13,0.61-0.61,0.61c-5.29-0.02-10.59,0-15.88-0.03
		c-0.6,0-0.75,0.15-0.75,0.75c0.03,3.49,0.03,6.97,0,10.46c0,0.56,0.1,0.72,0.7,0.72c5.27-0.03,10.54-0.01,15.82-0.03
		c0.55,0,0.75,0.1,0.73,0.7c-0.05,1.37-0.03,2.74-0.01,4.12c0.01,0.39-0.05,0.57-0.52,0.57c-7.34-0.02-14.68-0.02-22.02,0
		c-0.54,0-0.52-0.24-0.52-0.63C157.79,140.56,157.79,134.14,157.79,127.71z"/>
	<path class="st1" d="M35.35,146.28c-1.89,0-3.74-0.01-5.59,0.01c-0.38,0-0.41-0.26-0.5-0.48c-1.32-3.26-2.65-6.51-3.95-9.78
		c-0.21-0.54-0.48-0.72-1.07-0.72c-4.34,0.03-8.67,0.02-13.01,0.01c-0.45,0-0.68,0.11-0.84,0.57c-1.19,3.26-2.44,6.5-3.63,9.76
		c-0.19,0.53-0.45,0.66-0.98,0.65c-1.89-0.03-3.78-0.01-5.73-0.01c0.82-2.05,1.61-4.04,2.41-6.03c4.27-10.61,8.54-21.22,12.8-31.84
		c0.19-0.46,0.41-0.68,0.93-0.68c1.2-0.02,2.39-0.07,3.58-0.16c0.44-0.03,0.58,0.13,0.73,0.51c3.11,8.01,6.24,16.01,9.36,24.02
		c1.77,4.53,3.52,9.06,5.28,13.59C35.2,145.87,35.27,146.05,35.35,146.28z M17.52,116.87c-1.66,4.44-3.27,8.73-4.9,13.07
		c3.43,0,6.78,0,10.2,0C21.06,125.6,19.32,121.31,17.52,116.87z"/>
	<path class="st1" d="M155.41,107.84c-1.25,4.46-2.48,8.83-3.71,13.2c-2.44,8.67-4.88,17.34-7.32,26.02
		c-0.11,0.38-0.25,0.55-0.69,0.54c-2.57-0.03-5.14-0.02-7.71,0c-0.39,0-0.51-0.14-0.61-0.48c-3.63-12.92-7.26-25.83-10.91-38.75
		c-0.13-0.46-0.05-0.54,0.41-0.54c1.63,0.02,3.27,0.03,4.9,0c0.45-0.01,0.63,0.11,0.74,0.56c1.78,6.78,3.59,13.56,5.38,20.34
		c1.19,4.49,2.38,8.98,3.58,13.47c0.06,0.21-0.02,0.58,0.39,0.56c0.4-0.02,0.31-0.36,0.37-0.59c3-11.25,5.99-22.49,8.97-33.75
		c0.12-0.46,0.29-0.61,0.77-0.6C151.77,107.86,153.55,107.84,155.41,107.84z"/>
	<path class="st1" d="M113.78,127.14c0,4.44,0.01,8.89-0.01,13.33c0,0.47,0.08,0.63,0.59,0.62c1.94-0.04,3.88,0,5.81-0.02
		c0.43-0.01,0.55,0.12,0.54,0.55c-0.03,1.44-0.02,2.87,0,4.31c0.01,0.39-0.08,0.52-0.5,0.52c-6.19-0.01-12.37-0.01-18.56,0
		c-0.37,0-0.54-0.05-0.53-0.49c0.03-1.46,0.03-2.92,0-4.38c-0.01-0.4,0.11-0.52,0.51-0.51c1.92,0.02,3.83,0,5.75,0.02
		c0.43,0.01,0.53-0.11,0.53-0.54c-0.01-8.95-0.01-17.9,0-26.85c0-0.41-0.11-0.5-0.51-0.49c-1.92,0.02-3.83,0-5.75,0.02
		c-0.43,0.01-0.55-0.11-0.54-0.54c0.03-1.44,0.03-2.87,0-4.31c-0.01-0.41,0.13-0.51,0.52-0.51c6.19,0.01,12.37,0.01,18.56,0
		c0.41,0,0.52,0.11,0.51,0.51c-0.02,1.46-0.02,2.92,0,4.38c0.01,0.38-0.12,0.47-0.48,0.46c-1.94-0.02-3.88,0.02-5.81-0.02
		c-0.57-0.01-0.66,0.17-0.65,0.69C113.79,118.29,113.78,122.72,113.78,127.14z"/>
	<path class="st1" d="M81.84,130.39c0-5.49-0.01-10.98,0.01-16.47c0-0.56-0.1-0.76-0.72-0.76c-3.44,0.04-6.88,0.01-10.33,0.03
		c-0.5,0-0.62-0.14-0.61-0.62c0.03-1.39,0.02-2.79,0-4.18c-0.01-0.39,0.05-0.56,0.52-0.56c9.37,0.02,18.74,0.01,28.11,0
		c0.4,0,0.51,0.09,0.5,0.5c-0.03,1.42-0.03,2.83,0,4.25c0.01,0.49-0.12,0.62-0.61,0.61c-3.42-0.02-6.84,0-10.26-0.03
		c-0.6-0.01-0.79,0.11-0.79,0.76c0.02,10.98,0.01,21.96,0.03,32.94c0,0.61-0.17,0.74-0.74,0.73c-1.48-0.04-2.96-0.04-4.44,0
		c-0.54,0.01-0.68-0.11-0.68-0.67C81.85,141.42,81.84,135.91,81.84,130.39z"/>
	<path class="st1" d="M150.19,89.05c0.02-6.69,4.37-12.71,10.98-14.91c6.46-2.16,12.33-1.05,17.22,3.8
		c7.57,7.51,5.9,20.41-3.31,25.52c-5.48,3.05-11.06,2.63-16.43-0.35c-4.71-2.62-7.55-6.64-8.32-12.04
		c-0.02-0.13-0.04-0.26-0.05-0.39C150.25,90.13,150.22,89.59,150.19,89.05z M154,89.17c0.03,0.75,0.09,1.59,0.27,2.43
		c1.5,6.92,8.77,10.87,14.9,9.94c6.72-1.02,11.26-7.31,9.92-14.34c-1.47-7.77-9.01-12.07-16.5-9.54
		C157.45,79.39,154.02,83.95,154,89.17z"/>
	<path class="st1" d="M138.94,92.54c1.84,1.84,3.6,3.59,5.35,5.35c1.46,1.46,2.92,2.93,4.4,4.38c0.27,0.26,0.27,0.4,0,0.66
		c-0.71,0.67-1.4,1.37-2.08,2.08c-0.24,0.25-0.38,0.23-0.61-0.01c-4.14-4.15-8.28-8.29-12.43-12.44c-0.63-0.63-0.84-1.38-0.52-2.21
		c0.32-0.81,0.96-1.21,1.82-1.25c0.98-0.04,1.96,0.04,2.92-0.21c2.22-0.58,4.15-1.61,5.3-3.69c0.84-1.52,0.79-3.13-0.13-4.6
		c-2.03-3.24-4.99-4.94-8.82-5.1c-1.07-0.04-2.14,0.02-3.2-0.02c-0.49-0.02-0.55,0.16-0.55,0.59c0.01,6.67,0.01,13.33,0.01,20
		c0,2.59-0.01,5.19,0.01,7.78c0,0.42-0.09,0.57-0.53,0.55c-0.89-0.04-1.79-0.04-2.68,0c-0.5,0.03-0.6-0.14-0.6-0.62
		c0.02-8.82,0.01-17.65,0.01-26.47c0-1.7,0-3.4,0-5.1c0-0.3-0.02-0.53,0.42-0.52c2.79,0.06,5.59-0.21,8.36,0.1
		c5.13,0.57,9.08,3.13,11.33,7.83c1.75,3.66,0.53,7.72-2.81,10.43c-0.71,0.58-1.48,1.07-2.3,1.49
		C140.79,91.95,139.94,92.27,138.94,92.54z"/>
	<path class="st1" d="M102.04,88.03c0-5.21,0.01-10.41-0.02-15.62c0-0.62,0.19-0.73,0.76-0.73c3.07,0.03,6.14-0.01,9.21,0.02
		c3.48,0.04,6.2,1.54,8.11,4.44c1.17,1.78,2.14,3.68,2.4,5.85c0.82,6.69-4.11,12.49-11,12.04c-1.78-0.12-3.57-0.04-5.36-0.07
		c-0.48-0.01-0.31,0.32-0.31,0.54c-0.01,2.96-0.01,5.93-0.01,8.89c0,0.99,0,0.99-0.98,0.99c-0.74,0-1.48-0.04-2.22,0.01
		c-0.51,0.03-0.6-0.14-0.6-0.61c0.02-4.86,0.01-9.72,0.01-14.57C102.04,88.81,102.04,88.42,102.04,88.03z M105.83,82.87
		c0,2.24,0.01,4.49-0.01,6.73c0,0.45,0.1,0.58,0.57,0.58c1.87-0.02,3.75-0.06,5.62,0.05c3.44,0.2,6.49-2.4,6.77-6.31
		c0.17-2.3-0.84-4.19-2.06-5.98c-0.98-1.44-2.4-2.32-4.15-2.4c-2.13-0.1-4.27-0.04-6.4-0.07c-0.46-0.01-0.33,0.3-0.33,0.53
		C105.83,78.3,105.83,80.59,105.83,82.87z"/>
	<path class="st1" d="M50.92,74.88c-15.86,0-31.71,0-47.57,0.01c-0.6,0-0.81-0.16-0.74-0.75c0.08-0.6-0.26-1.4,0.14-1.75
		c0.35-0.29,1.12-0.09,1.71-0.09c31.34,0,62.69,0,94.03-0.02c0.69,0,0.91,0.18,0.83,0.85c-0.07,0.56,0.23,1.29-0.11,1.63
		c-0.34,0.35-1.07,0.1-1.63,0.1C82.02,74.88,66.47,74.88,50.92,74.88z"/>
	<path class="st1" d="M197.1,108.23c-0.88-4.7-1.92-9.36-3.21-13.97c-1.53-5.48-4.04-10.52-6.86-15.42
		c-1.39-2.41-2.8-4.81-4.27-7.17c-0.11-0.18-0.22-0.36-0.39-0.65c1.32,0.38,2.45,0.91,3.54,1.52c5.66,3.17,9.13,7.97,10.59,14.25
		c0.25,1.08,0.15,2.21,0.19,3.32c0.21,5.91,0.41,11.82,0.61,17.73c0,0.13-0.02,0.26-0.03,0.39
		C197.23,108.23,197.16,108.23,197.1,108.23z"/>
	<path class="st1" d="M204.11,105.77c0.67-1.81,1.24-3.62,1.52-5.52c0.72-4.82-0.17-9.33-2.55-13.57c-0.25-0.44-0.41-0.28-0.67-0.04
		c-2.05,1.91-3.28,4.24-3.74,7.02c-0.23-0.79-0.19-1.6-0.14-2.41c0.25-3.88,1.41-7.41,4.09-10.33c1.32-1.44,2.82-2.64,4.6-3.48
		c0.41-0.19,0.85-0.35,1.31-0.37c0.55-0.03,0.78,0.21,0.67,0.75c-0.06,0.34-0.18,0.67-0.34,0.98c-1.89,3.73-1.97,7.59-0.9,11.55
		c0.46,1.72,0.89,3.45,1.02,5.24c0.28,3.75-1.18,6.77-3.85,9.29C204.82,105.19,204.46,105.47,204.11,105.77z"/>
	<path class="st1" d="M194.83,114.97c0,0.81-0.05,1.61,0.01,2.42c0.13,1.85-1.15,3.24-2.31,3.66c-1.44,0.53-3.02,0.07-4.14-1.27
		c-1.01-1.21-1.22-2.61-0.81-4.11c0.06-0.21,0.18-0.38,0.34-0.54c3.53-3.55,5.16-7.81,4.85-12.81c-0.01-0.18-0.23-0.5,0.2-0.56
		c0.36-0.04,0.37,0.23,0.42,0.46C194.24,106.43,194.72,110.68,194.83,114.97z"/>
	<path class="st1" d="M82.91,86.25c0.72,0,1.44-0.03,2.16,0.01c0.46,0.03,0.54-0.15,0.53-0.55c-0.03-0.74,0-1.48-0.01-2.22
		c-0.01-0.83-0.12-0.95-0.95-1.11c-0.17-0.03-0.41,0.06-0.4-0.27c0.01-0.32,0.23-0.25,0.41-0.25c1.15,0,2.31-0.01,3.46,0
		c0.17,0,0.42-0.1,0.45,0.22c0.03,0.37-0.25,0.27-0.44,0.3c-0.86,0.15-0.99,0.28-0.99,1.15c-0.01,2.22-0.01,4.44,0,6.67
		c0,0.96,0.08,1.03,1.05,1.22c0.18,0.03,0.42,0,0.39,0.31c-0.02,0.28-0.24,0.2-0.39,0.2c-1.22,0.01-2.44,0.01-3.66,0
		c-0.15,0-0.36,0.09-0.38-0.21c-0.02-0.31,0.2-0.28,0.39-0.31c1.02-0.17,1.07-0.23,1.08-1.25c0-0.91-0.02-1.83,0.01-2.74
		c0.01-0.38-0.12-0.47-0.48-0.46c-1.48,0.02-2.96,0.02-4.44,0c-0.37-0.01-0.48,0.1-0.47,0.47c0.03,1,0.03,2,0.03,3.01
		c0,0.6,0.27,0.93,0.89,0.98c0.2,0.02,0.55-0.1,0.52,0.3c-0.03,0.41-0.37,0.21-0.55,0.21c-1.11,0.02-2.22,0.02-3.33,0
		c-0.16,0-0.41,0.13-0.43-0.22c-0.01-0.31,0.22-0.27,0.4-0.3c0.85-0.15,0.97-0.27,0.97-1.15c0.01-2.24,0.01-4.49,0-6.73
		c0-0.86-0.13-0.99-1-1.14c-0.17-0.03-0.41,0.05-0.4-0.28c0.01-0.33,0.24-0.25,0.42-0.25c1.15,0,2.31,0,3.46,0
		c0.2,0,0.4-0.03,0.4,0.28c0,0.28-0.21,0.22-0.37,0.25c-0.87,0.17-0.96,0.25-0.98,1.15c-0.02,0.76,0,1.53-0.03,2.29
		c-0.02,0.4,0.15,0.45,0.49,0.44C81.43,86.23,82.17,86.25,82.91,86.25z"/>
	<path class="st1" d="M32.68,86.95c-0.74,0-1.48,0.01-2.22-0.01c-0.31-0.01-0.47,0.04-0.46,0.41c0.03,0.98,0,1.96,0.02,2.94
		c0.02,0.82,0.17,0.96,0.98,1.1c0.19,0.03,0.48-0.05,0.45,0.31c-0.03,0.38-0.33,0.21-0.5,0.21c-1.13,0.02-2.26,0.01-3.4,0
		c-0.16,0-0.42,0.13-0.43-0.22c-0.01-0.31,0.22-0.29,0.4-0.29c0.74,0,0.98-0.43,0.97-1.09c0-2.26,0.01-4.53-0.01-6.79
		c-0.01-0.86-0.15-0.99-1-1.14c-0.17-0.03-0.43,0.07-0.43-0.25c0-0.36,0.27-0.27,0.47-0.27c1.13-0.01,2.26-0.01,3.4,0
		c0.18,0,0.42-0.09,0.45,0.22c0.04,0.37-0.25,0.29-0.44,0.3c-0.63,0.06-0.93,0.39-0.93,1.02c0,0.83,0,1.65-0.01,2.48
		c-0.01,0.27,0.06,0.38,0.36,0.38c1.55-0.01,3.09-0.02,4.64,0c0.33,0,0.4-0.12,0.39-0.42c-0.02-0.78,0-1.57-0.01-2.35
		c-0.01-0.84-0.12-0.95-0.96-1.11c-0.17-0.03-0.41,0.05-0.4-0.28c0.01-0.33,0.24-0.25,0.42-0.25c1.15,0,2.31-0.01,3.46,0
		c0.17,0,0.42-0.1,0.44,0.22c0.03,0.37-0.26,0.27-0.44,0.3c-0.86,0.14-0.99,0.28-0.99,1.14c-0.01,2.26-0.01,4.53,0,6.79
		c0,0.83,0.13,0.95,0.96,1.09c0.19,0.03,0.49-0.05,0.47,0.3c-0.02,0.37-0.32,0.21-0.5,0.22c-1.15,0.01-2.31,0.01-3.46,0
		c-0.18,0-0.47,0.15-0.48-0.23c-0.01-0.32,0.24-0.25,0.42-0.28c0.97-0.16,1.06-0.25,1.06-1.2c0.01-0.91-0.02-1.83,0.01-2.74
		c0.01-0.38-0.07-0.54-0.5-0.52C34.16,86.98,33.42,86.95,32.68,86.95z"/>
	<path class="st1" d="M55.47,102.29c0.69-1.44,1.33-2.76,1.97-4.08c0.08-0.18,0.17-0.35,0.25-0.53c0.81-1.65,0.81-1.65,2.67-1.5
		c0.14,0.01,0.32-0.06,0.35,0.18c0.03,0.29-0.19,0.24-0.35,0.25c-0.63,0.04-0.86,0.36-0.83,0.98c0.07,1.78,0.11,3.56,0.15,5.35
		c0.01,0.58,0.19,0.98,0.85,1c0.17,0,0.32,0.04,0.31,0.24c0,0.23-0.19,0.2-0.33,0.2c-0.96,0-1.92,0-2.87,0
		c-0.12,0-0.27,0.03-0.29-0.16c-0.02-0.2,0.08-0.28,0.27-0.28c0.68,0,0.81-0.42,0.8-1c-0.02-1.74-0.01-3.48-0.01-5.25
		c-0.23,0.06-0.25,0.24-0.31,0.38c-0.88,1.91-1.76,3.82-2.64,5.73c-0.08,0.18-0.09,0.48-0.36,0.48c-0.28,0.01-0.29-0.29-0.37-0.47
		c-0.75-1.71-1.48-3.42-2.23-5.13c-0.1-0.23-0.16-0.49-0.44-0.75c-0.06,0.88-0.13,1.69-0.16,2.5c-0.04,0.85-0.01,1.7-0.06,2.54
		c-0.03,0.6,0.21,0.9,0.8,0.95c0.16,0.01,0.38-0.02,0.38,0.25c0,0.28-0.22,0.22-0.38,0.22c-0.76,0.01-1.52,0-2.29,0
		c-0.15,0-0.33,0.04-0.37-0.17c-0.05-0.24,0.13-0.28,0.32-0.3c0.55-0.07,0.73-0.43,0.8-0.95c0.22-1.75,0.31-3.51,0.44-5.26
		c0.04-0.59-0.11-1.04-0.81-1.09c-0.14-0.01-0.32,0.03-0.32-0.21c0-0.29,0.21-0.21,0.37-0.22c0.04,0,0.09,0.01,0.13,0
		c1.27-0.25,1.98,0.24,2.44,1.48C53.89,99.22,54.7,100.68,55.47,102.29z"/>
	<path class="st1" d="M43.21,91.92c-1.13,0-2.26,0-3.4-0.01c-0.17,0-0.43,0.12-0.46-0.2c-0.03-0.35,0.26-0.29,0.45-0.32
		c0.94-0.15,1.04-0.21,1.07-1.14c0.08-2.26,0.05-4.52,0.02-6.79c-0.01-0.7-0.27-1.06-0.97-1.1c-0.18-0.01-0.4,0.03-0.38-0.29
		c0.02-0.34,0.26-0.23,0.43-0.23c2.11-0.01,4.22,0,6.33-0.01c0.33,0,0.46,0.08,0.46,0.42c0.01,0.52,0.07,1.04,0.1,1.56
		c0.01,0.15,0.09,0.34-0.2,0.38c-0.27,0.04-0.33-0.09-0.39-0.3c-0.06-0.23-0.16-0.45-0.25-0.67c-0.19-0.48-0.55-0.72-1.05-0.74
		c-0.72-0.03-1.44-0.02-2.15-0.03c-0.31-0.01-0.41,0.14-0.4,0.44c0.01,1.04,0.01,2.09,0,3.13c0,0.28,0.07,0.39,0.36,0.37
		c0.46-0.03,0.91-0.03,1.37-0.02c0.66,0.01,1.23-0.1,1.33-0.91c0.03-0.22,0.17-0.27,0.37-0.25c0.24,0.01,0.21,0.17,0.21,0.32
		c0,0.81,0,1.61,0,2.42c0,0.13,0.02,0.28-0.17,0.29c-0.14,0.01-0.35,0.07-0.37-0.15c-0.15-1.1-0.96-1.05-1.77-1.05
		c-1.33,0.01-1.33,0-1.33,1.35c0,0.63-0.01,1.26,0,1.89c0.01,0.58,0.26,0.95,0.89,0.97c0.37,0.01,0.74,0.04,1.1,0.07
		c1.31,0.09,2.22-0.44,2.62-1.74c0.07-0.22,0.19-0.31,0.44-0.24c0.28,0.08,0.14,0.26,0.14,0.42c0,0.02-0.01,0.04-0.02,0.06
		c-0.17,0.67-0.07,1.56-0.54,1.96c-0.45,0.38-1.29,0.09-1.96,0.11C44.47,91.93,43.84,91.92,43.21,91.92z"/>
	<path class="st1" d="M94.24,100.33c-0.57,0-1.13,0.01-1.7-0.01c-0.32-0.01-0.46,0.06-0.45,0.42c0.03,0.76,0.01,1.52,0.01,2.29
		c0,0.53,0.18,0.89,0.78,0.9c0.19,0,0.44,0,0.39,0.3c-0.04,0.26-0.28,0.15-0.43,0.15c-0.89,0.01-1.79,0.01-2.68,0
		c-0.15,0-0.38,0.1-0.41-0.18c-0.02-0.25,0.17-0.26,0.35-0.27c0.61-0.01,0.75-0.39,0.75-0.92c0-1.83-0.01-3.66,0-5.49
		c0.01-0.59-0.24-0.89-0.83-0.92c-0.14-0.01-0.32,0.03-0.31-0.22c0.01-0.24,0.17-0.21,0.32-0.21c0.96,0,1.92,0,2.87,0
		c0.13,0,0.27-0.01,0.3,0.17c0.03,0.22-0.11,0.25-0.28,0.26c-0.7,0.02-0.86,0.44-0.84,1.05c0.02,0.54,0.02,1.09,0,1.63
		c-0.01,0.32,0.05,0.46,0.42,0.45c1.18-0.03,2.35-0.02,3.53,0c0.33,0.01,0.46-0.08,0.44-0.43c-0.03-0.59-0.02-1.18-0.01-1.76
		c0.01-0.57-0.21-0.92-0.82-0.94c-0.14,0-0.32,0.02-0.31-0.23c0.01-0.24,0.18-0.2,0.32-0.2c0.96,0,1.92,0,2.87,0
		c0.14,0,0.32-0.05,0.34,0.19c0.02,0.24-0.15,0.23-0.3,0.23c-0.72,0.02-0.89,0.42-0.88,1.07c0.03,1.74,0.02,3.48,0,5.22
		c-0.01,0.6,0.13,1.04,0.84,1.03c0.16,0,0.33,0.02,0.33,0.23c0,0.28-0.23,0.21-0.38,0.21c-0.96,0.01-1.92,0-2.87,0
		c-0.14,0-0.33,0.04-0.35-0.19c-0.01-0.2,0.14-0.26,0.3-0.25c0.75,0.03,0.91-0.43,0.91-1.05c-0.01-0.72-0.01-1.44,0-2.16
		c0.01-0.31-0.1-0.42-0.41-0.41C95.46,100.35,94.85,100.33,94.24,100.33z"/>
	<path class="st1" d="M56.81,91.92c-0.54,0-1.09,0.01-1.63,0c-0.15,0-0.37,0.08-0.4-0.19c-0.03-0.23,0.12-0.28,0.31-0.34
		c0.79-0.24,0.81-0.26,0.54-1.01c-0.25-0.67-0.35-1.53-0.83-1.94c-0.49-0.42-1.38-0.11-2.09-0.12c-1.22-0.02-1.22-0.01-1.61,1.11
		c-0.12,0.35-0.21,0.71-0.35,1.05c-0.22,0.56,0.01,0.81,0.56,0.91c0.21,0.04,0.56-0.05,0.5,0.33c-0.05,0.37-0.38,0.19-0.58,0.2
		c-0.85,0.02-1.7,0.01-2.55,0c-0.15,0-0.37,0.1-0.4-0.19c-0.02-0.22,0.08-0.33,0.29-0.34c0.81-0.06,1.13-0.65,1.4-1.29
		c1.09-2.62,2.17-5.25,3.24-7.88c0.12-0.3,0.22-0.57,0.6-0.57c0.4,0,0.32,0.36,0.39,0.57c1.01,2.63,2,5.27,2.99,7.91
		c0.25,0.66,0.56,1.24,1.38,1.28c0.18,0.01,0.27,0.11,0.27,0.3c-0.01,0.23-0.17,0.21-0.33,0.21C57.95,91.92,57.38,91.92,56.81,91.92
		z M51.79,87.55c0.97,0,1.86,0,2.81,0c-0.45-1.24-0.89-2.43-1.37-3.76C52.72,85.13,52.26,86.32,51.79,87.55z"/>
	<path class="st1" d="M94.59,86.73c0.75-1.24,1.39-2.41,1.96-3.62c0.26-0.55-0.14-0.61-0.51-0.72c-0.19-0.06-0.55,0.09-0.5-0.32
		c0.04-0.4,0.37-0.22,0.57-0.22c0.87-0.02,1.74-0.01,2.61-0.01c0.17,0,0.41-0.09,0.44,0.23c0.03,0.32-0.21,0.28-0.39,0.3
		c-0.63,0.09-1.06,0.45-1.39,0.98c-0.3,0.48-0.59,0.97-0.93,1.42c-1.26,1.63-1.71,3.46-1.49,5.5c0.09,0.83,0.2,1.01,1.04,1.11
		c0.11,0.01,0.22,0.04,0.32,0.04c0.21,0,0.24,0.13,0.24,0.3c0,0.19-0.13,0.19-0.26,0.19c-1.37,0-2.75,0-4.12,0
		c-0.14,0-0.26-0.03-0.27-0.21c-0.01-0.19,0.08-0.28,0.26-0.29c0.15-0.01,0.3-0.03,0.45-0.05c0.47-0.06,0.77-0.3,0.78-0.8
		c0.06-1.6,0.2-3.2-0.9-4.61c-0.65-0.84-1.11-1.81-1.66-2.73c-0.27-0.45-0.62-0.79-1.16-0.86c-0.22-0.03-0.37-0.06-0.33-0.34
		c0.04-0.28,0.25-0.19,0.4-0.19c1.05-0.01,2.09-0.01,3.14,0c0.18,0,0.4-0.08,0.42,0.25c0.01,0.26-0.16,0.24-0.33,0.29
		c-0.76,0.22-0.78,0.25-0.37,0.96C93.25,84.46,93.9,85.55,94.59,86.73z"/>
	<path class="st1" d="M72.49,86.67c0,1.2-0.01,2.4,0.01,3.59c0.01,0.83,0.22,1.03,1.02,1.13c0.13,0.02,0.26,0.03,0.39,0.05
		c0.16,0.01,0.22,0.11,0.22,0.26c0,0.17-0.09,0.23-0.25,0.22c-1.42,0-2.83,0-4.25,0c-0.14,0-0.25-0.02-0.26-0.21
		c-0.01-0.2,0.08-0.27,0.26-0.29c0.13-0.01,0.26-0.04,0.39-0.05c0.59-0.04,0.93-0.32,0.93-0.94c0.01-2.55,0.02-5.1,0.03-7.64
		c0-0.26-0.09-0.34-0.34-0.33c-0.35,0.02-0.7,0-1.05,0.01c-1.22,0.03-1.43,0.19-1.8,1.37c-0.04,0.12-0.08,0.25-0.12,0.37
		c-0.06,0.21-0.22,0.17-0.37,0.17c-0.2,0-0.17-0.15-0.17-0.28c0.04-0.78,0.08-1.56,0.14-2.34c0.03-0.36,0.25-0.41,0.47-0.18
		c0.23,0.24,0.49,0.25,0.77,0.25c2.11,0,4.23,0.01,6.34,0.01c0.28,0,0.55-0.03,0.79-0.24c0.29-0.26,0.49-0.25,0.5,0.23
		c0.02,0.72,0.08,1.43,0.12,2.15c0.01,0.17,0.07,0.35-0.22,0.37c-0.23,0.02-0.3-0.07-0.34-0.28c-0.05-0.25-0.15-0.5-0.25-0.74
		c-0.22-0.53-0.6-0.81-1.19-0.85c-1.82-0.13-1.82-0.14-1.82,1.64c0,0.85,0,1.7,0,2.55C72.48,86.67,72.49,86.67,72.49,86.67z"/>
	<path class="st1" d="M198.68,131.57c-0.02-3.15-1.01-6.02-2.54-8.73c-0.14-0.25-0.48-0.58-0.21-0.8c0.23-0.19,0.56,0.14,0.78,0.33
		c3.07,2.54,4.72,5.79,4.8,9.8c0.03,1.2,0.01,1.2-1.18,1.14c-0.3-0.01-0.61-0.08-0.91-0.04c-0.75,0.08-0.85-0.31-0.75-0.92
		C198.72,132.1,198.68,131.83,198.68,131.57z"/>
	<path class="st1" d="M76.2,104.58c-2.49,0.01-4.38-1.8-4.39-4.2c-0.01-2.5,1.93-4.4,4.51-4.41c2.45-0.01,4.36,1.86,4.34,4.25
		C80.65,102.75,78.78,104.57,76.2,104.58z M79.18,100.59c0.03-1.16-0.2-2.18-0.91-3.04c-1.19-1.43-3.28-1.39-4.32,0.07
		c-1.14,1.6-0.81,4.46,0.67,5.75c1.41,1.22,3.4,0.81,4.19-0.88C79.1,101.86,79.21,101.21,79.18,100.59z"/>
	<path class="st1" d="M66.01,104.58c-2.49,0-4.36-1.81-4.36-4.22c0-2.51,1.96-4.42,4.52-4.39c2.46,0.02,4.31,1.82,4.31,4.2
		C70.48,102.75,68.62,104.58,66.01,104.58z M69.02,100.56c-0.04-1.28-0.27-2.21-0.91-3.01c-1.27-1.56-3.57-1.37-4.54,0.38
		c-0.84,1.52-0.58,3.85,0.57,5.14c1.47,1.65,3.83,1.19,4.6-0.87C68.97,101.58,69,100.93,69.02,100.56z"/>
	<path class="st1" d="M63.25,91.92c-1.07,0-2.13,0-3.2,0c-0.17,0-0.43,0.1-0.43-0.23c0-0.3,0.25-0.25,0.42-0.28
		c0.93-0.16,1.07-0.29,1.08-1.21c0.01-2.22,0.01-4.44,0-6.67c-0.01-0.88-0.17-1.04-1.05-1.16c-0.18-0.03-0.4,0.05-0.38-0.28
		c0.02-0.33,0.26-0.23,0.43-0.24c1.15-0.01,2.31-0.01,3.46,0c0.17,0,0.41-0.11,0.44,0.22c0.03,0.32-0.18,0.26-0.37,0.29
		c-0.84,0.14-0.99,0.27-1,1.08c-0.02,2.27,0,4.53-0.01,6.8c0,0.66,0.28,1.03,0.96,1.05c0.46,0.02,0.91,0.05,1.37,0.04
		c1.02-0.03,1.52-0.71,1.9-1.55c0.09-0.21,0.07-0.58,0.49-0.43c0.38,0.14,0.12,0.4,0.08,0.6c-0.14,0.63-0.12,1.46-0.52,1.84
		c-0.41,0.4-1.24,0.1-1.89,0.12C64.43,91.94,63.84,91.92,63.25,91.92z"/>
	<path class="st1" d="M192.45,123.51c1.16,4.86,0.41,9.33-2.49,13.4c-0.6,0.83-1.53,1.04-2.2,0.52c-0.29-0.22-0.43-0.4-0.12-0.78
		c2.34-2.93,3.8-6.26,4.4-9.96c0.13-0.84,0.18-1.69,0.26-2.53C192.32,123.94,192.25,123.72,192.45,123.51z"/>
	<path class="st1" d="M85.82,100.13c0,0.94,0.02,1.87-0.01,2.81c-0.02,0.65,0.26,0.98,0.91,1c0.19,0,0.44-0.03,0.4,0.28
		c-0.03,0.27-0.27,0.16-0.42,0.16c-0.98,0.01-1.96,0.01-2.94,0c-0.17,0-0.44,0.12-0.44-0.21c0-0.26,0.22-0.23,0.38-0.23
		c0.63-0.02,0.88-0.34,0.87-0.96c-0.01-1.94-0.02-3.88,0-5.81c0-0.42-0.14-0.54-0.53-0.5c-0.26,0.03-0.52,0.05-0.78,0.04
		c-0.68-0.04-1.04,0.32-1.23,0.93c-0.07,0.22-0.02,0.64-0.37,0.58c-0.43-0.07-0.15-0.47-0.16-0.71c-0.02-0.45,0.06-0.91,0.09-1.36
		c0.02-0.31,0.12-0.43,0.38-0.18c0.21,0.21,0.46,0.22,0.72,0.22c1.66,0,3.31,0,4.97,0c0.2,0,0.41,0.02,0.56-0.12
		c0.5-0.44,0.58-0.19,0.58,0.32c0,0.48,0.06,0.95,0.08,1.43c0.01,0.15,0.12,0.35-0.17,0.39c-0.21,0.03-0.24-0.09-0.3-0.25
		c-0.47-1.22-0.99-1.48-2.35-1.3c-0.37,0.05-0.27,0.27-0.27,0.46c-0.01,1,0,2,0,3.01C85.81,100.13,85.82,100.13,85.82,100.13z"/>
	<path class="st1" d="M46.23,104.58c-0.06-0.01-0.26-0.01-0.45-0.04c-1.19-0.2-1.83-1.1-1.65-2.3c0.02-0.17,0.11-0.22,0.24-0.25
		c0.18-0.04,0.22,0.11,0.26,0.23c0.12,0.35,0.28,0.68,0.5,0.98c0.3,0.42,0.7,0.72,1.21,0.83c0.72,0.16,1.38-0.14,1.66-0.72
		c0.32-0.67,0.16-1.38-0.44-1.87c-0.51-0.42-1.12-0.66-1.68-0.99c-0.76-0.44-1.41-0.96-1.5-1.92c-0.14-1.52,1.13-2.66,2.83-2.56
		c0.04,0,0.09,0.01,0.13,0.02c1.46,0.15,1.68,0.41,1.62,1.87c-0.01,0.13,0.01,0.26-0.17,0.29c-0.16,0.03-0.24-0.04-0.3-0.17
		c-0.1-0.24-0.17-0.49-0.3-0.72c-0.36-0.62-0.93-0.89-1.59-0.77c-0.56,0.1-0.93,0.43-1.07,1c-0.17,0.69,0.1,1.2,0.65,1.57
		c0.45,0.3,0.94,0.54,1.42,0.79c1.44,0.77,1.97,1.64,1.68,2.81C48.96,103.87,47.89,104.59,46.23,104.58z"/>
	<path class="st1" d="M197.1,108.23c0.06,0,0.12,0,0.18,0c0.06,0.32,0.07,0.65-0.01,1.12C197.2,108.89,197.15,108.56,197.1,108.23z"
		/>
	<path class="st1" d="M206.77,127.3c0.43,0.27,0.86,0.54,1.29,0.81c-0.02,0.04-0.05,0.08-0.07,0.12c-0.44-0.28-0.88-0.56-1.32-0.84
		C206.7,127.37,206.73,127.33,206.77,127.3z"/>
	<path class="st1" d="M206.05,126.98c-0.13-0.06-0.38-0.11-0.26-0.27c0.15-0.2,0.27,0.06,0.4,0.15
		C206.14,126.9,206.09,126.94,206.05,126.98z"/>
	<path class="st1" d="M208.32,128.34c-0.04,0.01-0.07,0.03-0.1,0.02c-0.02-0.01-0.03-0.05-0.05-0.08c0.03-0.01,0.07-0.03,0.1-0.03
		C208.29,128.26,208.3,128.31,208.32,128.34z"/>
	<path class="st1" d="M206.29,127.16c-0.08-0.06-0.16-0.12-0.25-0.18c0.05-0.04,0.09-0.08,0.14-0.12c0.07,0.06,0.14,0.11,0.21,0.17
		C206.36,127.07,206.33,127.11,206.29,127.16z"/>
	<path class="st1" d="M206.55,127.11c0.07,0.06,0.14,0.13,0.21,0.19c-0.03,0.03-0.07,0.07-0.1,0.1c-0.07-0.06-0.15-0.11-0.22-0.17
		C206.48,127.19,206.52,127.15,206.55,127.11z"/>
	<path class="st1" d="M209.28,128.86c-0.08,0.15-0.16,0.03-0.24,0c0,0,0.01-0.06,0.01-0.08c0.07,0.03,0.14,0.06,0.21,0.09
		L209.28,128.86z"/>
	<path class="st1" d="M206.4,127.02c0.05,0.03,0.1,0.06,0.16,0.09c-0.03,0.04-0.07,0.08-0.1,0.12c-0.05-0.02-0.1-0.05-0.15-0.07
		C206.33,127.11,206.36,127.07,206.4,127.02z"/>
	<path class="st1" d="M209.26,128.87c0.03,0.04,0.07,0.08,0.1,0.12c-0.04,0-0.08,0.01-0.1,0c-0.07-0.05-0.01-0.09,0.02-0.13
		C209.28,128.86,209.26,128.87,209.26,128.87z"/>
	<path class="st1" d="M51.79,87.55c0.47-1.23,0.92-2.42,1.44-3.76c0.48,1.33,0.92,2.53,1.37,3.76
		C53.65,87.55,52.76,87.55,51.79,87.55z"/>
</g>
</svg>
