<?xml version="1.0" encoding="utf-8"?>
<!-- Generator: Adobe Illustrator 28.1.0, SVG Export Plug-In . SVG Version: 6.00 Build 0)  -->
<svg version="1.1" id="Layer_1" xmlns="http://www.w3.org/2000/svg" xmlns:xlink="http://www.w3.org/1999/xlink" x="0px" y="0px"
	 viewBox="0 0 250 250" style="enable-background:new 0 0 250 250;" xml:space="preserve">
<style type="text/css">
	.st0{fill:#FFFFFF;}
	.st1{fill:#282828;}
</style>
<path class="st0" d="M0,0h161.91C210.56,0,250,39.44,250,88.09V250H88.09C39.44,250,0,210.56,0,161.91V0z"/>
<path class="st1" d="M240.32,133.08c-1.84-11.81-5.76-22.35-13.6-31.33C212.21,85.09,193.56,79.12,172.05,81
	c-1.93,0.18-2.4,0.62-2.73-1.8c-1.57-11.46-4.3-22.68-9.45-33.12c-7.86-15.93-18.96-29.41-31.56-41.82
	c-3.32-3.27-5.4-1.76-7.08,0.92c-3.57,5.7-8.84,9.85-13.06,14.94c-13.62,16.39-22.79,34.74-26.1,55.76
	c-0.68,4.34-0.01,6.01-6.06,5.3C48.4,78,22.62,93.63,13.48,119.87c4.52,0.55,7.43,0.64,10.52-4.6
	c11.2-19.07,28.15-28.59,50.76-26.53c4,0.37,7.42,1.49,8.26,6.22c2.31,13.07,7.42,24.8,17.9,33.35c3.77,3.1,3.75,6.62,3.32,10.46
	c-0.3,2.84-1.84,5.57-1.99,8.39c-0.15,2.72-0.94,3.17-3.54,3.42c-7.35,0.72-14.48,2.37-21.2,5.83
	c-11.44,5.89-18.51,15.43-23.73,26.76c-2.66,5.78-4.45,6.24-9.77,2.86c-12.91-8.24-22.08-19.21-25.7-34.47
	c-0.81-3.47-0.39-4.6,3.39-4.55c11.41,0.2,22.81,0.01,34.22,0.12c2.47,0.02,3.73-0.34,3.6-3.28c-0.1-2.47-0.35-3.62-3.31-3.58
	c-15.5,0.16-31.02,0.08-47.24,0.08c1.36,1.98,0.93,3.7,1.1,5.37c0.94,9.25,3.23,18.04,8.31,26.02
	c6.85,10.77,15.81,18.95,27.79,23.65c1.85,0.73,2.78,2.41,1.75,3.99c-1.3,2-0.61,3.97-0.82,5.94c-0.91,8.57-1.29,17.23-2.89,25.68
	c-0.68,3.67,0.29,3.61,2.95,3.66c9.42,0.17,18.72-0.71,28.06-2.13c15.19-2.34,28.42-8.18,39.5-18.89
	c4.18-4.03,7.11-8.97,10.58-14.21c5.65,11.63,14.3,19.52,25.11,25.1c15.99,8.25,33.2,10.44,50.92,10.16
	c3.33-0.04,4.25-1.57,4.01-4.51c-0.76-9.35-0.74-18.85-2.54-28c-1.08-5.46,1.56-6.66,4.94-8.69c11.16-6.69,20.6-15.19,26.85-26.79
	C240.28,156.17,242.2,145.15,240.32,133.08z M89.73,78.17c0.85-13.55,5.76-25.7,13.25-36.77c6.11-9.03,13.15-17.42,19.13-26.52
	c2.31-3.5,3.27-2.23,5.18-0.29c17.17,17.45,29.84,37.39,34.2,61.87c0.56,3.18,1.1,7.17-2.85,8.8
	c-15.46,6.34-26.28,17.36-33.29,33.32c-3.93-7.56-7.65-14.03-12.56-19.58c-4.75-5.36-10.72-9.51-17.23-12.29
	C91.24,84.88,89.45,82.65,89.73,78.17z M136.87,125.94c-4.1-1.84-4.67-3.29-2.53-7.52c5.36-10.61,12.81-18.83,23.39-24.28
	c1.71-0.88,2.64-1.54,2.74,0.98c-2.54,6.75-4.19,13.84-8.67,19.61c-2.71,3.47-5.69,6.74-8.79,9.86
	C141.43,126.17,139.73,127.23,136.87,125.94z M163,160.48c12.75,5.28,21.33,14.31,26.75,26.88c1.95,4.54,0.18,4.95-3.53,4.67
	c-1.85-0.15-3.73-0.02-5.59-0.02c-17.18,0.55-30.21-7.39-40.8-20.11c-3.45-4.14-2.54-7.12,2.48-10.21
	C149.03,157.58,155.73,157.47,163,160.48z M90.57,92.75c12.27,7.05,21.33,15.49,26.45,27.92c1.1,2.64-0.13,3.62-1.47,4.4
	c-1.67,0.99-3.46,3.14-5.84,1.01C100,117.38,92.5,107.42,90.57,92.75z M60.05,187.37c6.77-16.12,18.73-25.84,35.87-28.98
	c7.11-1.3,12.3,3.33,17.74,6.81c1.17,0.75-0.19,2.12-0.57,2.63c-9.21,12.6-20.57,22.04-36.67,24.1c-2.17,0.28-4.05,2.02-5.55,1.4
	c-3.57-0.54-6.29-0.81-8.94-1.4C59.38,191.37,59.01,189.84,60.05,187.37z M103,213.38c-13.17,9.5-28.1,12.63-43.95,13.61
	c-5.93,0.36-7.72-0.22-6.53-6.67c1.18-6.43,2.73-12.93,2.44-19.58c-0.11-2.49,1.65-2.19,3.02-1.95c22.94,4.02,42.1-2.82,57.83-19.85
	c1.17-1.27,2.02-3.27,4.18-3.26c0.88,0.01,1.21,1.83,1.2,6.98C120.4,195.03,113.99,205.44,103,213.38z M110,146.22
	c-0.33-7.1,7.65-14.85,15.26-14.83c8.78,0.02,14.99,6.01,15,14.46c1.74,7.4-6.48,14.83-14.86,15.76
	C119.29,162.28,110.32,153.02,110,146.22z M161.22,221.16c-15.28-6.25-27.17-16.08-31.64-32.68c-1.08-4.02-0.37-8.5-0.57-12.76
	c-0.06-1.12,0.54-2.04,1.27-2.25c1.27-0.36,1.52,0.99,2.19,1.82c9.07,11.09,19.75,20.15,34.15,23.06
	c8.21,1.66,16.67,2.95,25.11,0.47c2.38-0.7,3.56,0.1,3.61,3.08c0.15,8.55,2.54,16.87,2.34,25.68
	C185.43,226.73,172.94,225.96,161.22,221.16z M233.36,140.46c-1.5,21.33-11.24,37.34-30.73,47.23c-3.01,1.53-3.93,0.61-4.85-1.67
	c-2.87-7.12-6.83-13.63-11.82-19.37c-7.14-8.21-16.48-13.19-27.09-14.91c-8.75-1.43-8.51-0.93-11.04-9.4
	c-0.72-2.41-0.02-5.13-1.8-7.39c-0.51-0.64-0.68-2.38,1.04-3.7c12.08-9.33,18.56-22.05,21.17-36.85c0.68-3.93,2.69-5.25,6.51-5.76
	c24.72-3.28,47.07,12.39,55.58,34.63c0.76,2.01,1.8,4.1,1.8,6.16C232.17,133.17,234.62,136.56,233.36,140.46z"/>
</svg>
