<?xml version="1.0" encoding="utf-8"?>
<!-- Generator: Adobe Illustrator 28.1.0, SVG Export Plug-In . SVG Version: 6.00 Build 0)  -->
<svg version="1.1" id="Layer_1" xmlns="http://www.w3.org/2000/svg" xmlns:xlink="http://www.w3.org/1999/xlink" x="0px" y="0px"
	 viewBox="0 0 250 250" style="enable-background:new 0 0 250 250;" xml:space="preserve">
<style type="text/css">
	.st0{fill:#FFFFFF;}
	.st1{fill:#282828;}
</style>
<path class="st0" d="M0,0h161.91C210.56,0,250,39.44,250,88.09V250H88.09C39.44,250,0,210.56,0,161.91V0z"/>
<g>
	<path class="st1" d="M246.38,133.96c-3.5-16.66-12.77-29.97-25.71-40.74c-14.28-11.88-30.7-19.5-48.74-23.69
		c-4.69-1.09-6.73-4.61-5.29-9.23c0.46-1.49,1.24-2.81,2.05-4.12c1.79-2.91,4.64-4.8,6.94-7.2c4.52-4.7,6.15-10.21,4.47-16.54
		c-1.93-7.24-6.8-12.18-13.03-15.86c-12.17-7.19-25.39-8.99-39.19-7.02c-8.3,1.18-15.92,4.15-22.14,9.98
		c-4.7,4.42-8.18,9.67-9.61,16.06c-0.21,0.92-0.56,2.42,0.36,2.83c1.16,0.52,1.52-1.05,2.11-1.78c7.3-9.17,16.06-16.21,27.81-18.6
		c14.73-3.01,27.94,1.15,40.22,9.16c1.3,0.85,2.34,2.01,3.26,3.27c3.21,4.42,2.98,8.77-0.69,12.82c-1.27,1.4-2.6,2.75-3.8,4.19
		c-4.26,5.11-7.06,10.73-6.05,17.65c0.24,1.65-0.51,2.32-2.07,1.85c-3.34-1.01-6.77-0.88-10.2-1.03
		c-13.65-0.59-27.06,0.72-40.03,5.27c-0.93,0.32-2.28,0.22-2.72,1.83c0.42,0.06,0.72,0.14,1.01,0.14
		c11.06,0.1,22.11,0.43,33.13,1.44c1.67,0.15,2.39,0.53,2.53,2.33c0.42,5.04,1.04,10.06,1.62,15.08c0.38,3.3,0.41,3.27-2.86,3.78
		c-8.12,1.27-16.22,0.82-24.35,0.07c-2.23-0.21-2.59-0.9-2.04-2.87c1.49-5.36,2.89-10.75,4.25-16.14c0.21-0.83,0.71-2.07-0.29-2.52
		c-0.91-0.41-1.4,0.78-1.87,1.44c-3.59,5.06-6.21,10.64-8.26,16.47c-0.75,2.13-1.83,2.76-4.02,2.35
		c-8.08-1.51-16.15-3.08-24.03-5.45c-3.69-1.11-3.7-1.09-3.7-4.64c-3.46,0.72-6.36,2.42-9.1,4.5c-0.97,0.74-0.97,1.3,0.14,1.83
		c1.43,0.69,1.61,1.75,1.19,3.2c-3.19,10.97-5.16,22.18-6.5,33.51c-0.18,1.48-0.62,1.59-1.89,1.24c-5.45-1.48-10.93-2.87-16.39-4.32
		c-0.79-0.21-1.55-0.56-2.28-0.19c-0.19,0.81,0.35,0.88,0.66,1.1c5.27,3.75,11,6.61,17.02,8.89c2.32,0.88,3.43,2.29,3.34,4.81
		c-0.25,6.99,0.82,13.83,2.42,20.62c1.1,4.69,2.76,9.22,4.25,14.06c-0.91-0.13-1.5-0.17-2.07-0.31c-8.79-2.24-17.58-4.48-26.37-6.75
		c-0.46-0.12-0.94-0.67-1.33-0.09c-0.36,0.54-0.23,1.17,0.35,1.58c0.48,0.35,1,0.65,1.52,0.95c8.87,5.1,18.23,9.01,28.11,11.66
		c2.39,0.64,4.03,1.83,5.33,3.99c2.92,4.83,5.51,9.89,9.17,14.24c2.04,2.43,4.54,4.22,8.11,5.1c-3.63-6.74-7.75-12.69-10.23-19.93
		c7.36,1.1,14.29,2.27,21.25,3.09c2.79,0.32,4.49,1.44,5.8,3.89c3.71,6.98,8.64,12.96,15.25,17.43c0.61,0.41,1.28,1.38,1.96,0.87
		c0.74-0.57,0.25-1.58-0.11-2.36c-0.32-0.7-0.65-1.39-0.98-2.09c-2.18-4.65-4.37-9.28-6.52-13.94c-0.45-0.98-1.24-2.08,0.94-2.09
		c8.22-0.08,16.46,0.54,24.67-0.45c1.44-0.17,2.09,0.35,1.52,1.96c-1.05,2.98-1.93,6.03-2.95,9.03c-1.3,3.83-2.67,7.65-4.1,11.72
		c2.61-0.62,4.2-2.02,5.67-3.6c3.75-4.01,6.57-8.64,7.93-13.93c1.12-4.36,3.02-6.68,7.94-6.64c5.05,0.04,10.11-0.85,15.71-1.39
		c-3.73,6.76-6.6,13.27-11.22,18.75c-0.57,0.67-1.85,1.33-1.01,2.3c0.89,1.01,1.83,0.05,2.62-0.62
		c6.66-5.62,12.74-11.74,16.95-19.48c1.16-2.13,2.87-3.41,5.3-4.07c8.22-2.25,16-5.56,22.97-10.56c1.82-1.3,3.62-2.65,4.13-5.04
		c0.14-0.65,0.51-1.48-0.14-1.9c-0.32-0.21-1.1,0.18-1.62,0.4c-5.33,2.34-10.76,4.41-16.26,6.3c-2.52,0.87-5.01,1.94-7.93,2.33
		c1.62-3.73,2.95-7.24,3.87-10.91c1.84-7.32,3.66-14.64,4.1-22.21c0.19-3.18,1.61-5.14,4.84-6.1c3.95-1.17,7.46-3.39,10.88-5.68
		c1.73-1.16,3.11-2.7,4.18-4.48c0.35-0.57,0.94-1.26,0.45-1.87c-0.48-0.62-1.24-0.18-1.9,0.03c-4.82,1.51-9.67,2.92-14.45,4.51
		c-1.87,0.62-2.58,0.67-2.62-1.75c-0.2-12.29-1.51-24.46-4.95-36.32c0-0.2,0.01-0.4,0.01-0.6c0.15,0.09,0.31,0.18,0.46,0.26
		c16.6,7.83,30.59,18.57,38.99,35.4c6.41,12.86,7.28,26.08,1.97,39.53c-4.53,11.48-12.28,20.57-21.86,28.08
		c-19.54,15.31-42.3,21.99-66.62,24.32c-13.26,1.26-26.38,0.1-39.44-2.1c-26.52-4.48-49.47-15.64-67.51-36.06
		c-3.98-4.51-7.56-9.32-10.97-14.26c-0.42-0.6-0.8-1.5-1.77-1.07c-0.56,0.25-0.3,0.89-0.22,1.39c1.9,13.04,8.35,23.53,17.88,32.39
		c11.44,10.64,24.97,17.6,39.53,22.81c4.76,1.69,9.65,2.94,15.12,4.37c-1.27,0.42-1.91,0.63-2.55,0.84
		c-4.8,1.55-9.61,3.03-14.22,5.13c-2.55,1.16-2,2.75-1.4,4.84c0.7,2.37,2.04,1.8,3.55,1.34c0.41-0.12,0.83-0.22,1.24-0.33
		c19.14-5.6,38.76-8.34,58.61-8.31c16.89,0.03,33.68,2.12,50.15,6.22c4,0.99,7.88,2.64,12.77,2.71c-8.91-7.2-18.85-11.1-29.25-14.91
		c4.05-1.45,7.64-2.62,11.13-3.99c18.47-7.25,34.55-17.83,46.39-34.06C245.88,168.5,250.18,152.02,246.38,133.96z M101.67,179.14
		c-6-0.41-11.83-2.33-17.77-2.51c-5.89-0.18-7.87-3.1-9.08-8.22c-1.95-8.25-4.01-16.49-4.81-24.92c-0.6-6.32-0.21-5.11,4.36-3.72
		c6.89,2.1,13.93,3.51,21.06,4.42c2.34,0.3,3.19,1.3,3.31,3.61c0.53,9.84,1.39,19.64,4.03,29.19
		C103.33,178.97,103.16,179.18,101.67,179.14z M103.54,103.56c-2.76,10.01-5.1,20.09-4.91,30.57c0.02,1.46-0.53,2.04-2.01,1.78
		c-7.33-1.29-14.68-2.46-21.99-3.85c-6.23-1.18-5.16-0.47-5.27-6.46c0.44-9.77,1.62-19.45,3.54-29.04c0.38-1.88,0.98-2.45,2.92-1.72
		c8.51,3.21,17.31,5.34,26.31,6.6C103.57,101.64,103.97,102,103.54,103.56z M110.62,104.71c0.3-1.71,1.35-1.93,2.8-1.77
		c4.25,0.47,8.49,0.98,12.77,1.27c5.43,0.37,10.76-0.53,16.13-0.85c1.56-0.09,2.02,0.04,2.31,1.6c1.66,8.94,2.3,17.99,2.98,27.03
		c0.39,5.1,0.29,5-4.71,5.63c-4.94,0.61-9.9,0.34-14.01,0.72c-6.99-0.12-13.14-0.28-19.26-1.16c-1.8-0.26-2.2-0.98-2.19-2.65
		C107.49,124.48,108.88,114.58,110.62,104.71z M148.57,156.75c-0.37,7.1-1.03,14.16-2.37,21.16c-0.41,2.14-1.46,2.76-3.49,2.83
		c-8.55,0.32-17.09,0.9-25.66,0.12c-2.22-0.21-3.32-0.93-3.98-3.09c-3-9.88-4.56-19.99-5.56-30.24c-0.2-1.97,0.55-2.46,2.31-2.18
		c7.8,1.24,15.67,1.47,23.54,1.71c3.94,0.11,7.87-0.07,11.77-0.7c2.76-0.45,3.36,0.12,3.43,2.94
		C148.62,151.78,148.57,154.26,148.57,156.75z M150.29,91.52c-1.67-5.65-3.6-11.19-7.83-16.4c12.82,1.18,24.64,3.54,36.38,7.68
		c-0.75,1.27-1.94,1.63-2.95,2.18c-7.03,3.85-14.6,6.25-22.36,8.11C151.99,93.46,150.79,93.2,150.29,91.52z M189.03,142.69
		c-1.14,10.21-4.3,19.85-8.01,29.35c-0.92,2.36-2.42,3.86-4.91,4.37c-5.62,1.13-11.13,2.8-16.37,3.09
		c-4.63,0.48-4.83,0.45-4.27-3.55c1.34-9.53,1.3-19.13,1.81-28.7c0.1-1.81,0.7-2.38,2.56-2.59c8.93-1,17.85-2.1,26.57-4.4
		C189.29,139.48,189.36,139.71,189.03,142.69z M188.14,131.63c-7.2,1.92-14.44,3.6-21.87,4.34c-2.22,0.22-4.45,0.41-6.62,0.86
		c-2,0.42-2.74-0.05-2.87-2.21c-0.56-8.62-0.94-17.26-2.4-25.81c-0.4-2.32-2.15-5.13-0.8-6.83c1.15-1.46,4.2-1.39,6.4-2.06
		c8.29-2.52,16.14-6.05,23.56-10.51c3.25-1.95,3.28-1.95,4.05,1.85c1.32,6.49,1.18,13.11,1.66,19.68c0.43,5.97,0.61,11.96,0.9,17.94
		C190.4,130.45,189.54,131.25,188.14,131.63z"/>
	<path class="st1" d="M84.82,61c-1.07-0.44-2.16-0.42-3.25,0.06c-1.64,0.73-2.77,1.91-3.51,3.56c-0.32,0.72-0.21,1.71-1.1,2.16
		c-1.69-3.12-4.3-3.51-6.79-1.08c-0.94,0.92-1.44,2.1-1.91,3.3c-0.7,1.79-1.43,3.57-2.15,5.35c-0.48-0.51-0.59-0.91-0.6-1.32
		c-0.03-1.9-0.96-3.08-2.81-3.45c-1.97-0.4-2.54,1.1-2.97,2.49c-0.3,0.95-0.71,1.18-1.64,1.04c-2.59-0.38-3.44,1.15-3.81,3.41
		c-0.45,2.77-0.14,5.64-1.16,8.53c-0.93-1.78-0.86-3.61-1.21-5.34c-0.2-0.96,0.41-2.3-0.76-2.8c-1.3-0.56-1.54,1.02-2.3,1.58
		c-0.35,0.25-0.59,0.67-0.96,0.84c-4,1.9-4.76,5.24-4.36,9.25c0.08,0.82,0.61,2.52-0.84,2.45c-1.12-0.06,0.3-1.38-0.1-2.13
		c-0.07-0.13-0.02-0.33-0.01-0.51c0.06-1.21-0.08-2.29-1.63-2.37c-1.44-0.07-2.02,0.78-2.05,2.07c-0.02,0.88-0.3,1.4-1.22,1.67
		c-2.43,0.74-2.7,2.6-2.28,4.73c0.23,1.18,0.78,2.36-0.15,3.74c-0.4-0.73-0.7-1.24-0.96-1.76c-0.33-0.69-0.53-1.59-1.47-1.58
		c-1.04,0.01-1.46,0.83-1.56,1.74c-0.09,0.88-0.64,1.33-1.27,1.81c-1.39,1.06-1.96,2.48-1.97,4.25c-0.01,3.05,1.14,5.87,1.52,8.84
		c0.12,0.39,0.31,0.78-0.04,1.15c-0.15-0.26-0.31-0.53-0.46-0.8c-0.79-1.41-1.59-2.81-2.38-4.22c-0.37-0.65-0.63-1.56-1.59-1.29
		c-0.81,0.23-1.12,0.96-1.08,1.84c0.05,0.9-0.24,1.79-0.97,2.28c-1.12,0.74-1.1,1.75-1.18,2.89c-0.2,2.58,0.65,5.06,0.6,7.65
		c-0.44-0.49-0.71-1-0.83-1.55c-0.25-1.09-0.91-1.69-2-1.58c-1.33,0.14-1.14,1.25-1.19,2.18c-0.04,0.77,0.15,1.81-0.27,2.25
		c-2.85,3.01-0.54,5.52,0.66,8.12c0.36,0.77,0.92,1.58,1.93,1.44c1.44-0.2,0.14-1.47,0.7-2.31c0.39,0.46,0.65,0.77,0.92,1.07
		c0.73,0.81,0.92,2.73,2.43,1.99c1.3-0.64,0.88-2.25,0.53-3.51c-0.11-0.41-0.17-0.91-0.44-1.2c-1.69-1.87-0.41-3.3,0.76-4.6
		c1.6-1.77,4.87-2.19,4.37-5.6c-0.01-0.05,0.11-0.13,0.19-0.15c2.6-1.01,2.4-2.98,1.79-5.12c-0.44-1.54,0.2-2.27,1.77-2.32
		c0.64-0.02,1.29-0.14,2.01-0.23c0,1.71,0.02,3.33-0.01,4.96c-0.02,1.51,0.43,2.87,1.3,4.09c0.67,0.94,1.64,1.24,2.73,1
		c0.91-0.2,1.64-0.8,1.67-1.73c0.09-2.2,0.67-4.48-0.4-6.58c-1.99-3.89-2.82-8.07-3.08-12.38c-0.08-1.29-1.32-2.61-0.14-3.98
		c0.24,0.13,0.48,0.18,0.52,0.28c0.62,2.13,1.22,4.27,1.82,6.41c2.17-1.19,2.39-1.6,2.4-4.55c0.01-3.28,0.97-4.51,4.3-4.64
		c2.1-0.08,3.47-0.67,3.98-2.78c0.13-0.58,0.54-0.87,1.12-0.86c2.69,0.06,3.15-1.89,3.48-3.92c0.4-2.41,0.77-4.81,1.15-7.22
		c0.14,0.02,0.29,0.03,0.44,0.04v7.68c5.27-2.25,3.07-7.43,4.88-11.03c0.55,2.26-0.29,5.26,2.82,5.55c3.36,0.31,2.74-3.24,3.94-5.06
		c1.85,1.04,3.66,1.63,5.66,0.64c1.98-0.97,2.66-2.93,3.52-4.74c3.97,2.3,5.7,2.13,7.95-0.69c0.7-0.88,1.2-1.86,1.6-2.91
		C88.1,65.74,86.57,61.71,84.82,61z M24.37,114.35c-0.25-0.48-0.53-0.99,0.06-1.29c0.54-0.28,0.94,0.24,1.23,0.63
		c1.13,1.5,1.86,3.17,2.08,5.38C25.78,117.62,25.18,115.92,24.37,114.35z M33.6,107.43c-1.58-1.68-2.32-3.35-2.79-5.16
		c-0.13-0.5-0.12-1.07,0.5-1.25c0.5-0.14,0.73,0.3,0.92,0.68C33.07,103.38,34.35,104.96,33.6,107.43z M38.48,112.58
		c0.43,1.31,0.87,2.63,1.42,4.3C38.25,115.6,38.08,115.15,38.48,112.58z M49.17,88.23c-0.01,0.44-0.1,0.88-0.63,0.91
		c-0.47,0.03-0.74-0.29-0.87-0.75c-0.13-0.49-0.3-0.97-0.47-1.44c-0.47-1.32-0.56-2.64,0.19-3.89c0.07-0.12,0.52-0.18,0.63-0.08
		c1.11,1,1.11,2.38,1.15,3.52C49.17,87.22,49.18,87.72,49.17,88.23z M74.44,72.56c-0.28,0.64-0.69,1.24-1.53,0.97
		c-0.59-0.2-0.87-0.64-0.99-1.32c-0.64-3.38-0.04-3.94,4.01-3.41C75.43,70.08,74.96,71.33,74.44,72.56z M81.62,70
		c0.48-1.39,1.52-1.8,2.75-2.58C84.04,69.19,83.26,69.9,81.62,70z"/>
	<path class="st1" d="M136.11,56.45c-0.03,0.02-0.06,0.03-0.08,0.05c0.03,0,0.07-0.01,0.1-0.02
		C136.12,56.47,136.11,56.46,136.11,56.45z"/>
	<path class="st1" d="M157.32,41.14c-0.55-0.79-1.56-0.48-2.39-0.51c-1.26-0.04-1.69,0.92-2.21,1.83c-1.44,2.53-2.95,5.01-4.4,7.53
		c-0.49,0.86-0.95,1.58-2.17,1.33c-3.16-0.62-5.39,0.99-7.45,3.12c-0.65,0.68-1.01,1.81-2.57,2.04c-0.03,0.01-0.07,0.02-0.1,0.02
		h-0.01c-0.07,0.01-0.13,0.02-0.2,0.02c3.07-5.74,5.97-11.17,8.93-16.7c-3.06-0.5-4.81,0.57-5.92,3.19
		c-1.6,3.77-3.76,7.24-6.7,11.12c0.2-1.84,0.03-3.57-1.38-3.02c-1.99,0.79-3.79,0.81-5.79,0.49c-0.73-0.12-1.33,0.72-1.82,1.3
		c-0.97,1.15-1.9,2.35-2.92,3.64c-0.98-1.33-1.05-3.2-3.02-3.59c-1.7-0.33-2.95,1.21-4.9,0.97c1.48-3.85,2.9-7.51,4.28-11.18
		c0.45-1.2,0.93-2.18,2.52-2c0.81,0.09,1.23-0.54,1.23-1.33c0-0.91,0.3-2.02-1.04-2.28c-1.27-0.24-2.6-0.44-3.28,1.14
		c-1.13,2.58-2.34,5.14-3.38,7.75c-1.17,2.92-2.19,5.88-3.28,8.83c-0.24-0.03-0.47-0.06-0.71-0.09c0.21-3.92-0.97-7.85,0.58-11.74
		c0.37-0.92,0.75-1.78-0.2-2.55c-0.51-0.41-1.2-0.5-1.64-0.03c-0.44,0.47-0.72,1.14-0.96,1.77c-1.67,4.24-3.31,8.49-4.96,12.73
		c-0.78-3.17-1.08-6.26,0-9.3c0.34-0.97,0.61-1.91-0.63-2.33c-1.27-0.43-1.84,0.36-2.22,1.48c-0.54,1.62-1.07,3.27-2.68,4.22
		c-2.67-3.91-5.2-3.7-7.32,0.5c-0.95,1.89-1.47,3.83-1.33,5.94c0.05,0.69-0.5,1.67,0.81,1.72c1.05,0.03,1.18-0.81,1.33-1.58
		c0.33-1.8,0.32-3.72,1.75-5.19c2.39,2.8,2.39,2.8,5.74,2.56c-0.74,5.04,0.1,10.11-0.78,15.13c-0.12,0.7-0.6,1.61,0.47,1.97
		c1.07,0.36,1.75-0.2,2.29-1.12c1.71-2.89,2.91-5.99,3.94-9.18c0.26-0.81,0.37-1.7,1.24-2.59c0.53,2.92-0.06,5.44-0.16,7.96
		c-0.04,0.76-0.76,1.81,0.33,2.29c1.14,0.51,1.74-0.57,2.24-1.28c1.15-1.62,2.14-3.35,3.33-5.26c0.31,0.68,0.49,1.06,0.65,1.44
		c1.4,3.31,3.18,3.68,5.82,1.37c1.34-1.17,2.89-2.13,4.34-3.18c0.23-0.16,0.39-0.58,0.75-0.3c0.36,0.27,0.02,0.55-0.09,0.8
		c-0.99,1.98-0.43,2.55,1.72,2.09c1.63-0.35,2.43-1.41,3.2-2.69c0.72-1.2,4.28-1.04,4.87,0.16c1.01,2.03,2.67,2.53,4.48,1.19
		c0.87-0.64,1.49-1.6,2.9-3.15c-0.69,3.43,0.93,3.4,2.69,3.26c0.94-0.08,1.99-0.27,2.81,0.05c3.2,1.24,4.96-0.89,6.85-2.73
		c0.69-0.67,1.25-1.52,0.89-2.53c-0.42-1.2-1.52,0.08-2.42-0.67c2.46-4.23,4.95-8.51,7.41-12.79
		C157.04,42.57,157.85,41.91,157.32,41.14z M117.09,56.64c-0.52,2.12-1.01,4.29-3.37,5.77c0.15-2.5,1.03-4.4,2.05-6.24
		c0.14-0.25,0.56-0.59,0.75-0.54C116.93,55.74,117.21,56.19,117.09,56.64z M141.83,59.25c0.2-2.74,1.14-4.4,3.84-5.35
		C144.7,56.07,143.76,57.74,141.83,59.25z"/>
	<path class="st1" d="M24.59,161.48c-1.71,0.03-3.33-0.21-3.21-2.61c0.12-2.51,2.04-2.3,3.56-2.18c2.88,0.22,3.89-0.97,2.86-3.72
		c-0.97-2.6-2.82-4.45-5.06-5.97c-0.22-0.01-0.44-0.02-0.65-0.03c0.07,0.19,0.14,0.37,0.22,0.55c0.27,1.25,2.47,2.55,0.52,3.68
		c-1.68,0.98-2.29-1.15-3.19-2.15c-0.22-0.25-0.49-0.58-0.5-0.88c-0.17-4.6-4.02-6.56-6.67-9.4c-1.28-1.37-2.45-2.84-3.75-4.36
		c-1.2,1.67-1.84,3.57-2.49,5.47c-0.35,1.23-0.81,2.43-1.03,3.68c-0.77,4.63,1.64,9.62,5.47,11.45c1.26,0.61,2.53,1.06,3.79-0.09
		c1.29-1.17,1.2-2.55,0.61-3.98c-1.41-3.41-3.63-6.14-6.83-8.03c-1.06-0.63-2.09-1.26-1.69-2.77c5.65-1.51,12.79,6.99,12.43,12.42
		c-0.25,3.8-3.74,6.3-7.71,5.45c-4.67-1-8.46-5.61-8.89-10.76c-0.32-3.81,0.16-7.53,1.24-11.17c1.21-4.1,2.53-8.17,3.78-12.26
		c0.28-0.92,0.47-1.91,1.77-1.74c1.35,0.18,1.54,1.14,1.49,2.27c-0.03,0.86,0.2,1.77-0.04,2.57c-1.37,4.67,1.69,7.01,4.79,9.34
		c0.74,0.56,1.54,1.04,2.38,1.61c0.96-1.06,0.21-2,0.01-2.91c-0.13-0.62-0.86-1.24-0.01-1.81c0.69-0.46,1.47-0.48,2.16,0.05
		c2.17,1.67,4.37,3.31,6.47,5.06c1.01,0.84,1.22,2.08,0.69,3.29c-0.77,1.75-2.31,0.07-3.51,0.69c1.42,1.32,2.85,2.5,4.12,3.84
		c1.92,2.06,2.95,4.62,3.48,7.33C31.98,157.42,28.72,161.4,24.59,161.48z"/>
	<path class="st1" d="M203.42,36.48c-8.42,0.05-14.51,6.38-14.72,14.91c-0.18,7.22,6.25,15.48,14.82,14.64
		c8.55,0.95,15.2-6.91,15.18-14.58C218.67,42.85,212.1,36.44,203.42,36.48z M203.77,62.33c-6.31-0.03-11.39-5.11-11.24-11.26
		c0.14-5.85,5.35-10.85,11.24-10.79c5.66,0.06,11.11,5.36,11.05,10.76C214.76,57.11,209.63,62.35,203.77,62.33z"/>
	<path class="st1" d="M193.1,89.36c0-0.2,0-0.4,0.01-0.6c0.15,0.09,0.31,0.18,0.46,0.26C193.41,89.14,193.25,89.25,193.1,89.36z"/>
	<path class="st1" d="M136.12,56.48c-0.03,0.01-0.07,0.02-0.1,0.02c0.03-0.02,0.06-0.03,0.08-0.05
		C136.11,56.46,136.12,56.47,136.12,56.48z"/>
	<path class="st1" d="M22.3,147.5c-0.07-0.18-0.15-0.37-0.22-0.55c0.22,0.01,0.44,0.02,0.66,0.03
		C22.59,147.16,22.44,147.33,22.3,147.5z"/>
	<path class="st1" d="M209.53,55.63c-0.42-2.44-0.93-4.76-0.11-7.3c0.65-2.02-0.89-3.58-3.29-3.98c-6.53-1.09-7.09-0.63-7.09,5.88
		v1.03c0,1.55,0.08,3.09-0.02,4.63c-0.09,1.49,0.16,2.57,1.95,2.54c1.71-0.03,1.69-1.21,1.82-2.49c0.11-1.1-1.06-2.98,0.95-3.16
		c1.98-0.18,1.37,1.99,1.92,3.1c0.17,0.34,0.03,0.84,0.02,1.27c-0.02,0.9,0.5,1.1,1.3,1.19C209.31,58.57,209.94,58.03,209.53,55.63z
		 M203.91,49.96c-0.85,0.01-1.25-0.4-1.17-1.27c0.07-0.72-0.21-1.63,0.95-1.74c1.01,0.11,1.58,0.67,1.66,1.65
		C205.44,49.61,204.8,49.94,203.91,49.96z"/>
</g>
</svg>
