<?xml version="1.0" encoding="utf-8"?>
<!-- Generator: Adobe Illustrator 28.1.0, SVG Export Plug-In . SVG Version: 6.00 Build 0)  -->
<svg version="1.1" id="Layer_1" xmlns="http://www.w3.org/2000/svg" xmlns:xlink="http://www.w3.org/1999/xlink" x="0px" y="0px"
	 viewBox="0 0 250 250" style="enable-background:new 0 0 250 250;" xml:space="preserve">
<style type="text/css">
	.st0{fill:#FFFFFF;}
	.st1{fill:#282828;}
</style>
<path class="st0" d="M0,250V88.09C0,39.44,39.44,0,88.09,0H250v161.91c0,48.65-39.44,88.09-88.09,88.09H0z"/>
<g>
	<path class="st1" d="M131.15,77.57c0,0.76,0,1.37,0,1.98c0,8.11-0.02,16.22,0.02,24.32c0.01,1.02-0.16,1.47-1.29,1.39
		c-1.37-0.1-2.75-0.08-4.13-0.01c-0.94,0.05-1.23-0.25-1.19-1.21c0.07-2.24,0.02-4.49,0.02-6.73c0-10.2,0.02-20.4-0.02-30.6
		c-0.01-1.18,0.32-1.45,1.51-1.56c2.52-0.23,4.15,0.61,5.75,2.67c6.35,8.17,12.92,16.16,19.42,24.21c0.31,0.38,0.65,0.74,1.22,1.37
		c0-0.89,0-1.48,0-2.07c0-8.21,0.02-16.42-0.03-24.63c-0.01-1.15,0.23-1.64,1.48-1.53c1.26,0.12,2.55,0.09,3.82,0
		c1.03-0.08,1.3,0.28,1.29,1.28c-0.05,3.62-0.01,7.24-0.01,10.86c0,8.67-0.03,17.34,0.03,26.01c0.01,1.45-0.23,1.92-1.85,1.99
		c-2.32,0.1-3.77-0.67-5.22-2.5c-6.45-8.15-13.07-16.17-19.64-24.23C132.06,78.25,131.87,77.8,131.15,77.57z"/>
	<path class="st1" d="M63.92,90.99c1.15-0.19,2.01-0.28,2.83-0.49c6.24-1.56,10.36-7.37,9.76-13.72
		c-0.61-6.46-5.9-11.54-12.45-11.66c-7.13-0.13-14.27,0.01-21.41-0.02c-0.95,0-1.05,0.37-1.05,1.16
		c0.02,12.64,0.02,25.29-0.01,37.93c0,0.76,0.17,1.09,1,1.05c1.42-0.07,2.86-0.09,4.28,0c1.04,0.06,1.26-0.32,1.25-1.29
		c-0.06-3.92,0.02-7.85-0.05-11.78c-0.02-1.09,0.34-1.4,1.39-1.35c1.78,0.08,3.57,0.06,5.35,0c0.9-0.03,1.51,0.26,2.11,0.94
		c3.26,3.71,6.69,7.29,9.81,11.12c1.52,1.86,3.11,2.66,5.45,2.38c1.36-0.17,2.75-0.03,4.44-0.03
		C72.24,100.33,68.18,95.77,63.92,90.99z M58.29,85.54c-0.65-0.01-1.29-0.01-1.94-0.01c-1.3,0-2.6-0.01-3.9-0.01
		c-0.56,0-1.12,0-1.69,0.01c-0.48,0.01-0.96,0.02-1.44,0.02c-0.88,0.02-1.26-0.16-1.25-1.16c0.06-4.02,0.05-8.04,0.01-12.06
		c-0.01-0.91,0.24-1.24,1.2-1.23c4.63,0.05,9.26-0.02,13.9,0.03c4,0.04,7.22,3.33,7.18,7.23c-0.03,3.82-3.21,7.04-7.13,7.15
		C61.58,85.57,59.93,85.55,58.29,85.54z"/>
	<path class="st1" d="M247.04,85.24c0,6.22-0.03,12.44,0.02,18.67c0.01,1.05-0.23,1.43-1.33,1.34c-1.27-0.11-2.56-0.12-3.82,0.01
		c-1.23,0.12-1.4-0.39-1.38-1.46c0.05-4.64-0.01-9.28,0.05-13.92c0.01-0.99-0.24-1.3-1.26-1.29c-5.71,0.05-11.42,0.05-17.14,0
		c-1.11-0.01-1.34,0.37-1.33,1.39c0.05,4.64-0.01,9.28,0.04,13.92c0.01,1.03-0.22,1.45-1.33,1.35c-1.27-0.11-2.55-0.1-3.82,0
		c-1.15,0.1-1.45-0.26-1.44-1.42c0.05-8.98,0.03-17.95,0.03-26.93c0-3.42,0.07-6.84-0.03-10.25c-0.04-1.28,0.41-1.56,1.56-1.48
		c1.22,0.09,2.45,0.1,3.67,0.01c1.07-0.08,1.39,0.25,1.37,1.34c-0.06,4.84,0.01,9.69-0.05,14.53c-0.01,1.17,0.25,1.55,1.49,1.53
		c5.66-0.07,11.32-0.05,16.98-0.01c1,0.01,1.27-0.27,1.26-1.28c-0.05-4.9,0.01-9.79-0.05-14.69c-0.01-1.13,0.26-1.56,1.43-1.43
		c1.66,0.18,3.89-0.7,4.83,0.33c0.82,0.9,0.24,3.11,0.24,4.73C247.04,75.25,247.04,80.25,247.04,85.24z"/>
	<path class="st1" d="M203.06,128.74c0,3.92,0.18,7.86-0.04,11.77c-0.51,8.92-6.9,14.9-15.85,15.14
		c-5.68,0.16-10.68-1.35-14.57-5.69c-2.77-3.08-3.76-6.85-3.8-10.87c-0.07-7.44,0-14.88-0.05-22.32c-0.01-1.06,0.35-1.3,1.3-1.24
		c1.17,0.07,2.35,0.1,3.51-0.01c1.28-0.11,1.71,0.19,1.7,1.61c-0.09,6.78-0.06,13.56-0.03,20.34c0.01,1.27,0.05,2.56,0.3,3.8
		c1.18,5.78,5.56,8.85,11.81,8.36c5.28-0.41,8.98-4.36,9.22-10c0.13-2.95,0.04-5.91,0.04-8.87c0-4.64,0.04-9.28-0.03-13.91
		c-0.02-1.09,0.3-1.4,1.35-1.33c1.37,0.09,2.75,0.07,4.13,0.01c0.88-0.04,1.11,0.26,1.1,1.12c-0.04,4.03-0.02,8.05-0.02,12.08
		C203.13,128.74,203.09,128.74,203.06,128.74z"/>
	<path class="st1" d="M159.01,142.54c0,3.98-0.03,7.95,0.02,11.93c0.01,0.93-0.25,1.26-1.2,1.2c-1.37-0.08-2.76-0.09-4.13,0
		c-1.07,0.07-1.25-0.37-1.24-1.33c0.04-7.29,0.03-14.58,0.02-21.87c-0.01-5.5-2.86-9.45-7.63-10.63
		c-7.48-1.85-13.43,2.42-13.67,10.1c-0.22,7.28-0.14,14.58-0.04,21.87c0.02,1.63-0.48,2.02-1.96,1.86c-1.11-0.12-2.25-0.09-3.36,0
		c-0.98,0.07-1.19-0.31-1.19-1.22c0.03-7.65-0.09-15.3,0.04-22.94c0.16-9.55,6.86-15.9,16.46-15.97c5.53-0.04,10.36,1.48,14.09,5.72
		c2.92,3.32,3.77,7.36,3.79,11.65C159.02,136.11,159.01,139.33,159.01,142.54z"/>
	<path class="st1" d="M1.56,85.23c0-6.22,0.04-12.44-0.03-18.66c-0.01-1.19,0.34-1.4,1.45-1.4c8.62,0.05,17.23,0.05,25.85,0
		c1.13-0.01,1.56,0.26,1.47,1.43c-0.1,1.22-0.07,2.45-0.01,3.67c0.05,1-0.3,1.29-1.31,1.28c-6.37-0.05-12.75,0.02-19.12-0.06
		c-1.43-0.02-1.79,0.39-1.74,1.78c0.11,2.9,0.13,5.81,0,8.71c-0.07,1.5,0.5,1.71,1.8,1.7c6.27-0.06,12.54,0.01,18.81-0.06
		c1.31-0.02,1.68,0.39,1.56,1.63c-0.1,0.96-0.1,1.94-0.01,2.9c0.11,1.18-0.27,1.55-1.5,1.53c-5.96-0.07-11.93-0.03-17.89-0.03
		c-2.75,0-2.74,0-2.74,2.68c0,3.87-0.03,7.75,0.03,11.62c0.02,0.98-0.19,1.38-1.25,1.3c-1.76-0.13-3.54,0.12-5.3-0.17
		c-0.03-1.73-0.07-3.45-0.07-5.18C1.55,95.02,1.56,90.12,1.56,85.23z"/>
	<path class="st1" d="M1.57,155.65c1.65-3.96,3.2-7.72,4.77-11.47c3.81-9.12,7.63-18.23,11.4-27.37c0.41-0.99,0.87-1.42,1.99-1.34
		c1.77,0.13,3.89-0.52,5.26,0.25c1.38,0.77,1.57,3.06,2.26,4.69c4.77,11.31,9.51,22.63,14.26,33.95c0.15,0.37,0.39,0.72,0.27,1.29
		c-2.16,0-4.34-0.02-6.52,0.01c-0.89,0.01-0.89-0.71-1.1-1.23c-3.21-8.04-6.4-16.09-9.59-24.14c-0.87-2.2-1.75-4.4-2.64-6.65
		c-0.59,0.38-0.64,0.92-0.82,1.37c-3.91,9.79-7.83,19.58-11.69,29.39c-0.38,0.97-0.85,1.32-1.89,1.27
		C5.65,155.58,3.76,155.65,1.57,155.65z"/>
	<path class="st1" d="M38.85,115.5c2.41,0,4.55,0.03,6.68-0.01c0.97-0.02,0.99,0.74,1.21,1.31c3.94,9.89,7.86,19.78,11.78,29.67
		c0.11,0.28,0.25,0.55,0.38,0.85c0.68-0.15,0.63-0.77,0.8-1.19c3.92-9.78,7.83-19.57,11.7-29.37c0.37-0.95,0.81-1.34,1.87-1.28
		c1.92,0.1,3.84,0.03,5.98,0.03c-1.47,3.55-2.85,6.88-4.24,10.21c-3.98,9.54-7.98,19.07-11.93,28.62c-0.41,0.98-0.87,1.45-1.99,1.35
		c-1.32-0.12-2.65-0.1-3.97-0.01c-1.09,0.08-1.6-0.3-2.02-1.32c-4.76-11.48-9.58-22.93-14.38-34.39
		C40.13,118.55,39.54,117.14,38.85,115.5z"/>
	<path class="st1" d="M203.3,95.59c0,2.26,0,4.34,0,6.43c0,0.47-0.04,0.84-0.58,1.09c-7.32,3.39-21.21,3.14-28.21-3.86
		c-10.34-10.33-6.31-27.76,7.64-32.58c6.67-2.3,13.4-2.3,20,0.51c0.88,0.37,1.22,0.85,1.18,1.83c-0.08,1.88-0.02,3.77-0.02,5.61
		c-0.44,0.23-0.64-0.08-0.87-0.24c-5.48-3.94-11.5-4.24-17.63-2.15c-6.1,2.09-9.64,8.09-8.95,14.44c0.71,6.56,5.28,11.3,11.86,12.35
		c5.41,0.86,10.45,0.07,14.97-3.21C202.78,95.73,202.93,95.72,203.3,95.59z"/>
	<path class="st1" d="M230.74,155.64c-5.05,0-10.09-0.03-15.14,0.02c-0.97,0.01-1.37-0.19-1.3-1.24c0.09-1.37,0.06-2.75,0.01-4.13
		c-0.03-0.81,0.26-1.05,1.05-1.04c10.24,0.02,20.49,0.02,30.73,0c0.73,0,0.98,0.22,0.95,0.96c-0.05,1.43-0.07,2.86,0.01,4.28
		c0.05,0.94-0.22,1.2-1.18,1.19C240.83,155.62,235.79,155.64,230.74,155.64z"/>
	<path class="st1" d="M230.74,121.74c-5.04,0-10.09-0.02-15.13,0.02c-0.96,0.01-1.38-0.17-1.3-1.24c0.1-1.32,0.06-2.65,0.01-3.97
		c-0.03-0.76,0.14-1.08,0.99-1.07c10.29,0.03,20.58,0.02,30.87,0c0.67,0,0.89,0.19,0.87,0.86c-0.04,1.43-0.08,2.86,0.01,4.28
		c0.07,0.99-0.29,1.15-1.19,1.14C240.82,121.72,235.78,121.74,230.74,121.74z"/>
	<path class="st1" d="M100.12,65.13c4.54,0,9.08,0.03,13.62-0.03c1.09-0.01,1.45,0.33,1.34,1.38c-0.16,1.61,0.69,3.69-0.34,4.7
		c-0.95,0.94-3.01,0.27-4.58,0.27c-7.8,0.02-15.61-0.01-23.41,0.03c-1.19,0.01-1.82-0.19-1.66-1.56c0.18-1.55-0.65-3.58,0.35-4.55
		c0.91-0.9,2.91-0.23,4.43-0.25C93.28,65.11,96.7,65.13,100.12,65.13z"/>
	<path class="st1" d="M100.07,105.18c-4.53,0-9.06-0.03-13.59,0.02c-1,0.01-1.51-0.17-1.39-1.31c0.19-1.65-0.71-3.81,0.36-4.83
		c0.98-0.94,3.1-0.26,4.72-0.26c7.79-0.02,15.58,0.01,23.37-0.04c1.16-0.01,1.66,0.24,1.55,1.5c-0.13,1.56,0.51,3.66-0.28,4.57
		c-0.91,1.04-3.06,0.31-4.66,0.33C106.79,105.21,103.43,105.18,100.07,105.18z"/>
	<path class="st1" d="M100.13,155.65c-4.59,0-9.17-0.03-13.76,0.02c-1.02,0.01-1.34-0.3-1.28-1.3c0.08-1.22,0.1-2.45,0-3.67
		c-0.09-1.15,0.3-1.48,1.44-1.47c5.1,0.06,10.19,0.02,15.29,0.02c3.92,0,7.85,0.06,11.77-0.04c1.28-0.03,1.59,0.4,1.5,1.56
		c-0.09,1.17-0.08,2.35,0,3.51c0.08,1.06-0.28,1.39-1.36,1.37C109.2,155.61,104.66,155.65,100.13,155.65z"/>
	<path class="st1" d="M230.67,138.55c-5,0-10-0.03-15,0.02c-1.04,0.01-1.46-0.22-1.37-1.33c0.1-1.22,0.07-2.45,0.01-3.67
		c-0.05-0.84,0.29-1.03,1.06-1.03c10.25,0.02,20.5,0.02,30.76,0c0.75,0,0.96,0.2,0.93,0.94c-0.07,1.62,0.53,3.69-0.25,4.75
		c-0.75,1.01-2.94,0.29-4.5,0.31C238.42,138.59,234.54,138.56,230.67,138.55C230.67,138.55,230.67,138.55,230.67,138.55z"/>
	<path class="st1" d="M99.98,121.75c-4.53,0-9.07-0.03-13.6,0.02c-1,0.01-1.35-0.25-1.29-1.27c0.08-1.27,0.08-2.55,0-3.82
		c-0.06-0.94,0.26-1.22,1.2-1.21c3.92,0.05,7.85,0.01,11.77,0.02c5.25,0,10.49,0.04,15.74-0.01c1.02-0.01,1.35,0.27,1.28,1.27
		c-0.08,1.27-0.08,2.55,0,3.82c0.06,0.95-0.27,1.2-1.2,1.19C109.25,121.72,104.61,121.74,99.98,121.75z"/>
	<path class="st1" d="M100.28,82.22c4.48,0,8.97,0.03,13.45-0.03c1.06-0.01,1.47,0.26,1.35,1.35c-0.17,1.49,0.65,3.5-0.35,4.35
		c-0.87,0.74-2.81,0.26-4.28,0.26c-7.95,0.01-15.89-0.02-23.84,0.04c-1.22,0.01-1.61-0.34-1.52-1.54c0.12-1.41-0.44-3.26,0.27-4.13
		c0.75-0.93,2.67-0.27,4.08-0.29C93.05,82.19,96.67,82.22,100.28,82.22z"/>
	<path class="st1" d="M100.07,138.55c-4.54,0-9.08-0.03-13.61,0.02c-1.05,0.01-1.46-0.24-1.37-1.35c0.1-1.11,0.09-2.25,0-3.36
		c-0.09-1.12,0.38-1.33,1.41-1.33c9.07,0.03,18.15,0.03,27.22-0.01c1.05,0,1.48,0.28,1.36,1.37c-0.16,1.5,0.63,3.46-0.33,4.4
		c-0.88,0.87-2.82,0.23-4.28,0.24C107,138.58,103.54,138.56,100.07,138.55z"/>
	<path class="st1" d="M58.29,85.54c-0.65,0-1.29-0.01-1.94-0.01c-1.3,0-2.6-0.01-3.9-0.01c1.3,0,2.6,0.01,3.9,0.01
		C57,85.53,57.64,85.54,58.29,85.54z"/>
</g>
</svg>
