<?xml version="1.0" encoding="utf-8"?>
<!-- Generator: Adobe Illustrator 28.1.0, SVG Export Plug-In . SVG Version: 6.00 Build 0)  -->
<svg version="1.1" id="Layer_1" xmlns="http://www.w3.org/2000/svg" xmlns:xlink="http://www.w3.org/1999/xlink" x="0px" y="0px"
	 viewBox="0 0 250 250" style="enable-background:new 0 0 250 250;" xml:space="preserve">
<style type="text/css">
	.st0{fill:#FFFFFF;}
	.st1{fill:#282828;}
</style>
<path class="st0" d="M0,250V88.09C0,39.44,39.44,0,88.09,0H250v161.91c0,48.65-39.44,88.09-88.09,88.09H0z"/>
<g>
	<path class="st1" d="M164.08,37.84c-5.66,0-11.34,0-17.03,0c-4.06,0-8.12-0.01-12.18,0.02c-1.07,0.01-1.89-0.34-2.63-1.13
		c-1.8-1.91-3.67-3.75-5.49-5.65c-0.51-0.53-0.99-0.64-1.52-0.1c-1.8,1.84-3.63,3.65-5.36,5.56c-0.83,0.91-1.75,1.27-2.94,1.26
		c-5.81-0.01-11.62,0.02-17.43,0.04C96,37.84,92.5,37.85,89,37.84c-0.29,0-0.68,0.18-0.86-0.19c-0.14-0.29,0.16-0.5,0.25-0.75
		c0.58-1.58,1.63-2.34,3.36-2.05c0.3,0.05,0.63-0.04,0.95-0.09c0.81-0.13,1.93,0.34,2.36-0.31c0.39-0.58,0.21-1.62,0.12-2.44
		c-0.21-1.93,0.78-3.24,2.07-4.45c0.74-0.69,1.64-0.71,2.57-0.73c3.37-0.06,3.44-0.07,3.26-3.4c-0.07-1.31,0.28-2.19,1.36-2.9
		c0.86-0.56,1.63-1.27,2.45-1.91c0.18-0.14,0.36-0.38,0.62-0.24c0.25,0.14,0.16,0.42,0.15,0.65c-0.02,2.23-0.01,4.46-0.08,6.69
		c-0.03,0.95,0.24,1.33,1.26,1.33c4.17,0.02,4.16,0.04,7.43-3.3c0.61-0.62,0.78-1.09,0.11-1.78c-2.02-2.09-3.97-4.23-6.01-6.3
		c-0.5-0.51-0.52-0.79,0-1.22c0.3-0.25,0.57-0.56,0.84-0.84c1.2-1.26,1.21-1.28,2.48,0.02c1.84,1.88,3.67,3.75,5.46,5.68
		c0.59,0.64,1.02,0.74,1.64,0.06c0.66-0.74,1.39-1.43,2.12-2.1c0.58-0.53,0.51-0.93-0.03-1.48c-2.01-2.05-4.26-3.82-6.37-5.77
		c-0.52-0.48-0.54-0.77,0-1.21c3.02-2.47,5.82-5.18,8.58-7.93c0.63-0.62,1.01-0.67,1.64-0.03c2.69,2.77,5.58,5.33,8.51,7.83
		c0.79,0.67,0.7,1.08-0.04,1.63c-2.14,1.6-3.99,3.53-6,5.28c-0.76,0.66-0.95,1.16-0.07,1.89c0.67,0.55,1.21,1.26,1.79,1.92
		c0.54,0.62,0.98,0.6,1.57-0.01c2.04-2.13,4.15-4.18,6.16-6.33c0.62-0.66,1.04-0.61,1.5,0.03c0.55,0.77,1.91,1.12,1.81,2.02
		c-0.08,0.74-1.07,1.4-1.71,2.05c-1.47,1.51-2.93,3.04-4.48,4.46c-0.9,0.83-0.92,1.46,0.01,2.19c0.16,0.12,0.28,0.28,0.42,0.43
		c3.22,3.52,2.01,2.85,7.09,2.74c0.93-0.02,1.22-0.42,1.17-1.33c-0.11-2.02-0.13-4.05-0.18-6.08c-0.01-0.35-0.15-0.79,0.23-0.98
		c0.36-0.18,0.66,0.17,0.94,0.36c0.23,0.15,0.4,0.39,0.64,0.53c2.23,1.32,3.36,3.12,2.67,5.81c-0.29,1.13,0.24,1.62,1.4,1.49
		c0.39-0.04,0.81,0.09,1.19,0.03c1.96-0.32,3.26,0.54,4.46,2.05c0.88,1.12,0.85,2.24,0.82,3.47c-0.06,2.49-0.05,2.49,2.45,2.55
		c0.04,0,0.08,0.01,0.12,0C161.76,34.29,163.19,35.65,164.08,37.84z M139.61,34.69c0.79,0,1.59,0.03,2.38-0.01
		c2.87-0.12,2.58,0.55,2.57-2.76c0-0.9-0.42-1.11-1.19-0.98c-1.15,0.2-2.3,0.09-3.45,0.14c-1.17,0.05-2.06-0.39-2.84-1.24
		c-1.29-1.41-2.66-2.74-3.94-4.16c-0.62-0.69-1.08-0.74-1.73-0.05c-0.74,0.78-1.55,1.49-2.37,2.18c-0.54,0.46-0.62,0.85-0.09,1.36
		c0.71,0.69,1.38,1.43,2.08,2.14C134.59,34.95,134.59,34.95,139.61,34.69z M112.47,34.71c0,0.01,0,0.02,0,0.02
		c1.27,0,2.54-0.03,3.81,0.01c0.76,0.02,1.41-0.17,1.94-0.72c1.58-1.62,3.15-3.25,4.74-4.86c0.44-0.45,0.39-0.8-0.02-1.21
		c-0.8-0.78-1.57-1.57-2.37-2.35c-0.6-0.59-1.15-0.51-1.73,0.11c-0.97,1.05-2.1,1.97-2.98,3.08c-1.54,1.95-3.47,2.53-5.87,2.33
		c-2.76-0.22-2.74-0.12-2.61,2.69c0.03,0.68,0.27,0.91,0.92,0.89C109.69,34.69,111.08,34.71,112.47,34.71z M131.76,9.38
		c-0.13-0.2-0.21-0.4-0.35-0.51c-1.79-1.46-3.39-3.12-5.03-4.74c-0.37-0.37-0.62-0.29-0.98,0.07c-1.51,1.52-3.04,3.03-4.62,4.49
		c-0.65,0.6-0.57,0.99,0.04,1.53c1.49,1.31,2.95,2.66,4.4,4.02c0.46,0.43,0.82,0.51,1.32,0.05c1.54-1.43,3.12-2.83,4.67-4.25
		C131.42,9.85,131.56,9.62,131.76,9.38z M150.88,34.67c0.56,0,1.11,0.01,1.67,0c1.92-0.04,2.02-0.16,1.81-2.07
		c-0.02-0.16-0.06-0.31-0.08-0.47c-0.3-2.03-1.21-2.84-3.21-2.86c-0.48,0-0.95-0.01-1.43-0.01c-2.3,0.02-2.02-0.33-2.09,1.99
		C147.45,34.72,147.45,34.72,150.88,34.67z M101.15,34.69c0-0.02,0-0.04,0-0.06c0.83,0,1.67,0,2.5,0c0.6,0,0.86-0.28,0.84-0.88
		c-0.03-1.11-0.03-2.22-0.05-3.33c-0.01-0.65-0.31-1-1-1.08c-1.19-0.14-2.37-0.14-3.56-0.09c-0.59,0.03-1.02,0.37-1.36,0.85
		c-0.58,0.81-0.76,1.73-0.81,2.69c-0.08,1.81,0.01,1.9,1.78,1.9C100.04,34.69,100.59,34.69,101.15,34.69z M128.9,22.17
		c-0.04-0.08-0.08-0.24-0.18-0.35c-0.71-0.8-1.42-1.59-2.16-2.36c-0.35-0.36-0.72-0.39-1.11,0.03c-0.62,0.67-1.25,1.34-1.93,1.94
		c-0.7,0.62-0.71,1.07,0.02,1.71c2.5,2.19,2.48,2.21,4.86-0.1C128.63,22.81,128.88,22.61,128.9,22.17z"/>
	<path class="st1" d="M87.83,114.69c-1.02-0.4-1.73-1.25-2.6-1.86c-0.44-0.31-0.51-0.86-0.52-1.4c-0.01-1.15-0.1-2.3-0.11-3.45
		c-0.01-0.8-0.4-1.02-1.13-0.96c-0.63,0.05-1.27-0.01-1.91,0.03c-1.28,0.09-2.24-0.46-3.23-1.25c-1.7-1.35-2.18-3.01-1.85-5.07
		c0.27-1.66,0.04-1.88-1.61-1.88c-3.88,0-3.88,0-6.28-3.08c-0.14-0.19-0.36-0.36-0.2-0.62c0.14-0.24,0.42-0.17,0.65-0.18
		c2.15-0.08,4.29-0.17,6.44-0.2c0.81-0.01,1.09-0.23,1.28-1.11c0.67-3.03-0.24-5.28-2.64-7.23c-1.81-1.47-1.71-1.63-3.41,0.04
		c-1.76,1.73-3.52,3.46-5.23,5.24c-0.49,0.5-0.78,0.6-1.35,0.1c-2.19-1.89-2.21-1.87-0.18-3.89c1.66-1.66,3.29-3.35,4.98-4.98
		c0.77-0.74,0.69-1.33-0.05-1.99c-0.5-0.45-0.98-0.93-1.46-1.4c-1.01-0.98-1.21-1.01-2.21,0.05c-1.72,1.82-3.44,3.65-5.09,5.53
		c-0.72,0.82-1.2,0.85-1.95,0.03c-2.29-2.54-4.66-5-6.97-7.52c-1.18-1.29-1.16-1.55,0.06-2.89c2.38-2.62,4.8-5.21,7.16-7.84
		c0.59-0.65,0.95-0.46,1.43,0.08c1.87,2.11,3.78,4.19,5.64,6.32c0.49,0.57,0.79,0.77,1.37,0.07c0.77-0.95,1.81-1.66,2.55-2.67
		c0.31-0.42,0.33-0.66-0.08-1.03c-2.22-2.04-4.39-4.13-6.61-6.17c-0.55-0.51-0.63-0.88-0.06-1.47c1.95-2.01,1.92-2.02,3.89-0.05
		c1.66,1.66,3.36,3.27,5.02,4.93c0.61,0.61,1.07,0.62,1.66-0.07c0.8-0.93,1.72-1.77,2.59-2.64c0.79-0.78,1.11-1.71,0.94-2.82
		c-0.08-0.51-0.08-1.03-0.1-1.55c-0.06-1.96-0.06-1.97-1.98-1.99c-1.87-0.01-3.74,0-5.61-0.01c-0.34,0-0.68-0.04-1.25-0.08
		c1.12-1.35,2.08-2.54,3.07-3.7c0.51-0.59,1.18-0.62,1.95-0.61c4.35,0.08,3.45,0.55,3.56-3.29c0.07-2.44,2.06-4.61,4.52-4.76
		c0.83-0.05,1.69-0.16,2.5-0.03c1.06,0.17,1.23-0.36,1.23-1.18c0.01-0.95,0.02-1.91,0.05-2.86c0.04-1.22,0.98-2.42,2.1-2.81
		c0.63-0.22,0.7,0.28,0.75,0.6c0.08,0.54,0.02,1.11,0.02,1.67c-0.01,8.75-0.05,17.51-0.01,26.26c0.01,1.36-0.47,2.3-1.45,3.19
		c-1.85,1.68-3.58,3.51-5.41,5.22c-0.69,0.64-0.6,1.09,0,1.67c1.86,1.79,3.7,3.61,5.57,5.39c0.93,0.88,1.28,1.9,1.28,3.19
		c-0.04,8.75-0.02,17.51-0.01,26.26c0,0.91-0.12,1.84,0.27,2.71L87.83,114.69z M82.48,95.1c2.02-0.02,1.99-0.02,2.03-1.98
		c0.05-2.3-0.12-4.61,0.19-6.91c0.06-0.44,0.03-0.9-0.26-1.26c-1.7-2.11-3.6-4.03-5.53-5.93c-0.33-0.32-0.75-0.5-1.13-0.02
		c-0.72,0.9-1.77,1.44-2.45,2.41c-0.53,0.76-0.61,1.3,0.08,1.96c0.95,0.91,1.8,1.92,2.78,2.78c2.05,1.81,2.89,4.01,2.41,6.71
		c-0.07,0.39-0.16,0.78-0.19,1.17c-0.05,0.61,0.23,1,0.86,1.05C81.68,95.13,82.08,95.1,82.48,95.1z M84.5,62.82
		c0-0.75,0-1.51,0-2.26c-0.01-2.94-0.01-2.9-2.91-2.74c-0.91,0.05-1.19,0.44-1.14,1.26c0.07,1.39,0.1,2.78,0.22,4.16
		c0.06,0.68-0.18,1.08-0.68,1.52c-1.46,1.29-2.87,2.62-4.26,3.98c-1.31,1.28-1.29,1.37-0.04,2.65c0.39,0.4,0.78,0.79,1.17,1.19
		c1.44,1.46,1.44,1.46,2.87,0.07C84.53,67.98,84.53,67.98,84.5,62.82z M59.17,70.31c-0.16,0.11-0.31,0.18-0.4,0.29
		c-1.47,1.82-3.26,3.34-4.87,5.02c-0.4,0.42-0.36,0.83,0.04,1.25c1.48,1.55,2.96,3.1,4.41,4.67c0.55,0.59,0.96,0.5,1.45-0.07
		c1.33-1.52,2.69-3.02,4.05-4.52c0.58-0.64,0.43-1.2-0.1-1.77c-1.35-1.45-2.68-2.92-4.03-4.38C59.56,70.64,59.38,70.49,59.17,70.31z
		 M81.97,97.9c-0.32,0-0.64,0.01-0.95,0c-2.25-0.06-2,0.24-2.19,1.87c-0.42,3.69,0.62,4.93,4.28,4.89c1.37-0.01,1.66-0.33,1.57-1.7
		c-0.05-0.83-0.11-1.66-0.12-2.5C84.52,97.9,84.53,97.89,81.97,97.9z M84.48,51.35c0.01-3.38-0.5-3.83-3.51-3.06
		c-1.76,0.45-1.99,0.73-2.01,2.53c-0.01,0.6-0.02,1.19-0.01,1.79c0.06,2.41-0.31,2.13,2.19,2.12C84.46,54.7,84.46,54.69,84.48,51.35
		z M72.08,79.32c0.07-0.03,0.2-0.06,0.27-0.14c0.83-0.85,1.82-1.66,2.22-2.75c0.34-0.91-0.78-1.44-1.26-2.13
		c-0.09-0.13-0.15-0.28-0.25-0.39c-0.66-0.75-1.31-0.89-2.04-0.03c-0.51,0.6-1.13,1.12-1.68,1.69c-0.54,0.55-0.59,1.07,0.06,1.61
		c0.67,0.56,1.3,1.17,1.94,1.76C71.54,79.11,71.71,79.34,72.08,79.32z"/>
	<path class="st1" d="M87.82,114.7c1.24,0.41,2.52,0.3,3.79,0.3c8.56,0,17.11-0.01,25.67-0.06c1.11-0.01,1.8,0.38,2.53,1.19
		c1.76,1.95,3.66,3.77,5.5,5.64c0.54,0.55,0.92,0.44,1.46-0.13c1.77-1.88,3.62-3.69,5.44-5.53c0.8-0.81,1.76-1.14,2.9-1.14
		c9.31,0.01,18.62,0,27.94,0.01c0.3,0,0.7-0.16,0.86,0.21c0.15,0.34-0.25,0.54-0.37,0.81c-1.06,2.3-3.22,1.79-5.07,1.93
		c-2.14,0.16-2.15,0.09-2.08,2.26c0.01,0.44,0.06,0.87,0.14,1.3c0.17,0.91-0.19,1.55-0.77,2.25c-1.41,1.72-3.19,2.12-5.3,1.97
		c-1.85-0.13-2.05,0-1.74,1.8c0.41,2.39-0.1,4.17-2.31,5.35c-0.64,0.34-1.03,1.48-1.75,1.16c-0.54-0.24-0.19-1.31-0.22-2.01
		c-0.07-1.75-0.13-3.5-0.14-5.24c-0.01-0.77-0.37-1.08-1.08-1.09c-1.27-0.02-2.55-0.04-3.82-0.07c-0.42-0.01-0.77,0.12-1.06,0.44
		c-1.02,1.11-2.03,2.23-3.08,3.32c-0.55,0.57-0.42,0.99,0.1,1.5c2.01,1.99,3.96,4.03,5.98,6c0.66,0.64,0.75,1.05,0,1.7
		c-1.84,1.6-1.78,1.6-3.61-0.1c-1.78-1.65-3.46-3.4-5.09-5.19c-0.62-0.68-1.07-0.79-1.7-0.02c-0.6,0.74-1.31,1.39-1.98,2.07
		c-0.59,0.6-0.57,1.08,0.08,1.69c1.99,1.89,4.02,3.73,6.15,5.46c0.68,0.55,0.73,0.94,0.05,1.47c-3.05,2.39-5.69,5.21-8.48,7.87
		c-0.55,0.52-0.91,0.57-1.48,0.04c-2.91-2.71-5.85-5.38-8.78-8.07c-0.56-0.51-0.25-0.87,0.18-1.27c1.93-1.78,3.85-3.57,5.75-5.39
		c1.09-1.04,1.06-1.21,0.03-2.32c-0.46-0.5-0.92-0.99-1.34-1.52c-0.62-0.79-1.14-0.91-1.9-0.1c-1.99,2.11-4.07,4.14-6.08,6.23
		c-0.6,0.62-0.99,0.68-1.63,0.01c-1.68-1.77-1.71-1.74-0.04-3.51c1.5-1.59,3-3.18,4.49-4.79c1.1-1.2,1.12-1.38,0.04-2.57
		c-0.75-0.82-1.58-1.56-2.37-2.34c-0.46-0.45-1.02-0.58-1.64-0.58c-1.11,0.01-2.23,0.04-3.34-0.02c-0.86-0.05-1.11,0.31-1.09,1.11
		c0.04,2.11,0.03,4.22,0.02,6.33c0,0.42,0.12,0.86-0.17,1.4c-1.4-1.2-2.95-2.16-4.12-3.55c-0.26-0.31-0.36-0.71-0.33-1.12
		c0.04-0.59,0.07-1.19,0.14-1.78c0.22-2,0.13-2.05-1.84-2.2c-1.25-0.09-2.6,0.17-3.7-0.64c-1.42-1.04-2.29-2.41-2.3-4.24
		c0-0.68-0.05-1.35-0.04-2.03c0.01-0.66-0.29-0.91-0.94-0.93c-1.19-0.04-2.38-0.18-3.57-0.19c-0.77,0-1.29-0.25-1.59-0.98
		c-0.31-0.78-1.04-1.3-1.29-2.12C87.83,114.69,87.82,114.7,87.82,114.7z M139.41,118.06c0-0.03,0-0.06,0-0.09
		c-1.35,0-2.71,0.01-4.06,0c-0.54,0-1.02,0.1-1.44,0.45c-1.84,1.53-3.46,3.28-5.17,4.95c-0.4,0.39-0.58,0.88-0.07,1.35
		c0.87,0.81,1.77,1.6,2.63,2.43c0.56,0.53,1.05,0.6,1.62,0.01c0.83-0.86,1.89-1.54,2.53-2.51c1.63-2.47,3.85-3.02,6.66-2.83
		c2.71,0.19,2.54,0.69,2.56-2.57c0-0.91-0.38-1.2-1.2-1.19C142.12,118.08,140.76,118.06,139.41,118.06z M112.54,118.04
		c0,0.01,0,0.02,0,0.02c-0.84,0-1.67,0-2.51,0c-3.05,0.01-2.57-0.34-2.65,2.69c-0.02,0.82,0.27,1.15,1.11,1.13
		c1.39-0.05,2.79,0.01,4.18-0.05c0.74-0.03,1.3,0.21,1.79,0.74c1.42,1.51,2.86,2.99,4.27,4.49c0.46,0.49,0.89,0.8,1.5,0.23
		c0.84-0.78,1.68-1.58,2.57-2.31c0.74-0.61,0.67-1.19,0.06-1.8c-1.12-1.13-2.3-2.2-3.38-3.36c-1.45-1.55-3.21-2.06-5.27-1.79
		C113.66,118.1,113.1,118.04,112.54,118.04z M126.09,138.08c-0.41-0.02-0.58,0.16-0.75,0.32c-1.55,1.42-3.1,2.84-4.65,4.27
		c-0.56,0.51-0.39,0.97,0.11,1.4c1.57,1.35,3.03,2.81,4.43,4.33c0.46,0.5,0.86,0.59,1.39,0.04c1.5-1.54,3.01-3.06,4.56-4.54
		c0.61-0.59,0.58-1-0.05-1.54c-1.44-1.24-2.85-2.53-4.25-3.82C126.59,138.3,126.32,138.09,126.09,138.08z M150.94,118.05
		C150.94,118.05,150.94,118.05,150.94,118.05c-0.16,0-0.32,0-0.48,0c-2.95-0.01-2.95-0.01-2.93,2.96c0.02,2.78,0.02,2.8,2.75,2.79
		c0.78,0,1.6,0.24,2.33-0.24c1.32-0.87,2.15-3.07,1.79-4.65c-0.14-0.59-0.44-0.89-1.08-0.86
		C152.53,118.07,151.74,118.05,150.94,118.05z M100.35,118.01c-3.12-0.02-3.14,0-2.56,3.15c0.03,0.16,0.04,0.32,0.08,0.47
		c0.39,1.4,1.3,2.13,2.77,2.12c0.87-0.01,1.73-0.17,2.6-0.17c0.82,0,1.18-0.41,1.22-1.13c0.07-1.15,0.06-2.3,0.1-3.44
		c0.02-0.65-0.34-0.79-0.9-0.81C102.56,118.16,101.45,118.08,100.35,118.01z M129.11,130.3c-0.09-0.17-0.13-0.33-0.24-0.43
		c-0.8-0.71-1.58-1.43-2.42-2.1c-0.33-0.26-0.82-0.24-1.11,0.04c-0.62,0.61-1.4,1.01-1.96,1.71c-0.56,0.7-0.55,1.16,0.08,1.82
		c2.6,2.75,2.63,2.76,5.12-0.24C128.78,130.86,128.92,130.58,129.11,130.3z"/>
	<path class="st1" d="M164.42,38.32c2.38,0.76,2.94,1.52,2.92,3.97c-0.02,3.19-0.02,3.19,3.17,3.13c2.62-0.05,5.04,2.4,4.97,5.04
		c-0.07,3.08-0.07,3.17,2.96,3.03c1.49-0.07,2.52,0.37,3.34,1.57c0.45,0.65,1.01,1.23,1.5,1.85c0.18,0.23,0.61,0.41,0.4,0.76
		c-0.18,0.3-0.58,0.15-0.89,0.16c-2.03,0.01-4.06,0.06-6.09-0.03c-0.96-0.04-1.39,0.23-1.4,1.2c-0.01,1.19-0.06,2.39-0.09,3.58
		c-0.02,0.59,0.23,1.09,0.62,1.51c0.98,1.04,1.97,2.07,2.98,3.09c0.5,0.5,0.85,0.23,1.27-0.2c1.96-1.97,3.99-3.89,5.95-5.87
		c0.79-0.79,1.43-0.9,2.12,0.06c0.46,0.64,1.52,0.99,1.49,1.73c-0.02,0.68-1.04,0.98-1.58,1.51c-1.8,1.78-3.62,3.55-5.47,5.29
		c-0.69,0.65-0.54,1.11,0.11,1.65c0.76,0.64,1.53,1.28,2.2,2.01c0.54,0.59,0.85,0.6,1.4-0.02c1.89-2.14,3.86-4.21,5.77-6.35
		c0.52-0.58,0.83-0.67,1.39-0.03c2.55,2.94,5.13,5.86,7.94,8.57c0.4,0.38,0.75,0.68,0.14,1.23c-2.83,2.61-5.4,5.47-7.91,8.38
		c-0.68,0.78-1.13,0.74-1.78-0.01c-1.68-1.95-3.44-3.85-5.13-5.8c-0.49-0.57-0.88-0.81-1.53-0.17c-0.85,0.83-1.78,1.58-2.7,2.34
		c-0.67,0.56-0.25,0.97,0.15,1.37c2.03,2.02,4.04,4.07,6.12,6.04c0.76,0.71,0.84,1.17,0,1.87c-1.78,1.46-1.2,1.84-3.14,0
		c-1.73-1.64-3.46-3.28-5.17-4.95c-0.61-0.59-1.15-0.83-1.81-0.09c-0.21,0.23-0.47,0.43-0.74,0.6c-3.09,1.91-2.79,4.96-2.69,7.95
		c0.02,0.71,0.51,0.69,1,0.68c2.27-0.03,4.54-0.06,6.8-0.09c0.19,0,0.38,0.04,0.84,0.09c-1.13,1.26-2.03,2.53-3.19,3.47
		c-0.75,0.61-1.93,0.31-2.9,0.28c-2.54-0.09-2.54-0.13-2.52,2.43c0,0.36,0.01,0.72,0,1.07c-0.02,2.49-1.81,4.37-4.32,4.56
		c-0.91,0.07-1.82,0.18-2.73,0.22c-0.81,0.03-1.14,0.46-1.14,1.21c0,1.23,0.01,2.47,0,3.7c-0.01,0.63-1.68,2.35-2.25,2.34
		c-0.46-0.01-0.31-0.4-0.31-0.63c0-1.35,0.03-2.71,0.03-4.06c0-7.96,0-15.92-0.04-23.87c-0.01-1.31,0.33-2.32,1.27-3.3
		c1.73-1.81,3.49-3.59,5.28-5.34c0.71-0.7,0.68-1.18-0.06-1.85c-1.57-1.41-3-2.96-4.6-4.34c-1.59-1.37-2.13-3.05-2.09-5.07
		c0.07-4.25,0.09-8.51,0.11-12.76C164.43,48.15,164.42,43.27,164.42,38.32z M169.23,95.12c0.2,0,0.4,0,0.6,0
		c1.6-0.04,1.65-0.09,1.62-1.72c-0.02-1.35-0.01-2.7-0.04-4.05c-0.02-0.85,0.25-1.53,0.88-2.11c1.46-1.34,2.89-2.72,4.36-4.05
		c0.58-0.53,0.69-0.95,0.04-1.55c-0.82-0.75-1.57-1.58-2.3-2.41c-0.5-0.57-0.87-0.66-1.44-0.06c-1.35,1.4-2.72,2.79-4.19,4.06
		c-1.1,0.96-1.46,2.1-1.41,3.48c0.08,2.26,0.14,4.52,0.18,6.78C167.56,95.15,167.55,95.15,169.23,95.12z M171.39,61.43
		c0-0.57,0-0.81,0-1.05c0.06-2.69,0.06-2.67-2.68-2.69c-0.83-0.01-1.1,0.26-1.11,1.09c-0.03,2.74,0.11,5.48-0.21,8.22
		c-0.06,0.55,0.27,0.95,0.63,1.35c1.6,1.77,3.47,3.27,4.91,5.19c0.36,0.47,0.72,0.4,1.08,0.01c0.97-1.05,1.94-2.1,2.92-3.13
		c0.43-0.45,0.37-0.77-0.1-1.17c-1.05-0.91-2.01-1.93-3.1-2.79C171.99,65.05,170.67,63.54,171.39,61.43z M198.22,76.09
		c-0.05-0.1-0.09-0.26-0.19-0.37c-1.65-1.72-3.3-3.44-4.95-5.16c-0.35-0.36-0.59-0.19-0.86,0.14c-1.29,1.51-2.56,3.05-3.93,4.48
		c-0.72,0.75-0.68,1.31-0.04,2.03c1.31,1.49,2.6,3,3.88,4.52c0.42,0.5,0.73,0.46,1.15,0.01c1.49-1.6,3.01-3.17,4.51-4.76
		C198,76.75,198.19,76.49,198.22,76.09z M167.55,101.33c-0.01,0-0.02,0-0.03,0c0,0.2,0,0.4,0,0.59c0.08,3.27-0.58,2.74,2.85,2.74
		c1.29,0,2.56-1.1,2.69-2.39c0.11-1.1,0.05-2.22,0.01-3.32c-0.02-0.56-0.32-0.98-0.96-1.01c-1.18-0.06-2.37-0.11-3.55-0.19
		c-0.71-0.05-1.03,0.24-1.01,0.95C167.56,99.58,167.55,100.45,167.55,101.33z M167.57,51.53c0.01,0,0.01,0,0.02,0
		c0,0.8,0.02,1.59-0.01,2.39c-0.02,0.62,0.26,0.86,0.86,0.84c1.19-0.03,2.39-0.04,3.58-0.03c0.79,0.01,1.06-0.36,1.01-1.11
		c-0.07-1.07-0.15-2.14-0.15-3.21c0-0.82-0.4-1.32-1.04-1.73c-1.24-0.78-2.66-0.89-3.88-0.4c-0.86,0.34-0.25,1.59-0.37,2.42
		C167.53,50.96,167.57,51.25,167.57,51.53z M179.79,79.44c0.16-0.08,0.28-0.11,0.37-0.19c0.98-0.87,1.95-1.75,2.79-2.77
		c0.19-0.23,0.32-0.54,0.08-0.76c-0.96-0.88-1.83-2.07-2.97-2.48c-0.84-0.3-1.46,1.11-2.19,1.76c-0.23,0.21-0.41,0.48-0.59,0.74
		c-0.23,0.33-0.24,0.67,0.01,0.99c0.71,0.9,1.67,1.59,2.26,2.59C179.59,79.4,179.72,79.41,179.79,79.44z"/>
	<path class="st1" d="M174.63,205.84c-0.8,1.12-2.02,1.25-3.12,1.62c-3.67,1.23-7.45,2.01-11.33,2.1
		c-5.46,0.13-10.48-1.53-15.35-3.83c-4.1-1.94-8.02-4.21-11.94-6.47c-0.89-0.51-1.54-0.37-2.3-0.09c-3.54,1.32-7.19,1.43-10.82,0.67
		c-7.36-1.54-11.51-6.28-13.45-13.41c-2.06-7.57,1.62-19.02,11.43-22.15c7.61-2.43,14.86-1.47,20.71,4.33
		c4.47,4.42,5.35,10.16,4.22,16.19c-0.87,4.67-3.28,8.48-7.01,11.43c-1.01,0.8-0.99,0.83,0.23,1.46c4.27,2.21,8.48,4.55,12.9,6.46
		c3.85,1.66,7.86,2.8,12.02,3.41c4.02,0.59,7.93-0.05,11.78-1.17C173.26,206.19,173.94,206.02,174.63,205.84z M138.82,182.09
		c-0.1-2.71-0.49-5.88-1.87-8.79c-2.18-4.59-5.53-7.84-10.8-8.59c-7.18-1.01-12.73,2.32-15.09,9.15c-1.67,4.82-1.3,9.65,0.36,14.4
		c1.07,3.06,2.84,5.68,5.45,7.67c6.11,4.64,14.93,3.48,19.08-2.76C138.07,189.97,138.67,186.33,138.82,182.09z"/>
	<path class="st1" d="M142.26,74.8c0-6.05,0-12.09,0-18.14c0-0.48-0.02-0.96-0.08-1.43c-0.32-2.62-1.23-3.53-3.9-3.89
		c-0.08-0.01-0.16-0.01-0.24-0.03c-0.39-0.12-1.11,0.03-1.06-0.5c0.05-0.59,0.72-0.26,1.1-0.24c4.73,0.28,9.46,0.35,14.18-0.07
		c0.36-0.03,1.03-0.34,1.06,0.31c0.03,0.63-0.62,0.55-1.11,0.56c-2.27,0.06-4.28,1.33-4.31,4.22c-0.04,3.54-0.1,7.08-0.11,10.62
		c-0.04,9.07-0.14,18.14,0.07,27.21c0.04,1.75,0.12,3.49,0.64,5.19c0.51,1.68,0.87,2,2.64,2.23c0.51,0.06,1.39-0.14,1.36,0.56
		c-0.04,0.7-0.9,0.4-1.39,0.39c-8.24-0.21-16.47,0.22-24.7,0.13c-3.62-0.04-3.62-0.04-4.16-3.59c-0.24-1.61-0.49-3.22-0.51-4.86
		c0-0.26-0.08-0.63,0.29-0.69c0.34-0.05,0.44,0.3,0.51,0.56c0.28,1.03,0.51,2.06,1.02,3.03c0.84,1.61,2.08,2.61,3.85,2.88
		c3.68,0.56,7.37,0.65,11.03-0.12c2.24-0.47,3.13-1.55,3.42-3.84c0.39-3.12,0.47-6.26,0.47-9.41c0-3.7,0-7.4,0-11.1
		C142.29,74.8,142.27,74.8,142.26,74.8z"/>
	<path class="st1" d="M70.75,163.87c1.92,0,3.85,0,5.77,0.01c0.3,0,0.64-0.07,0.88,0.2c0.44,0.16,0.12,0.33,0.01,0.49
		c-1.45,0.52-1.81,1-1.82,2.67c-0.07,9.51-0.13,19.02-0.19,28.52c-0.01,1.42,0,2.83,0,4.25c-0.6,0.05-0.82-0.26-1.06-0.49
		c-8.79-8.54-17.08-17.56-25.27-26.67c-0.48-0.53-0.96-1.06-1.47-1.56c-0.2-0.2-0.36-0.64-0.74-0.45c-0.33,0.17-0.17,0.57-0.16,0.87
		c0.13,5.37,0.25,10.74,0.4,16.11c0.07,2.62,0.2,5.25,0.32,7.87c0.11,2.28,0.59,2.86,2.81,3.51c0.42,0.12,0.83,0.25,1.23,0.5
		c-3.45-0.36-6.89-0.41-10.5,0.16c0.44-0.71,0.98-0.59,1.4-0.71c1.53-0.44,2.15-1.11,2.16-2.7c0.05-7.84,0.07-15.67,0.09-23.51
		c0.01-3.26,0-6.51,0-9.9c1.01,0.27,1.5,0.95,2.04,1.53c6.62,7.15,13.24,14.3,19.85,21.46c2,2.16,3.98,4.34,5.98,6.49
		c0.2,0.21,0.37,0.63,0.73,0.48c0.35-0.14,0.23-0.55,0.23-0.85c-0.15-8.11-0.28-16.23-0.47-24.34c-0.03-1.31-0.29-2.66-1.85-3.13
		C70.89,164.45,70.45,164.33,70.75,163.87z"/>
	<path class="st1" d="M108.25,50.84c1.1-0.04,2.21-0.09,3.31-0.13c0.61-0.06,1.08-0.13,1.78-0.15c0.19-0.01,0.38-0.01,0.57-0.02
		c0.35,0.38,0.09,0.61-0.19,0.85c-0.23,0.05-0.45,0.1-0.68,0.15c-0.3,0.09-0.49,0.14-0.79,0.23c-1.59,0.57-1.98,1.82-2.12,3.16
		c-0.37,3.62-0.43,7.27-0.28,10.91c0.23,5.59-0.21,11.19,0.2,16.78c0.28,3.79,0.84,7.52,2.96,10.81c1.57,2.44,3.65,4.28,6.39,5.32
		c0.39,0.15,1.54,2.54,1.37,2.85c-0.18,0.33-0.5,0.17-0.74,0.13c-4.13-0.69-7.89-2.14-10.77-5.37c-3.2-3.59-4.42-7.95-4.67-12.61
		c-0.45-8.19-0.07-16.39-0.21-24.59c-0.02-1.47,0.1-2.95-0.22-4.4c-0.48-2.15-1.8-3.25-4.04-3.36c-0.24-0.01-0.48,0-0.71-0.01
		c-0.27-0.48-0.17-0.73,0.42-0.72c0.74,0.02,1.49,0.01,2.23,0.02c1.03,0.05,2.07,0.11,3.1,0.16
		C106.24,50.86,107.23,50.82,108.25,50.84z"/>
	<path class="st1" d="M173.58,163.96c3.18,0,6.37,0,9.69,0c-0.34,0.53-0.82,0.57-1.24,0.7c-1.09,0.34-1.63,1.08-1.65,2.2
		c-0.05,2.51-0.06,5.01-0.11,7.52c-0.09,4.33,0.24,8.68-0.24,13c-0.26,2.37-0.7,4.71-1.96,6.82c-1.85,3.1-4.68,4.85-8.08,5.65
		c-3.61,0.84-7.21,0.61-10.63-0.93c-4.38-1.97-6.15-5.77-6.82-10.23c-0.3-1.97-0.2-3.97-0.2-5.96c-0.01-4.85-0.01-9.71-0.02-14.56
		c-0.01-2.63-0.76-3.53-3.2-3.84c-0.26-0.03-0.52-0.17-0.75-0.4c3.62,0,7.23,0,10.89,0c-0.47,0.47-0.46,0.5-1.24,0.73
		c-0.96,0.28-1.54,0.88-1.55,1.87c-0.12,7.56-0.48,15.12,0.12,22.66c0.24,3.02,1.66,5.66,4.15,7.65c5.06,4.06,13.51,1.58,15.6-4.55
		c0.93-2.73,1.08-5.53,1.1-8.35c0.04-5.53,0-11.06-0.08-16.59c-0.03-2.22-0.22-2.32-2.4-2.81c-0.48-0.11-0.95-0.24-1.42-0.36
		C173.56,164.1,173.57,164.03,173.58,163.96z"/>
	<path class="st1" d="M10.91,164c-0.46,0.48-1.06,0.53-1.61,0.69c-0.79,0.23-1.21,0.71-1.3,1.51c-0.05,0.43-0.13,0.87-0.14,1.3
		C7.72,173.75,7.5,180,7.81,186.24c0.13,2.75,0.51,5.47,2.02,7.89c2.24,3.58,5.52,5.06,9.64,4.59c4.37-0.49,7.33-2.85,8.65-7.1
		c0.74-2.38,0.9-4.85,0.91-7.32c0.03-5.37,0.03-10.75,0.01-16.12c-0.01-2.78-0.44-3.26-3.18-3.83c-0.27-0.06-0.56-0.08-0.81-0.43
		c3.24,0,6.41,0,9.77,0c-0.37,0.53-0.78,0.62-1.18,0.69c-1.01,0.18-1.52,0.79-1.57,1.8c-0.05,0.99-0.15,1.98-0.17,2.98
		c-0.07,5.45,0.07,10.91-0.23,16.36c-0.12,2.22-0.43,4.43-1.2,6.54c-1.24,3.39-3.62,5.65-6.96,6.91c-4.01,1.51-8.07,1.49-12.02-0.07
		c-5.43-2.15-7.15-6.76-7.51-12.12c-0.39-5.88-0.12-11.78-0.22-17.67c-0.01-0.84-0.07-1.67-0.07-2.51c-0.01-1.33-0.7-2.04-1.97-2.27
		c-0.58-0.1-1.15-0.23-1.73-0.46C3.63,163.72,7.27,164.03,10.91,164z"/>
	<path class="st1" d="M191.51,199.57c0.25-0.09,0.51-0.17,0.76-0.25c1.48-0.46,2.01-1.09,2.12-2.64c0.35-4.65,0.21-9.31,0.22-13.96
		c0.02-4.78-0.01-9.55-0.04-14.33c-0.03-3.31-0.08-3.35-3.31-4.05c-0.15-0.03-0.29-0.08-0.44-0.12c0-0.11,0-0.23,0-0.34
		c0.9,0,1.81,0,2.71,0c5.41-0.02,10.82-0.04,16.24-0.07c0.28,0,0.77-0.15,0.55,0.38c-0.61,1.45-0.44,2.97-0.55,4.47
		c-0.02,0.26,0.09,0.65-0.28,0.68c-0.48,0.04-0.35-0.42-0.42-0.7c-0.15-0.62-0.17-1.31-0.47-1.84c-0.36-0.61-0.99-0.97-1.78-1.03
		c-2.42-0.18-4.85-0.17-7.28-0.2c-0.78-0.01-1.03,0.28-1.03,1.05c0.01,3.94,0,7.88-0.07,11.82c-0.02,1.05,0.34,1.4,1.37,1.36
		c2.11-0.08,4.22-0.05,6.33-0.1c1.19-0.03,2.41-0.06,3.2-1.16c0.38,0.3,0.26,0.59,0.19,0.83c-0.5,1.53-0.67,3.1-0.65,4.7
		c0,0.26,0.13,0.63-0.3,0.65c-0.3,0.01-0.3-0.29-0.35-0.52c-0.51-2.46-0.55-2.48-3.04-2.71c-1.87-0.17-3.73-0.16-5.6-0.18
		c-0.75-0.01-1.07,0.26-1.07,1.04c0,4.1-0.08,8.2-0.05,12.3c0.02,2.26,1.13,3.32,3.41,3.4c1.59,0.06,3.18,0.08,4.77,0.01
		c2.64-0.1,3.98-1.34,4.4-3.95c0.03-0.18-0.02-0.4,0.22-0.5c0.33,0.05,0.34,0.33,0.31,0.55c-0.27,1.61-0.52,3.22-0.87,4.81
		c-0.16,0.71-0.84,0.76-1.46,0.76c-2.39-0.02-4.78-0.01-7.16-0.07C198.58,199.56,195.09,199.19,191.51,199.57z"/>
	<path class="st1" d="M229.95,199.97c0.3-0.38,0.34-0.48,0.4-0.49c2.34-0.44,2.8-2.15,2.87-4.16c0.3-9.27,0.18-18.54,0.07-27.82
		c-0.03-2.2-0.76-2.87-2.95-3.12c-0.27-0.03-0.53-0.08-0.8-0.11c0-0.13,0-0.26,0-0.39c1.14,0,2.28,0,3.42,0
		c5.09-0.01,10.18,0.17,15.27-0.13c0.38-0.02,0.9,0.01,0.71,0.47c-0.66,1.58-0.48,3.27-0.62,5.12c-0.7-0.69-0.57-1.47-0.88-2.08
		c-0.49-0.95-1.13-1.49-2.21-1.51c-2.35-0.05-4.69-0.1-7.04-0.18c-0.75-0.03-1.07,0.21-1.07,1.01c0.02,4.06,0,8.12-0.02,12.18
		c0,0.73,0.19,1.09,1.01,1.07c2.51-0.06,5.01-0.06,7.52-0.09c0.66-0.01,1.26-0.23,1.69-0.75c0.17-0.2,0.33-0.4,0.57-0.22
		c0.12,0.09,0.21,0.37,0.18,0.53c-0.43,1.83-0.24,3.68-0.23,5.67c-0.66-0.37-0.64-0.92-0.75-1.38c-0.28-1.18-1.02-1.86-2.22-2.01
		c-2.3-0.29-4.6-0.27-6.91-0.27c-0.62,0-0.84,0.35-0.84,0.91c0,4.26-0.07,8.52,0.03,12.77c0.05,2.07,1.12,2.98,3.21,3.08
		c1.63,0.07,3.26,0.08,4.89,0.03c2.45-0.07,3.55-1.04,4.13-3.45c0.06-0.25,0.03-0.57,0.55-0.72c0.21,1.93-0.03,3.72-0.89,5.4
		c-0.27,0.53-0.92,0.39-1.42,0.4c-3.31,0.09-6.6-0.1-9.9-0.23C235.21,199.4,232.71,199.23,229.95,199.97z"/>
	<path class="st1" d="M98.27,164.14c-0.17,0.08-0.33,0.2-0.5,0.24c-2.54,0.57-2.48,1.58-2.49,3.64c-0.03,8.99,0.01,17.98-0.06,26.98
		c-0.02,2.75,0.94,4.17,3.56,4.35c0.22,0.02,0.44,0.13,0.65,0.34c-3.76-0.13-7.51-0.59-11.32,0.24c0.15-0.49,0.48-0.42,0.7-0.5
		c1.67-0.61,2.36-1.47,2.41-3.28c0.25-9.51,0.12-19.02,0.07-28.53c-0.01-2.35-0.29-2.59-2.63-3.24c-0.22-0.06-0.48-0.07-0.58-0.44
		c3.4,0,6.76,0,10.12,0C98.22,164.01,98.25,164.07,98.27,164.14z"/>
	<path class="st1" d="M162.21,232.09c-2.73,0.24-4.2-1.24-5.52-2.94c-0.83-1.06-1.62-2.16-2.41-3.25c-0.96-1.32-2.36-1.46-3.82-1.46
		c-0.59,0-0.86,0.25-0.87,0.86c-0.04,1.55-0.01,3.1,0.12,4.65c0.09,1.11,0.88,1.63,1.7,2.25c-1.46-0.24-2.89-0.45-4.61,0.06
		c2-2.28,1.13-4.69,1.17-6.95c0.04-2.3-0.13-4.6,0.07-6.9c0.09-1.07,0.17-2.16-0.45-3.12c-0.37-0.58-0.14-0.83,0.43-0.84
		c1.91-0.02,3.83-0.27,5.72,0.02c3.1,0.47,4.5,4.16,2.79,7.18c-0.31,0.55-0.72,1.05-1.14,1.52c-0.71,0.8-0.7,1.65,0.02,2.33
		c1.37,1.28,2.37,2.88,3.71,4.19C159.98,230.55,161.06,231.14,162.21,232.09z M149.41,219.92c0,0.78-0.01,1.78,0,2.77
		c0,0.31-0.01,0.63,0.3,0.85c1.19,0.86,3.91,0.67,4.89-0.35c1.36-1.43,1.54-5.15,0.31-6.71c-0.82-1.04-3.74-1.76-4.92-1.23
		c-0.37,0.16-0.36,0.48-0.42,0.78C149.33,217.26,149.51,218.49,149.41,219.92z"/>
	<path class="st1" d="M139.53,221.15c0-1.44-0.01-2.75,0-4.06c0.01-0.57-0.04-1.1-0.42-1.57c-0.15-0.19-0.49-0.51-0.23-0.72
		c0.49-0.4,1.13-0.23,1.71-0.22c0.33,0.01,0.49,0.25,0.44,0.58c-0.58,3.48,0.26,6.99-0.26,10.47c-0.13,0.88-0.31,1.77-0.56,2.62
		c-0.74,2.51-3.3,4.04-5.77,4.32c-2.37,0.27-5.25-1.43-6.31-3.57c-0.68-1.37-1.05-2.82-1.04-4.36c0.01-2.71,0.02-5.41,0.03-8.12
		c0-0.48,0.04-0.96-0.37-1.33c-0.17-0.15-0.42-0.34-0.2-0.59c0.11-0.12,0.36-0.18,0.54-0.17c0.71,0.04,1.42,0.11,2.13,0.17
		c0.34,0.03,0.8,0.21,0.41,0.54c-1.07,0.88-0.96,2.12-0.97,3.2c-0.02,3.09-0.13,6.2,0.56,9.25c0.42,1.85,1.47,3.23,3.4,3.71
		c3.1,0.77,5.91-1.05,6.59-4.2C139.66,225.09,139.42,223.05,139.53,221.15z"/>
	<path class="st1" d="M90.77,214.79c0.17-0.12,0.2-0.16,0.23-0.16c2.94-0.18,2.21-0.31,2.15,2.06c-0.08,3.42-0.02,6.84,0.19,10.26
		c0.15,2.51,2.35,4.51,4.79,4.75c2.02,0.2,4.41-1.61,5.14-3.88c0.34-1.07,0.54-2.16,0.56-3.27c0.04-2.63,0.06-5.25,0.08-7.88
		c0-0.35-0.08-0.71-0.11-1.06c-0.02-0.32-0.68-0.59-0.21-0.87c0.42-0.25,1.02-0.27,1.5-0.05c0.49,0.23,0.16,0.64,0.06,0.94
		c-0.32,1.01-0.19,2.05-0.2,3.08c-0.04,2.7,0.17,5.4-0.13,8.11c-0.3,2.75-3.41,5.86-6.59,5.81c-3.22-0.06-6.13-2.55-6.59-5.8
		c-0.46-3.21-0.03-6.44-0.13-9.66C91.49,216.3,91.45,215.49,90.77,214.79z"/>
	<path class="st1" d="M122.98,231.85c-2.41,0.24-2.39,0.23-3.4-1.61c-0.97-1.76-2.13-3.42-3.07-5.21c-0.56-1.06-0.89-1.06-1.42-0.04
		c-1.12,2.18-2.75,4.09-3.56,6.44c-0.1,0.3-0.32,0.44-0.63,0.46c-0.62,0.04-1.24,0.09-2.07,0.15c2.57-2.35,3.7-5.51,5.77-8
		c0.59-0.71,0.61-1.35,0.1-2.16c-0.71-1.1-1.23-2.31-1.89-3.44c-0.7-1.19-1.28-2.48-2.56-3.23c-0.2-0.12-0.4-0.31-0.33-0.58
		c0.07-0.3,0.35-0.26,0.58-0.29c1.82-0.24,1.97-0.01,2.65,1.65c0.7,1.71,1.69,3.3,2.56,4.94c0.41,0.78,0.87,0.56,1.21-0.01
		c1.13-1.89,2.24-3.8,3.29-5.73c0.18-0.33,0.3-0.63,0.65-0.76c0.34-0.12,0.77-0.22,1,0.09c0.27,0.35-0.18,0.54-0.37,0.75
		c-1.51,1.71-2.33,3.88-3.73,5.65c-0.79,1-0.88,1.79-0.13,2.92C119.36,226.49,120.73,229.37,122.98,231.85z"/>
	<path class="st1" d="M166.56,232.1c2.37-2.59,1.82-5.37,0.97-7.91c-0.98-2.93-2.9-5.45-4.62-8.02c-0.32-0.48-0.83-0.72-1.27-1.07
		c-0.16-0.13-0.31-0.3-0.17-0.5c0.07-0.1,0.26-0.16,0.41-0.17c0.59-0.02,1.18-0.02,1.78,0c0.4,0.01,0.7,0.24,0.77,0.63
		c0.35,2.07,1.8,3.6,2.69,5.4c0.33,0.68,0.66,1.36,1.05,2c0.4,0.64,0.9,0.84,1.31,0c1.25-2.53,3-4.77,4.14-7.36
		c0.19-0.42,0.45-0.76,0.95-0.79c0.31-0.02,0.68-0.07,0.86,0.26c0.17,0.32-0.16,0.47-0.32,0.68c-2.16,2.85-4.31,5.82-5.46,9.16
		c-0.8,2.31-0.69,5.1,0.96,7.61C169.21,231.8,167.95,231.81,166.56,232.1z"/>
	<path class="st1" d="M77.88,214.78c3.1-0.36,2.68-0.43,2.72,1.88c0.07,4.13,0.14,8.26,0.2,12.39c0.02,1.61,0.39,2.13,2.05,2.24
		c1.55,0.1,3.21,0.4,4.48-0.96c0.14-0.15,0.33-0.24,0.53-0.1c0.18,0.14,0.18,0.36,0.09,0.54c-0.33,0.69-0.83,1.11-1.65,1.17
		c-1.5,0.11-2.99,0.26-4.5-0.04c-1.16-0.23-2.35-0.21-3.6-0.01c0.87-0.78,0.82-1.75,0.83-2.69c0.02-4.17,0.03-8.34,0.03-12.52
		C79.05,215.94,79.17,215.15,77.88,214.78z"/>
	<path class="st1" d="M217.53,172.23c0.39-1.26,1-2.37,1.27-3.59c0.23-1.05,0.43-2.09,0.48-3.17c0.06-1.34,0.22-2.69-0.84-3.8
		c-0.19-0.2-0.44-0.55-0.23-0.84c0.17-0.24,0.52-0.08,0.79-0.04c3.33,0.49,3.76,1.22,2.86,4.49c-0.6,2.18-1.72,4.07-2.95,5.92
		C218.62,171.63,218.3,172.13,217.53,172.23z"/>
</g>
</svg>
