<?xml version="1.0" encoding="utf-8"?>
<!-- Generator: Adobe Illustrator 28.1.0, SVG Export Plug-In . SVG Version: 6.00 Build 0)  -->
<svg version="1.1" id="Layer_1" xmlns="http://www.w3.org/2000/svg" xmlns:xlink="http://www.w3.org/1999/xlink" x="0px" y="0px"
	 viewBox="0 0 250 250" style="enable-background:new 0 0 250 250;" xml:space="preserve">
<style type="text/css">
	.st0{fill:#FFFFFF;}
	.st1{fill:#282828;}
</style>
<path class="st0" d="M0,250V88.09C0,39.44,39.44,0,88.09,0H250v161.91c0,48.65-39.44,88.09-88.09,88.09H0z"/>
<g>
	<path class="st1" d="M128.05,38.66c36.7,0,73.4,0.04,110.11-0.07c2.9-0.01,3.63,0.74,3.61,3.61c-0.14,17.3-0.13,34.59,0,51.89
		c0.02,2.7-0.8,3.23-3.34,3.23c-37.02-0.08-74.03-0.02-111.05-0.13c-3.01-0.01-3.58,0.9-3.55,3.67c0.15,11.32,0.02,22.64,0.11,33.96
		c0.02,2.03-0.5,2.63-2.6,2.63c-34.71-0.07-69.42-0.07-104.13,0c-2.21,0-2.51-0.78-2.5-2.69c0.06-15.93,0.11-31.87-0.03-47.8
		c-0.02-2.63,0.84-3.02,3.18-3.02c65.02,0.06,130.03,0.03,195.05,0.12c3.04,0,4.09-0.52,3.97-3.84c-0.29-8.48-0.2-16.98-0.03-25.47
		c0.05-2.5-0.65-3.09-3.1-3.08c-47.19,0.08-94.38,0.06-141.57,0.06c-18.46,0-36.91-0.04-55.37,0.05c-2.39,0.01-3.42-0.47-3.15-3.06
		c0.24-2.28,0.24-4.63,0-6.91c-0.29-2.74,0.85-3.28,3.35-3.21c6.5,0.17,13,0.06,19.5,0.06C67.02,38.66,97.53,38.66,128.05,38.66z"/>
	<path class="st1" d="M186.56,104.7c17.3,0,34.6,0.06,51.91-0.06c2.55-0.02,3.1,0.75,3.06,3.15c-0.14,9.01-0.12,18.03-0.01,27.04
		c0.02,2.05-0.52,2.66-2.6,2.62c-6.6-0.13-13.21-0.12-19.82,0c-1.95,0.04-2.51-0.51-2.45-2.46c0.14-4.71-0.1-9.44,0.11-14.15
		c0.11-2.47-0.76-2.9-3.02-2.9c-26.21,0.08-52.43-0.03-78.64,0.14c-3.34,0.02-4.16-0.98-3.81-4.01c0.24-2.07,0.2-4.2,0-6.28
		c-0.24-2.43,0.5-3.18,3.06-3.16C151.75,104.76,169.15,104.7,186.56,104.7z"/>
	<path class="st1" d="M183.5,170.62c-1.49-6.64-8.27-11-16.79-10.82c-7.88,0.17-14.15,4.85-15.32,11.43
		c-1.66,9.24,5.3,16.52,16.64,16.54c0.38-0.03,1.65-0.03,2.89-0.21C179.92,186.24,185.36,178.88,183.5,170.62z M175.03,181.82
		c-4.03,2.95-10.7,3.05-14.8,0.23c-3.54-2.44-5.16-6.38-4.24-10.36c1.13-4.91,5.71-8.08,11.66-8.05c5.5,0.02,10.14,3.18,11.33,7.71
		C180.01,175.3,178.51,179.27,175.03,181.82z"/>
	<path class="st1" d="M121.24,174.69c-0.94-0.65-2.03-1.07-3.39-1.78c2.65-1.78,4.38-3.87,3.52-7.16c-0.89-3.42-3.42-4.8-6.64-5.36
		c-3.03-0.53-6.07-0.13-9.1-0.33c-1.76-0.11-2.36,0.43-2.32,2.25c0.11,5.34-0.03,10.7,0.07,16.03c0.05,3.02-1.35,7.15,0.56,8.73
		c1.81,1.52,5.8,0.45,8.83,0.5c3.08,0.04,6.09-0.3,8.66-2.24C125.19,182.48,125.12,177.38,121.24,174.69z M110.51,163.65
		c4.39,0.32,6.37,1.27,6.37,3.93c0,2.76-2.25,4.03-6.52,4.31c-3.96,0.26-2.08-2.58-2.57-4.02
		C108.01,165.89,106.74,163.38,110.51,163.65z M115.36,183.74c-1.13,0.17-2.29,0.14-3.6,0.22c-1.16-0.48-3.36,0.91-3.75-0.76
		c-0.56-2.36-0.49-4.96,0.07-7.42c0.04-0.19,0.71-0.35,1.09-0.33c2.19,0.07,4.41,0.01,6.57,0.35c2.12,0.33,3.8,1.57,3.73,3.95
		C119.39,182.24,117.65,183.4,115.36,183.74z"/>
	<path class="st1" d="M141.47,174.58c3.65-2.01,5.41-4.65,4.49-8.47c-0.91-3.83-3.85-5.35-7.4-5.75c-2.59-0.3-5.23-0.09-7.84-0.3
		c-1.84-0.14-2.29,0.55-2.27,2.3c0.08,7.55,0.06,15.1,0.02,22.64c-0.01,1.63-0.01,2.7,2.23,2.68c2.17-0.03,2.37-0.98,2.29-2.68
		c-0.09-2.2,0.16-4.42-0.07-6.6c-0.31-2.98,1.25-3.07,3.37-2.47c1.46,0.41,2.63,1.35,3.54,2.51c1.75,2.21,3.58,4.39,5.04,6.79
		c1.71,2.8,3.93,2.66,6.9,1.95C148.03,183.01,145.87,178.08,141.47,174.58z M135.3,172.05c-2.32,0.03-2.32,0.03-2.32-4.55
		c0.87-1.04-1.83-4.05,2.16-3.89c4.26,0.18,6.5,1.52,6.43,4.28C141.49,170.57,139.33,172,135.3,172.05z"/>
	<path class="st1" d="M26.86,174.73c4.14-3.32,5.26-5.79,4.2-9.25c-0.94-3.1-4.43-5.17-9.16-5.37c-1.98-0.08-3.98,0.08-5.97-0.05
		c-1.71-0.11-2.4,0.37-2.38,2.24c0.09,7.64,0.08,15.29,0.01,22.93c-0.02,1.66,0.3,2.39,2.2,2.42c2.08,0.04,2.47-0.76,2.36-2.57
		c-0.13-2.19-0.04-4.39-0.03-6.6c0.01-2.86,0.86-3.47,3.57-2.52c1.32,0.46,2.43,1.28,3.27,2.37c1.55,1.97,3.19,3.9,4.46,6.05
		c1.72,2.91,3.97,3.92,7.54,2.81C33.32,183.09,31.08,178.15,26.86,174.73z M20.36,172.08c-4.05,0.09-1.48-3-2.39-4.4
		c0.72-1.49-1.4-4.32,2.47-4.07c4.09,0.26,6.23,1.46,6.29,4.1C26.79,170.51,24.5,171.99,20.36,172.08z"/>
	<path class="st1" d="M64.58,170.15c0,2.1,0.03,4.19-0.01,6.29c-0.02,1.04-0.05,2.11-0.26,3.12c-1.19,5.78-6.52,8.72-14.71,8.18
		c-6.64-0.44-10.78-3.94-11.05-9.73c-0.25-5.33-0.08-10.68-0.22-16.02c-0.05-1.91,0.97-1.9,2.36-1.93c1.5-0.04,2.32,0.23,2.28,2.02
		c-0.1,4.82-0.1,9.64-0.01,14.46c0.09,5.21,2.97,7.78,8.51,7.78c5.53,0,8.52-2.62,8.62-7.7c0.09-4.61,0.05-9.22,0.01-13.83
		c-0.01-1.55-0.16-2.74,2.16-2.79c2.51-0.06,2.38,1.27,2.34,2.93C64.55,165.33,64.59,167.74,64.58,170.15z"/>
	<path class="st1" d="M232.18,161.08c-0.87-1.73-3.35-1.69-4.21,0.06c-4.19,8.65-8.28,17.34-12.55,26.31
		c2.65,0.15,4.93,0.81,5.65-2.12c1.23-5,4.34-6.89,9.36-5.88c1.01,0.21,2.12,0.17,3.14,0.01c2.36-0.38,3.76,0.55,4.48,2.78
		c0.25,0.79,0.81,1.48,1.07,2.27c0.95,2.95,2.89,3.77,6.01,2.7C240.81,178.47,236.54,169.75,232.18,161.08z M233.87,175.7
		c-2.57-0.03-5.15,0.45-7.69-0.26c0.57-3.1,2.37-5.66,3.83-9.17c1.71,3.43,3.09,6.21,4.44,8.94
		C234.15,175.48,234.01,175.7,233.87,175.7z"/>
	<path class="st1" d="M70.55,173.72c0-3.77,0.07-7.54-0.03-11.31c-0.04-1.69,0.34-2.42,2.23-2.36c4.29,0.14,8.59,0.06,12.89,0.03
		c1.25-0.01,2.18-0.01,2.23,1.74c0.06,1.92-0.94,1.95-2.33,1.93c-2.72-0.05-5.45,0.07-8.17-0.05c-1.69-0.07-2.35,0.31-2.37,2.2
		c-0.07,6.02-0.17,6.02,5.76,6.02c1.57,0,3.15,0.05,4.71-0.02c1.24-0.05,1.95,0.18,1.95,1.67c0,1.45-0.39,2.06-1.96,2
		c-2.82-0.11-5.66,0.04-8.48-0.06c-1.48-0.05-1.92,0.4-1.98,1.92c-0.26,6.44-0.32,6.43,5.96,6.43c1.78,0,3.57,0.07,5.34-0.02
		c1.46-0.07,2.06,0.39,2.02,1.94c-0.03,1.43-0.64,1.76-1.92,1.74c-4.61-0.05-9.22-0.09-13.83,0.02c-1.74,0.04-2.1-0.65-2.07-2.2
		C70.61,181.47,70.55,177.59,70.55,173.72z"/>
	<path class="st1" d="M214.5,166.44c-4.21-1.78-7.75-2.97-11.62-2.78c-6.35,0.31-11.1,4.52-11.23,10.06
		c-0.14,5.64,4.33,9.89,10.85,10.33c4.09,0.28,7.85-0.82,11.45-2.69c1.04,4,0.81,4.41-2.99,5.5c-3.79,1.09-7.67,1.24-11.53,0.66
		c-7.24-1.08-12.39-6.87-12.37-13.67c0.02-6.79,5.25-12.49,12.74-13.77c4.34-0.74,8.53,0.03,12.7,1.3
		C215.18,162.21,213.73,164.26,214.5,166.44z"/>
</g>
</svg>
