<?xml version="1.0" encoding="utf-8"?>
<!-- Generator: Adobe Illustrator 28.1.0, SVG Export Plug-In . SVG Version: 6.00 Build 0)  -->
<svg version="1.1" id="Layer_1" xmlns="http://www.w3.org/2000/svg" xmlns:xlink="http://www.w3.org/1999/xlink" x="0px" y="0px"
	 viewBox="0 0 250 250" style="enable-background:new 0 0 250 250;" xml:space="preserve">
<style type="text/css">
	.st0{fill:#FFFFFF;}
	.st1{fill:#282828;}
</style>
<path class="st0" d="M0,250V88.09C0,39.44,39.44,0,88.09,0H250v161.91c0,48.65-39.44,88.09-88.09,88.09H0z"/>
<g>
	<path class="st1" d="M155.56,160.82c-0.48-1.38-0.56-2.99-1.31-3.45c-1.19-0.73-1.88-1.63-2.44-2.77
		c-2.78-5.71-5.72-11.36-8.21-17.2c-0.91-2.13-0.72-4.74-1.08-7.43c-0.08-0.01-0.54,0.07-0.92-0.09c-0.46-0.19-1.11-0.5-1.21-0.88
		c-1.66-6.5-3.28-13.01-4.82-19.54c-0.18-0.77,0.27-1.67,0.32-2.52c0.04-0.63,0.14-1.45-0.19-1.86c-1-1.24-1.33-2.66-1.5-4.17
		c-0.71-6.54-1.68-13.06-2.07-19.61c-0.82-13.78-1.43-27.57-1.95-41.36c-0.14-3.64,0.36-7.3,0.52-10.94
		c0.03-0.63-0.18-1.27-0.27-1.91c0.51-1.54,0.43-3.01-0.79-4.35c-0.36-0.4-0.7-0.85-1.12-1.16c-0.81-0.61-0.87-1.35-0.84-2.32
		c0.07-2.76,0-5.53-0.08-8.3c-0.02-0.74-0.29-1.47-0.44-2.21c-0.21,0.01-0.43,0.03-0.64,0.05c0,3.69,0.02,7.38-0.03,11.07
		c-0.01,0.45-0.25,1.05-0.59,1.32c-2.02,1.6-3.01,3.48-2.05,5.58c-0.26,0.88-0.53,1.35-0.5,1.79c0.16,2.21,0.66,4.42,0.58,6.61
		c-0.64,16.41-1.27,32.82-2.15,49.22c-0.32,6.01-1.31,11.98-2.03,17.97c-0.09,0.78-0.2,1.51-1.03,2.11
		c-0.47,0.34-0.43,1.57-0.43,2.4c0,1,0.48,2.07,0.26,2.99c-1.41,6-2.98,11.97-4.44,17.95c-0.36,1.45-0.97,2.38-2.57,2.2
		c-0.17,1.53-0.5,2.8-0.39,4.03c0.15,1.67-0.19,3.12-0.96,4.55c-0.6,1.13-1.12,2.3-1.69,3.45c-2.29,4.64-4.58,9.27-6.9,13.9
		c-0.21,0.42-0.52,0.88-0.91,1.07c-1.69,0.82-2.01,1.54-1.43,3.59h11c-0.96-9.27,7.48-16.6,14.33-17.17c4.68-0.39,9,0.55,12.85,3.32
		c4.77,3.44,6.9,8.23,6.55,14.07H155.56z M120.84,129.8c0.58-3.17,1.15-6.3,1.73-9.43c0.38-2.09,0.8-4.17,1.16-6.26
		c0.14-0.83,0.51-1.17,1.35-1.14c1.45,0.05,2.91-0.06,4.36,0.06c0.4,0.03,1.02,0.56,1.09,0.95c0.97,5.23,1.86,10.49,2.78,15.82
		H120.84z M111.51,130.01h0.02c0.02,0,0.04,0.01,0.06,0.01c0-0.03,0.01-0.05,0.01-0.08C111.56,129.97,111.53,129.99,111.51,130.01z
		 M111.51,130.01C111.46,130.02,111.43,130.08,111.51,130.01L111.51,130.01z"/>
	<path class="st1" d="M241.44,151.39c0.24,0.26,0.48,0.5,0.7,0.76c3.84,4.55,2.81,10.74-2.34,13.44c-1.4,0.74-2.97,1.28-4.53,1.55
		c-6.42,1.12-12.57-0.21-18.52-2.61c-7.76-3.13-13.84-8.44-18.78-15.31c0.44-0.36,0.81-0.67,1.18-0.97
		c8.52-6.85,12.02-15.74,10.49-26.69c-1.42-10.12-6.73-17.91-14.36-24.14c-9.65-7.87-21.02-11.25-33.12-12.48
		c-1.15-0.12-1.93-0.46-2.66-1.42c-3.68-4.81-7.61-9.4-12.83-12.59c-2.2-1.34-4.54-2.25-7.18-2.03c-2.56,0.21-5,2.21-5.42,4.55
		c2.96-2.49,5.91-1.86,8.85-0.12c3.49,2.07,6.29,4.94,8.94,7.98c0.85,0.98,1.66,2,2.55,3.08c-2.46,0.52-4.72,0.83-6.88,1.47
		c-7.71,2.27-10.88,7.89-10.05,14.85c0.68,5.7,3.71,10.12,8.2,13.49c3.79,2.84,8.17,4.23,12.64,5.47c5.73,1.6,11.23,2.2,16.26-2.16
		c2.6,5.4,5.02,10.85,7.8,16.11c2.77,5.24,5.91,10.29,9.02,15.65c-2.08,0.76-4.26,1.73-6.53,2.35c-9.76,2.64-18.86,0.56-27.49-4.3
		c-2.82-1.59-5.36-3.59-7.05-6.5c-2.76-4.74-1.3-7.92,4.07-8.68c5.95-0.85,10.73,1.59,14.7,5.86c0.81,0.88,1.27,2.22,1.57,3.43
		c0.41,1.68-0.39,2.87-1.98,3.47c-2.06,0.77-3.93,0.41-4.77-0.92c-1.28,1.79-0.95,2.65,1.17,2.89c0.91,0.1,1.84,0.1,2.76,0.04
		c5.38-0.36,7.72-4.77,4.91-9.45c-4.88-8.14-15.91-10.13-23.62-5.21c-1.87,1.19-2.73,3.01-2.62,5.29c0.11,2.36,0.97,4.43,2.28,6.32
		c2.87,4.13,7.04,6.43,11.49,8.28c10.88,4.52,21.77,5.1,32.6-0.17c0.83-0.4,1.17-0.01,1.71,0.49c2.97,2.75,5.77,5.79,9.04,8.11
		c7.06,5.01,15.14,7.52,23.61,8.64c4.93,0.65,9.9,0.8,14.72-0.82c4.48-1.5,7.42-4.44,7.94-9.41
		C250.47,154.15,245.73,149.91,241.44,151.39z M170.63,111.06c-3.85-1.79-7.71-1.6-11.59,0.06c0.4,0.05,0.81,0.07,1.2,0.15
		c2.17,0.45,4.37,0.83,6.5,1.44c0.83,0.24,1.6,0.94,2.22,1.6c0.93,1,1.33,2.42,0.62,3.55c-0.48,0.76-1.67,1.38-2.6,1.46
		c-4.79,0.45-9.07-1.21-13.05-3.79c-4.55-2.95-8.44-6.5-10.3-11.88c-1.05-3.03-1.11-6.13-0.45-9.21c0.56-2.6,2.07-4.7,4.43-5.76
		c2.32-1.05,4.85-1.61,7.31-2.3c0.34-0.1,1,0.16,1.19,0.47c4.99,7.94,9.94,15.91,14.89,23.88
		C170.88,110.84,170.75,110.95,170.63,111.06z M193.88,142.99c-3.45-6.63-6.93-13.25-10.28-19.94
		c-5.4-10.79-10.66-21.66-17.83-31.39c-1.24-1.69-2.58-3.3-3.88-4.95c13.72,2.25,26.13,7,35.13,18.28
		c5.28,6.62,8.07,14.3,7.98,22.87c-0.08,7.46-3.2,13.52-9.09,18.38C195.2,145.1,194.46,144.09,193.88,142.99z"/>
	<path class="st1" d="M113.31,72.38c1.72-0.75,3.49-0.84,5.21,0.04c0.58,0.29,1.13,0.64,1.82,1.03c-1.34-3.16-3.6-4.87-6.66-4.47
		c-2.1,0.27-4.29,0.98-6.13,2.04c-5.34,3.07-9.21,7.82-12.95,12.65c-0.62,0.81-1.26,1.18-2.28,1.27
		c-9.79,0.88-19.15,3.33-27.64,8.48c-10.12,6.14-17.49,14.56-19.86,26.7c-1.68,8.61-0.17,16.56,5.44,23.41
		c1.72,2.1,3.83,3.88,5.88,5.93c-1.08,1.32-2.19,2.82-3.44,4.19c-8.46,9.23-18.79,14.13-31.3,13.81c-3-0.07-5.86-0.86-8.33-2.73
		c-3.18-2.42-4.18-6.41-2.45-10.03c0.58-1.21,1.37-2.31,2.06-3.46c-4.86-0.7-8.84,2.84-8.45,7.62c0.29,3.59,1.99,6.36,5.04,8.22
		c2.78,1.69,5.87,2.29,9.05,2.48c8.26,0.51,16.1-1.32,23.74-4.34c6.84-2.71,12.57-7,17.41-12.57c0.55-0.64,0.94-1.05,1.92-0.6
		c13.62,6.37,26.58,4.19,39.02-3.36c3.46-2.11,5.99-5.19,7-9.31c0.85-3.47-0.11-5.99-3.22-7.6c-5.65-2.91-11.39-3.06-17,0.16
		c-3.31,1.89-5.97,4.43-6.83,8.43c-0.48,2.21,0.28,3.98,2.12,5.24c2.07,1.41,4.37,1.55,6.72,1.27c2.02-0.24,2.31-1.08,1.09-2.87
		c-0.26,0.32-0.45,0.73-0.78,0.94c-1.11,0.71-4.02,0.3-5.13-0.67c-1.03-0.9-1.31-2.38-0.57-4.11c0.4-0.94,0.9-1.95,1.64-2.59
		c1.58-1.37,3.23-2.73,5.04-3.72c4.04-2.21,8.29-2.76,12.58-0.64c1.82,0.9,2.45,2.27,2.03,4.28c-0.2,0.95-0.51,1.92-0.96,2.77
		c-2.02,3.85-5.41,6.12-9.1,8.01c-9.61,4.92-19.48,6.11-29.69,2.02c-0.92-0.37-1.8-0.85-2.86-1.36
		c7.45-9.68,11.87-20.83,17.24-31.61c2.58,3.04,5.92,3.64,9.38,3.48c6.06-0.27,11.7-2.19,17.03-5.06c3.56-1.91,6.37-4.69,8.34-8.28
		c1.69-3.08,2.77-6.36,2.33-9.94c-0.76-6.24-4.16-10.1-10.33-11.74c-2.13-0.56-4.31-0.91-6.69-1.4
		C103.76,79.62,107.57,74.89,113.31,72.38z M74.46,115.33c-4.65,9.17-9.33,18.33-14.03,27.47c-0.58,1.13-1.33,2.16-2.12,3.43
		c-6.43-5.32-9.58-12.06-9.07-20.24c0.72-11.86,6.13-21.28,15.41-28.36c8.1-6.18,17.37-9.5,27.28-11.13
		c0.09-0.01,0.19,0.04,0.47,0.1c-1.31,1.67-2.62,3.24-3.83,4.88C83.06,98.94,78.65,107.06,74.46,115.33z M99.9,86.42
		c2.03,0.63,4.15,1.05,6.08,1.92c3.23,1.45,4.96,4.15,5.34,7.73c0.52,4.81-0.56,9.2-3.65,12.89c-4.93,5.88-10.9,9.93-18.74,10.45
		c-0.58,0.04-1.17,0.02-1.75-0.03c-1.08-0.11-2.19-0.27-2.63-1.49c-0.48-1.32-0.2-2.56,0.7-3.6c1.38-1.62,3.3-2.22,5.27-2.6
		c1.51-0.29,3.05-0.39,4.57-0.58c-3.84-1.67-7.7-1.83-11.95,0.16c1.2-2.11,2.13-3.85,3.16-5.54c3.76-6.11,7.58-12.19,11.33-18.32
		C98.23,86.46,98.87,86.1,99.9,86.42z"/>
	<path class="st1" d="M200.23,188.01c-0.74-0.83-0.14-1.86,0.54-2.64c0.19-0.22,0.43-0.4,0.65-0.59c0.67-0.57,1.38-1.09,2-1.72
		c0.27-0.27,0.34-0.75,0.5-1.13c-0.45-0.1-1.08-0.44-1.3-0.26c-0.75,0.62-1.38,1.42-2.02,2.17c-0.84,0.99-1.64,2-2.46,3
		c-0.1-0.09-0.2-0.18-0.3-0.26c0.17-0.35,0.37-0.69,0.5-1.05c0.45-1.25,1.19-2.7-0.11-3.68c-1.32-0.98-2.39,0.29-3.25,1.16
		c-1.72,1.74-3.25,3.68-4.99,5.4c-1.1,1.09-2.32,2.13-3.66,2.85c-1.57,0.85-2.75-0.13-2.43-1.9c0.08-0.46,0.66-0.94,1.12-1.21
		c1.68-0.95,3.47-1.7,5.09-2.74c0.93-0.6,1.45-1.71,0.87-2.86c-0.6-1.2-1.76-1.07-2.83-0.85c-0.52,0.1-1.09,0.24-1.49,0.56
		c-1.56,1.23-3.13,2.46-4.58,3.82c-1.64,1.54-3.12,3.24-4.75,4.79c-0.34,0.33-1,0.31-1.51,0.46c0.07-0.56,0-1.19,0.25-1.64
		c0.57-1.03,1.35-1.94,1.94-2.96c0.54-0.93,1.1-1.89,1.34-2.92c0.14-0.58-0.17-1.54-0.61-1.92c-0.35-0.29-1.31-0.12-1.83,0.16
		c-0.8,0.43-1.49,1.1-2.15,1.74c-0.74,0.72-1.4,1.53-2.09,2.3c-0.12-0.65,0.09-1.05,0.17-1.47c0.19-1.01,0.59-2.32-0.55-2.77
		c-0.68-0.27-1.93,0.12-2.56,0.65c-1.44,1.23-2.65,2.74-3.98,4.11c-0.54,0.56-1.1,1.13-1.76,1.51c-0.35,0.21-1.05,0.21-1.34-0.02
		c-0.27-0.22-0.42-0.96-0.27-1.31c0.33-0.73,0.82-1.43,1.37-2.01c0.66-0.71,1.49-1.26,2.18-1.95c0.2-0.19,0.32-0.69,0.21-0.9
		c-0.12-0.22-0.57-0.37-0.86-0.35c-1.26,0.08-1.68,1.1-2.28,2.03c-0.73,1.15-1.68,2.17-2.53,3.25c-0.11-0.09-0.22-0.18-0.33-0.26
		c0.13-0.26,0.27-0.53,0.4-0.79c0.85-1.86,0.93-3.52,0.04-3.99c-1.58-0.84-2.55,0.46-3.49,1.37c-1.3,1.26-2.44,2.68-3.7,3.99
		c-0.83,0.87-1.77,1.57-3.23,1.39c0.51-0.9,0.97-1.6,1.32-2.35c0.74-1.57,0.63-3.19-0.21-4.04c-0.85-0.86-2.37-0.91-3.97-0.12
		c-2.28,1.14-3.98,2.93-5.32,4.72c0.22,0.47,0.45,0.74,0.49,1.05c0.08,0.63,0.01,1.29,0.11,1.92c0.34,2.01,1.65,2.84,3.49,2.02
		c1.04-0.46,1.92-1.31,2.89-1.94c0.42-0.27,0.9-0.62,1.37-0.63c1.65-0.04,2.82-0.87,3.88-2.05c1.27-1.43,2.58-2.82,3.96-4.13
		c0.44-0.42,1.15-0.57,1.73-0.84c0.13,0.17,0.27,0.33,0.4,0.5c-1.9,2.99-3.8,5.98-5.73,9.02c1.54,0.34,2.53-0.15,3.4-1.31
		c1.09-1.46,2.38-2.77,3.46-4c0.41,0.93,0.64,2.21,1.1,2.3c0.81,0.16,1.78-0.33,2.63-0.69c0.41-0.18,0.68-0.68,1.02-1.04
		c1.25-1.31,2.46-2.67,3.77-3.91c0.46-0.44,1.17-0.61,1.77-0.9c0.15,0.16,0.29,0.33,0.43,0.49c-1.91,3.01-3.82,6.02-5.76,9.09
		c1.59,0.32,2.51-0.21,3.43-1.34c2.01-2.47,4.2-4.79,6.38-7.11c0.47-0.5,1.21-0.74,1.82-1.1c0.12,0.15,0.24,0.3,0.36,0.45
		c-0.54,0.78-1.11,1.55-1.63,2.35c-0.72,1.11-1.54,2.18-2.06,3.37c-0.52,1.17-0.49,2.54,0.61,3.4c1.19,0.92,2.11-0.14,2.92-0.86
		c1.26-1.12,2.43-2.34,3.76-3.64c0.03,0.45,0.06,0.69,0.07,0.93c0.07,1.49,0.39,2.91,1.85,3.61c1.49,0.72,2.91,0.2,4.06-0.8
		c1.4-1.21,2.68-2.57,3.98-3.89c1.34-1.36,2.61-2.79,3.98-4.12c0.43-0.41,1.1-0.55,1.65-0.82c0.17,0.18,0.33,0.35,0.5,0.53
		c-1.92,2.97-3.84,5.94-5.79,8.96c1.96,0.28,2.12,0.2,3.15-1.01c1.29-1.52,2.61-3,3.91-4.5c0.13,1.18-0.3,2.33,1.14,2.73
		c1.12,0.31,2.55-0.6,3.22-2.17c-0.45,0.36-0.75,0.58-1.02,0.8C201.9,188.1,201,188.88,200.23,188.01z M188.16,182.52
		c0.41-0.25,1.05-0.14,1.58-0.19c-0.03,0.56,0.12,1.22-0.12,1.65c-1.11,1.98-2.9,3.08-5.39,3.85
		C185.12,185.43,186.27,183.67,188.16,182.52z M145.75,191.32c-1.14,0.42-1.98-0.1-1.66-1.3c0.45-1.72,1.16-3.41,2.03-4.96
		c0.55-0.98,1.47-1.85,2.42-2.47c1.38-0.9,2.47-0.12,2.42,1.56C150.89,186.66,148.15,190.43,145.75,191.32z"/>
	<path class="st1" d="M71.34,179.22c4.26,0.73,6.38-0.43,7.65-4.18c1.01-2.96,0.27-5.59-2.26-7.07c-1.17,1.75-2.43,3.48-3.53,5.31
		c-2.19,3.67-4.16,7.49-6.46,11.09c-1.84,2.89-4.36,5.18-7.47,6.66c-2.17,1.04-4.44,1.46-6.79,0.75c-1.71-0.52-2.64-2.03-2.19-3.47
		c0.3-0.94,0.9-1.62,1.94-1.32c1,0.29,1.28,1.08,1.03,2.11c-0.4,1.61,0.08,2.3,1.7,2.42c2.02,0.15,3.84-0.61,5.11-2.08
		c1.93-2.26,3.78-4.65,5.3-7.2c3.12-5.24,5.79-10.78,11.29-14.74c-1.76-0.47-3.11-1.05-4.49-1.17c-6.66-0.54-12.45,1.49-17.11,6.46
		c-1.46,1.56-2.5,3.42-2.53,5.68c-0.04,2.19,1.06,3.43,3.14,3c1.65-0.34,3.34-1.1,4.7-2.1c3.49-2.56,5.67-6.17,7.19-10.54
		c0.14,0.46,0.28,0.68,0.24,0.86c-1.05,5.28-3.33,9.71-8.32,12.15c-0.94,0.46-2.03,0.72-3.07,0.78c-3.56,0.22-5.43-2.32-4.27-5.78
		c1.31-3.93,4.09-6.58,7.59-8.41c5.34-2.79,10.92-3.59,16.78-1.73c0.76,0.24,1.76-0.3,2.8-0.51c-0.44,0.39-0.8,0.72-1.29,1.16
		c2.27,1.7,3.95,3.72,3.69,6.79c-0.16,1.94-1.12,3.45-2.53,4.68C76.72,180.98,72.87,181.15,71.34,179.22z"/>
	<path class="st1" d="M116.41,186.68c-0.72,0.74-1.43,1.48-1.99,2.06c-0.2-1.36-0.42-2.87-0.62-4.37c-0.13-0.97-0.38-1.97,0.81-2.57
		c0.3-0.15,0.45-0.67,0.58-1.05c0.03-0.09-0.35-0.47-0.46-0.44c-0.39,0.12-0.84,0.28-1.09,0.57c-1.6,1.85-3.1,3.8-4.73,5.61
		c-1.37,1.53-2.84,2.98-4.36,4.35c-0.43,0.39-1.2,0.37-1.82,0.53c0.08-0.63,0-1.36,0.29-1.88c0.82-1.51,1.78-2.95,2.68-4.41
		c0.64-1.05,1.27-2.11,1.96-3.25c-1.71-0.2-2.89,0.23-3.82,1.44c-0.9,1.16-1.89,2.26-2.89,3.34c-0.52,0.57-1.1,1.14-1.77,1.5
		c-0.38,0.2-1.1,0.15-1.45-0.11c-0.25-0.19-0.36-1.03-0.16-1.33c0.57-0.88,1.31-1.66,2.02-2.43c0.66-0.72,1.39-1.37,2.19-2.14
		c-1.73-0.81-2.52-0.38-3.44,1.18c-0.74,1.26-1.7,2.39-2.57,3.57c-0.09-0.07-0.18-0.14-0.28-0.22c0.29-1.02,0.71-2.03,0.82-3.07
		c0.06-0.58-0.24-1.49-0.67-1.75c-0.44-0.27-1.31-0.08-1.86,0.18c-0.64,0.3-1.19,0.86-1.69,1.39c-2.1,2.19-4.14,4.45-6.26,6.62
		c-0.64,0.66-1.5,1.09-2.26,1.63c-0.19-0.16-0.38-0.31-0.57-0.47c1.14-3.38,3.67-6.05,5.2-9.24c-0.09-0.15-0.17-0.29-0.26-0.44
		c-1.07,0.51-2.14,1.01-3.21,1.52c-0.68-1.43-1.66-1.8-3.57-1.11c-2.71,0.97-4.64,2.97-6.2,5.14c0.29,0.69,0.29,1.41,0.52,2.05
		c0.34,0.97,0.64,2.41,1.32,2.68c0.8,0.32,2.06-0.26,3.02-0.69c0.69-0.32,1.21-1.03,1.62-1.4c0.45,0.8,0.77,2.09,1.3,2.19
		c0.85,0.16,1.98-0.28,2.74-0.83c1.13-0.82,2.07-1.93,3.05-2.95c1.56-1.63,3.04-3.33,4.65-4.91c0.49-0.49,1.28-0.67,1.93-0.99
		c0.13,0.18,0.26,0.36,0.39,0.53c-1.9,2.98-3.8,5.96-5.76,9.03c2.21,0.1,2.2,0.08,3.44-1.4c1.18-1.41,2.41-2.77,3.51-4.03
		c0.34,0.91,0.41,1.98,0.95,2.38c0.94,0.7,1.94,0.01,2.74-0.69c0.33-0.29,0.6-0.64,0.89-0.96c0.49-0.54,0.97-1.08,1.46-1.62
		c-0.29,1.07-0.8,1.97-1.2,2.9c-0.5,1.14-0.71,2.36,0.34,3.28c1.11,0.98,2.25,0.44,3.15-0.38c1.37-1.25,2.66-2.59,3.93-3.95
		c1.35-1.45,2.62-2.97,4.15-4.72c0.27,3.13-0.22,5.67-1.89,7.9c-0.48,0.64-1.06,1.32-2.12,0.8c0.06-0.26,0.14-0.49,0.15-0.72
		c0.01-0.45-0.02-0.89-0.03-1.34c-0.37,0.03-0.93-0.07-1.06,0.12c-0.27,0.39-0.56,1.13-0.37,1.4c0.37,0.55,1.08,1.27,1.6,1.24
		c1.2-0.07,2.55-0.29,3.53-0.94c1.36-0.9,2.43-2.24,3.6-3.42c0.15-0.15,0.17-0.43,0.25-0.65
		C116.63,186.85,116.52,186.77,116.41,186.68z M78.77,191.03c-1.22,0.76-2.01,0.3-1.79-1.06c0.51-3.11,2.02-5.65,4.66-7.35
		c1.34-0.86,2.43-0.34,2.42,1.13c-0.07,0.25-0.14,0.7-0.31,1.1C82.71,187.42,81.13,189.58,78.77,191.03z"/>
	<path class="st1" d="M146.8,165.77c-1.38-0.02-2.84,0.17-4.14,0.62c-6.43,2.24-11.72,6.11-15.44,12c-0.61,0.97-1.33,1.45-2.41,1.62
		c-1.11,0.18-2.2,0.51-3.3,0.77c0.03,0.16,0.06,0.31,0.1,0.47c1.47-0.31,2.95-0.61,4.49-0.94c-0.29,1.33-0.65,2.47-0.77,3.63
		c-0.12,1.17-0.13,2.38,0.05,3.53c0.41,2.6,2.3,4.3,4.85,4.57c4.46,0.48,9.54-3.04,10.74-7.44c0.82-3.03-1.18-5.2-4.15-4.44
		c-0.68,0.18-1.38,0.51-1.94,0.96c-2.56,2.07-3.5,4.87-3.41,8.09c0.14,0.04,0.28,0.09,0.41,0.14c0.26-0.81,0.49-1.64,0.79-2.43
		c0.87-2.32,2.09-4.4,4.36-5.53c2.14-1.06,3.74,0.13,3.49,2.52c-0.04,0.39-0.13,0.79-0.28,1.15c-1.56,3.65-4.3,5.8-8.15,6.37
		c-2.25,0.33-4.01-1.03-4.14-3.33c-0.1-1.75,0.22-3.52,0.43-5.28c0.3-2.46,1.62-3.7,4.09-4.39c4.77-1.33,9.47-3.06,13.48-6.13
		c1.12-0.86,2.1-2.08,2.75-3.34C149.58,167.33,148.64,165.8,146.8,165.77z M147.57,169.95c-1.88,1.66-3.86,3.35-6.09,4.4
		c-3.45,1.64-7.13,2.76-10.71,4.1c-0.17,0.06-0.37,0.03-0.85,0.07c3.63-6.18,8.42-10.36,15.03-12.2c0.18-0.05,0.38-0.07,0.57-0.09
		c1.03-0.11,2.31-0.25,2.63,0.92C148.38,167.99,148.15,169.44,147.57,169.95z"/>
	<path class="st1" d="M111.37,175.6c-0.84,0.67-1.35,1.18-1.96,1.48c-0.11,0.05-0.97-0.95-0.89-1.1c0.35-0.59,0.9-1.1,1.47-1.48
		C110.12,174.42,110.68,175.03,111.37,175.6z"/>
</g>
</svg>
